<?xml version="1.0" encoding="UTF-8" standalone="no"?>
<!-- Created with Inkscape (http://www.inkscape.org/) -->

<svg
   width="400mm"
   height="400mm"
   viewBox="0 0 400 400"
   version="1.1"
   id="svg1"
   inkscape:version="1.4.2 (f4327f4, 2025-05-13)"
   sodipodi:docname="Goblin.svg"
   xmlns:inkscape="http://www.inkscape.org/namespaces/inkscape"
   xmlns:sodipodi="http://sodipodi.sourceforge.net/DTD/sodipodi-0.dtd"
   xmlns="http://www.w3.org/2000/svg"
   xmlns:svg="http://www.w3.org/2000/svg">
  <sodipodi:namedview
     id="namedview1"
     pagecolor="#505050"
     bordercolor="#eeeeee"
     borderopacity="1"
     inkscape:showpageshadow="false"
     inkscape:pageopacity="0"
     inkscape:pagecheckerboard="true"
     inkscape:deskcolor="#505050"
     inkscape:document-units="mm"
     labelstyle="default"
     inkscape:lockguides="false"
     inkscape:zoom="1.0444209"
     inkscape:cx="833.47622"
     inkscape:cy="442.82912"
     inkscape:window-width="1920"
     inkscape:window-height="1009"
     inkscape:window-x="-8"
     inkscape:window-y="430"
     inkscape:window-maximized="1"
     inkscape:current-layer="g15" />
  <defs
     id="defs1" />
  <path
     style="fill:#3d6f49;fill-opacity:1;stroke:none;stroke-width:1.62961"
     d="m 358.7701,168.74186 20.98865,40.68112 -6.40333,33.83758 -31.66084,-5.70297 -12.45091,-51.32665 z"
     id="path8"
     inkscape:label="LeftArm" />
  <path
     style="fill:#4d8b5c;fill-opacity:1;stroke:none;stroke-width:1.5875"
     d="m 343.93245,236.0953 -16.83835,55.88901 3.58262,17.91316 8.24005,6.80699 22.92882,-18.27141 11.46442,-54.45597 6.62787,-35.64716 -16.99948,-4.15604 z"
     id="path9"
     inkscape:label="LeftForeArm"
     sodipodi:nodetypes="ccccccccc" />
  <path
     style="fill:#3d6f49;fill-opacity:1;stroke:none;stroke-width:1.5875"
     d="m 143.66345,151.54524 -35.46803,18.98794 -12.180946,22.92882 7.881786,16.12184 20.06273,3.58263 44.78287,-37.97588 z"
     id="path10" />
  <path
     style="fill:#4d8b5c;fill-opacity:1;stroke:none;stroke-width:1.5875"
     d="m 256.37013,321.47598 -26.853,61.05258 5.06661,34.95956 63.33255,1.01332 30.90627,-36.98621 -20.26642,-80.05233 z"
     id="path12" />
  <g
     id="g6"
     inkscape:label="Face"
     transform="translate(77.026537,-51.94813)"
     style="display:inline">
    <path
       style="fill:#4d8b5c;fill-opacity:1;stroke:none;stroke-width:1.5875"
       d="m 134.97097,130.36011 -11.3353,12.72798 c 0,0 -2.09472,15.77387 -1.42251,23.63917 0.53256,6.23127 4.28861,18.26523 4.28861,18.26523 0,0 8.89574,5.03027 13.08873,5.89481 4.193,0.86453 17.6555,0.7877 21.05684,0.60485 20.98847,-1.1283 57.21661,-19.22764 57.21661,-19.22764 l 8.61322,-39.01284 c 0,0 -1.9882,-19.81898 -4.55994,-34.452902 0.44297,-11.778018 -4.72195,-28.349032 -4.75926,-27.714835 l -14.23305,-15.130885 -36.908,-0.803455 -31.64828,15.435137 -6.51329,13.188085 4.85365,17.497785 z"
       id="path1"
       sodipodi:nodetypes="ccacsscccccccccc"
       inkscape:label="MainFace" />
    <path
       style="fill:#505451;fill-opacity:1;stroke:none;stroke-width:1.5875"
       d="m 115.77189,99.558758 8.10656,-6.333254 23.55971,6.839916 -1.26665,5.0666 -22.79972,0.25333 z"
       id="path2"
       inkscape:label="LeftEyebrow" />
    <path
       style="fill:#505451;fill-opacity:1;stroke:none;stroke-width:1.5875"
       d="m 184.69812,96.841165 -9.14958,-4.70229 -21.86102,11.132855 2.19348,4.73957 22.44345,-4.02283 z"
       id="path3"
       inkscape:label="RightEyebrow" />
    <path
       style="fill:#3d6f49;fill-opacity:1;stroke:none;stroke-width:1.5875"
       d="m 235.85039,72.325764 -2.27997,3.293292 6.96658,4.939938 21.53306,-1.519981 4.81328,-4.433278 -4.30662,-5.066603 z"
       id="path16"
       transform="translate(-77.026537,51.94813)"
       inkscape:label="RightEyeShadow"
       sodipodi:nodetypes="ccccccc" />
    <path
       style="fill:#6f7171;fill-opacity:1;stroke:none;stroke-width:1.5875"
       d="m 156.05139,116.02522 20.51974,-8.61323 7.85324,6.33326 2.02663,11.65318 -16.97312,3.54663 c 0,0 -10.38653,-0.50666 -10.38653,-2.78664 0,-2.27997 -3.03996,-10.1332 -3.03996,-10.1332 z"
       id="path4"
       inkscape:label="RightEye" />
    <path
       style="display:inline;fill:#3d6f49;fill-opacity:1;stroke:none;stroke-width:1.5875"
       d="m 152.9656,123.67224 1.39331,3.67329 -8.32823,4.90827 -12.44214,-0.35564 1.38355,-1.54477 -0.26304,-3.31196 z"
       id="path17"
       inkscape:label="LeftEyeShadow"
       sodipodi:nodetypes="ccccccc" />
    <path
       style="fill:#6f7171;fill-opacity:1;stroke:none;stroke-width:1.5875"
       d="m 132.70862,108.85956 c 1.26038,0.12577 16.69726,6.50795 16.69726,6.50795 l 3.25403,10.76282 -8.51927,3.73249 -9.37914,-2.15849 -2.83716,-10.91147 z"
       id="path5"
       sodipodi:nodetypes="ccccccc"
       inkscape:label="LeftEye" />
    <path
       style="fill:#6f7171;fill-opacity:1;stroke:none;stroke-width:1.5875"
       d="m 122.10514,162.54297 14.94648,-4.21161 h 21.27974 l 6.58658,7.85323 -28.62631,12.41318 -13.1415,-6.33326 -1.04499,-4.71827 z"
       id="path6"
       sodipodi:nodetypes="cccccccc"
       inkscape:label="Mouth" />
  </g>
  <path
     style="fill:#4d8b5c;fill-opacity:1;stroke:none;stroke-width:1.5875"
     d="m 103.89626,209.76296 c 0,-0.71653 14.15138,3.98567 21.31665,2.23915 1.74653,-6.29199 3.71698,-13.65877 4.92612,-19.46375 -1.61219,-6.34238 -4.74699,-18.42256 -4.74699,-18.42256 l -50.156817,-66.63691 -29.0193,-0.35826 -2.507841,30.81061 z"
     id="path11"
     sodipodi:nodetypes="cccccccc" />
  <g
     id="g19"
     inkscape:label="LeftLeg">
    <path
       style="fill:#4d8b5c;fill-opacity:1;stroke:none;stroke-width:1.5875"
       d="m 172.77117,318.94268 -26.853,61.05258 5.06661,34.95956 63.33255,1.01332 30.90627,-36.98621 -20.26642,-80.05233 z"
       id="path13" />
    <path
       style="fill:#3d6f49;fill-opacity:1;stroke:none;stroke-width:1.5875"
       d="M 214.31733,415.96814 245.2236,378.98193 224.95718,298.9296 Z"
       id="path19"
       sodipodi:nodetypes="cccc" />
  </g>
</svg>
