<?xml version="1.0" encoding="UTF-8" standalone="no"?>
<!DOCTYPE svg PUBLIC "-//W3C//DTD SVG 1.1//EN" "http://www.w3.org/Graphics/SVG/1.1/DTD/svg11.dtd">
<!-- Created with Vectornator (http://vectornator.io/) -->
<svg height="1080.0px" stroke-miterlimit="10" style="fill-rule:nonzero;clip-rule:evenodd;stroke-linecap:round;stroke-linejoin:round;" version="1.1" viewBox="0 0 1080 1080" width="1080.0px" xml:space="preserve" xmlns="http://www.w3.org/2000/svg" xmlns:vectornator="http://vectornator.io" xmlns:xlink="http://www.w3.org/1999/xlink">
<defs/>
<g id="Layer-1" vectornator:layerName="Layer 1" visibility="hidden">
<g opacity="1" vectornator:layerName="Group 1">
<path d="M507.092 951.143L305.975 751.662" fill="none" opacity="1" stroke="#058785" stroke-linecap="butt" stroke-linejoin="round" stroke-width="10" vectornator:layerName="Line 1"/>
<g opacity="1" vectornator:layerName="Group 1">
<g opacity="1" vectornator:layerName="Group 1">
<path d="M505.061 218.595L304.46 419.195" fill="none" opacity="1" stroke="#058785" stroke-linecap="butt" stroke-linejoin="round" stroke-width="10" vectornator:layerName="Line 1"/>
</g>
</g>
<path d="M305.931 415.622L307.431 755.183" fill="none" opacity="1" stroke="#058785" stroke-linecap="butt" stroke-linejoin="round" stroke-width="10" vectornator:layerName="Line 1"/>
</g>
<g opacity="1" vectornator:layerName="Group 2">
<path d="M498.1 218.722L699.411 418.007" fill="none" opacity="1" stroke="#058785" stroke-linecap="butt" stroke-linejoin="round" stroke-width="10" vectornator:layerName="Line 1"/>
<g opacity="1" vectornator:layerName="Group 1">
<g opacity="1" vectornator:layerName="Group 1">
<path d="M500.846 951.268L701.25 750.472" fill="none" opacity="1" stroke="#058785" stroke-linecap="butt" stroke-linejoin="round" stroke-width="10" vectornator:layerName="Line 1"/>
</g>
</g>
<path d="M699.783 754.047L697.952 414.487" fill="none" opacity="1" stroke="#058785" stroke-linecap="butt" stroke-linejoin="round" stroke-width="10" vectornator:layerName="Line 1"/>
</g>
</g>
<clipPath id="ArtboardFrame">
<rect height="1080" width="1080" x="0" y="0"/>
</clipPath>
<g clip-path="url(#ArtboardFrame)" id="Layer-2" vectornator:layerName="Layer 2" visibility="hidden">
<path d="M220.05 783.375L21.3425 588.614L21.3425 199.091L220.05 4.32944L418.758 199.091L418.758 588.614L220.05 783.375Z" fill="#5e5e5e" fill-rule="nonzero" opacity="1" stroke="#b1935d" stroke-linecap="butt" stroke-linejoin="round" stroke-width="10" vectornator:layerName="Polygon 1"/>
</g>
<g id="Layer-3" vectornator:layerName="Layer 3" visibility="hidden">
<g opacity="1" vectornator:layerName="Group 1">
<g opacity="1" vectornator:layerName="Group 1">
<path d="M202.583 46.4205C195.341 45.1374 188.431 49.9674 187.148 57.2087C185.865 64.45 190.695 71.3603 197.936 72.6435C205.177 73.9266 212.088 69.0965 213.371 61.8553C214.654 54.614 209.824 47.7036 202.583 46.4205ZM202.583 46.4205C209.824 47.7036 214.654 54.614 213.371 61.8553C212.088 69.0965 205.177 73.9266 197.936 72.6435C190.695 71.3603 185.865 64.45 187.148 57.2087C188.431 49.9674 195.341 45.1374 202.583 46.4205Z" fill="#5e5e5e" fill-rule="nonzero" opacity="1" stroke="#a5a4a2" stroke-linecap="butt" stroke-linejoin="round" stroke-width="10" vectornator:layerName="Oval 1"/>
<path d="M202.583 87.0641C195.341 85.781 188.431 90.611 187.148 97.8523C185.865 105.094 190.695 112.004 197.936 113.287C205.177 114.57 212.088 109.74 213.371 102.499C214.654 95.2576 209.824 88.3472 202.583 87.0641ZM202.583 87.0641C209.824 88.3472 214.654 95.2576 213.371 102.499C212.088 109.74 205.177 114.57 197.936 113.287C190.695 112.004 185.865 105.094 187.148 97.8523C188.431 90.611 195.341 85.781 202.583 87.0641Z" fill="#5e5e5e" fill-rule="nonzero" opacity="1" stroke="#a5a4a2" stroke-linecap="butt" stroke-linejoin="round" stroke-width="10" vectornator:layerName="Oval 2"/>
<path d="M162.314 86.6888C155.073 85.4057 148.163 90.2357 146.88 97.477C145.597 104.718 150.427 111.629 157.668 112.912C164.909 114.195 171.82 109.365 173.103 102.124C174.386 94.8823 169.556 87.9719 162.314 86.6888ZM162.314 86.6888C169.556 87.9719 174.386 94.8823 173.103 102.124C171.82 109.365 164.909 114.195 157.668 112.912C150.427 111.629 145.597 104.718 146.88 97.477C148.163 90.2357 155.073 85.4057 162.314 86.6888Z" fill="#5e5e5e" fill-rule="nonzero" opacity="1" stroke="#a5a4a2" stroke-linecap="butt" stroke-linejoin="round" stroke-width="10" vectornator:layerName="Oval 3"/>
</g>
<g opacity="1" vectornator:layerName="Group 2">
<path d="M202.583 125.512C195.341 124.229 188.431 129.059 187.148 136.301C185.865 143.542 190.695 150.452 197.936 151.735C205.177 153.018 212.088 148.188 213.371 140.947C214.654 133.706 209.824 126.795 202.583 125.512ZM202.583 125.512C209.824 126.795 214.654 133.706 213.371 140.947C212.088 148.188 205.177 153.018 197.936 151.735C190.695 150.452 185.865 143.542 187.148 136.301C188.431 129.059 195.341 124.229 202.583 125.512Z" fill="#5e5e5e" fill-rule="nonzero" opacity="1" stroke="#a5a4a2" stroke-linecap="butt" stroke-linejoin="round" stroke-width="10" vectornator:layerName="Oval 1"/>
<path d="M202.583 166.156C195.341 164.873 188.431 169.703 187.148 176.944C185.865 184.185 190.695 191.096 197.936 192.379C205.177 193.662 212.088 188.832 213.371 181.591C214.654 174.349 209.824 167.439 202.583 166.156ZM202.583 166.156C209.824 167.439 214.654 174.349 213.371 181.591C212.088 188.832 205.177 193.662 197.936 192.379C190.695 191.096 185.865 184.185 187.148 176.944C188.431 169.703 195.341 164.873 202.583 166.156Z" fill="#5e5e5e" fill-rule="nonzero" opacity="1" stroke="#a5a4a2" stroke-linecap="butt" stroke-linejoin="round" stroke-width="10" vectornator:layerName="Oval 2"/>
<path d="M162.314 165.781C155.073 164.498 148.163 169.328 146.88 176.569C145.597 183.81 150.427 190.721 157.668 192.004C164.909 193.287 171.82 188.457 173.103 181.215C174.386 173.974 169.556 167.064 162.314 165.781ZM162.314 165.781C169.556 167.064 174.386 173.974 173.103 181.215C171.82 188.457 164.909 193.287 157.668 192.004C150.427 190.721 145.597 183.81 146.88 176.569C148.163 169.328 155.073 164.498 162.314 165.781Z" fill="#5e5e5e" fill-rule="nonzero" opacity="1" stroke="#a5a4a2" stroke-linecap="butt" stroke-linejoin="round" stroke-width="10" vectornator:layerName="Oval 3"/>
</g>
<path d="M117.607 193.215C124.851 194.483 131.751 189.639 133.019 182.395C134.287 175.151 129.443 168.251 122.199 166.983C114.955 165.715 108.055 170.559 106.787 177.803C105.519 185.047 110.363 191.947 117.607 193.215ZM117.607 193.215C110.363 191.947 105.519 185.047 106.787 177.803C108.055 170.559 114.955 165.715 122.199 166.983C129.443 168.251 134.287 175.151 133.019 182.395C131.751 189.639 124.851 194.483 117.607 193.215Z" fill="#5e5e5e" fill-rule="nonzero" opacity="1" stroke="#a5a4a2" stroke-linecap="butt" stroke-linejoin="round" stroke-width="10" vectornator:layerName="Oval 1"/>
<path d="M117.522 152.572C124.766 153.84 131.667 148.995 132.935 141.751C134.203 134.507 129.358 127.607 122.114 126.339C114.871 125.071 107.97 129.915 106.702 137.159C105.434 144.403 110.279 151.304 117.522 152.572ZM117.522 152.572C110.279 151.304 105.434 144.403 106.702 137.159C107.97 129.915 114.871 125.071 122.114 126.339C129.358 127.607 134.203 134.507 132.935 141.751C131.667 148.995 124.766 153.84 117.522 152.572Z" fill="#5e5e5e" fill-rule="nonzero" opacity="1" stroke="#a5a4a2" stroke-linecap="butt" stroke-linejoin="round" stroke-width="10" vectornator:layerName="Oval 2"/>
<path d="M157.791 152.863C165.035 154.131 171.936 149.287 173.204 142.043C174.472 134.799 169.627 127.899 162.383 126.631C155.14 125.363 148.239 130.207 146.971 137.451C145.703 144.695 150.547 151.595 157.791 152.863ZM157.791 152.863C150.547 151.595 145.703 144.695 146.971 137.451C148.239 130.207 155.14 125.363 162.383 126.631C169.627 127.899 174.472 134.799 173.204 142.043C171.936 149.287 165.035 154.131 157.791 152.863Z" fill="#5e5e5e" fill-rule="nonzero" opacity="1" stroke="#a5a4a2" stroke-linecap="butt" stroke-linejoin="round" stroke-width="10" vectornator:layerName="Oval 3"/>
<path d="M77.7081 192.905C84.9521 194.173 91.8524 189.328 93.1204 182.085C94.3885 174.841 89.5441 167.94 82.3002 166.672C75.0562 165.404 68.1559 170.249 66.8879 177.492C65.6198 184.736 70.4642 191.637 77.7081 192.905ZM77.7081 192.905C70.4642 191.637 65.6198 184.736 66.8879 177.492C68.1559 170.249 75.0562 165.404 82.3002 166.672C89.5441 167.94 94.3885 174.841 93.1204 182.085C91.8524 189.328 84.9521 194.173 77.7081 192.905Z" fill="#5e5e5e" fill-rule="nonzero" opacity="1" stroke="#a5a4a2" stroke-linecap="butt" stroke-linejoin="round" stroke-width="10" vectornator:layerName="Oval 4"/>
</g>
<g opacity="1" vectornator:layerName="Group 2">
<g opacity="1" vectornator:layerName="Group 1">
<path d="M373.668 181.34C374.953 174.099 370.126 167.187 362.885 165.902C355.644 164.616 348.732 169.444 347.446 176.685C346.161 183.926 350.988 190.838 358.229 192.123C365.47 193.409 372.382 188.581 373.668 181.34ZM373.668 181.34C372.382 188.581 365.47 193.409 358.229 192.123C350.988 190.838 346.161 183.926 347.446 176.685C348.732 169.444 355.644 164.616 362.885 165.902C370.126 167.187 374.953 174.099 373.668 181.34Z" fill="#5e5e5e" fill-rule="nonzero" opacity="1" stroke="#e94420" stroke-linecap="butt" stroke-linejoin="round" stroke-width="10" vectornator:layerName="Oval 1"/>
<path d="M333.024 181.326C334.31 174.086 329.482 167.174 322.241 165.888C315 164.602 308.088 169.43 306.803 176.671C305.517 183.912 310.345 190.824 317.586 192.109C324.826 193.395 331.738 188.567 333.024 181.326ZM333.024 181.326C331.738 188.567 324.826 193.395 317.586 192.109C310.345 190.824 305.517 183.912 306.803 176.671C308.088 169.43 315 164.602 322.241 165.888C329.482 167.174 334.31 174.086 333.024 181.326Z" fill="#5e5e5e" fill-rule="nonzero" opacity="1" stroke="#e94420" stroke-linecap="butt" stroke-linejoin="round" stroke-width="10" vectornator:layerName="Oval 2"/>
<path d="M333.413 141.058C334.699 133.817 329.871 126.905 322.63 125.62C315.389 124.334 308.477 129.162 307.192 136.403C305.906 143.644 310.734 150.556 317.975 151.841C325.215 153.127 332.127 148.299 333.413 141.058ZM333.413 141.058C332.127 148.299 325.215 153.127 317.975 151.841C310.734 150.556 305.906 143.644 307.192 136.403C308.477 129.162 315.389 124.334 322.63 125.62C329.871 126.905 334.699 133.817 333.413 141.058Z" fill="#5e5e5e" fill-rule="nonzero" opacity="1" stroke="#e94420" stroke-linecap="butt" stroke-linejoin="round" stroke-width="10" vectornator:layerName="Oval 3"/>
</g>
<g opacity="1" vectornator:layerName="Group 2">
<path d="M294.576 181.313C295.861 174.073 291.034 167.161 283.793 165.875C276.552 164.589 269.64 169.417 268.354 176.658C267.069 183.899 271.896 190.811 279.137 192.096C286.378 193.382 293.29 188.554 294.576 181.313ZM294.576 181.313C293.29 188.554 286.378 193.382 279.137 192.096C271.896 190.811 267.069 183.899 268.354 176.658C269.64 169.417 276.552 164.589 283.793 165.875C291.034 167.161 295.861 174.073 294.576 181.313Z" fill="#5e5e5e" fill-rule="nonzero" opacity="1" stroke="#e94420" stroke-linecap="butt" stroke-linejoin="round" stroke-width="10" vectornator:layerName="Oval 1"/>
<path d="M253.932 181.3C255.218 174.059 250.39 167.147 243.149 165.861C235.908 164.576 228.996 169.403 227.711 176.644C226.425 183.885 231.253 190.797 238.494 192.083C245.735 193.368 252.647 188.54 253.932 181.3ZM253.932 181.3C252.647 188.54 245.735 193.368 238.494 192.083C231.253 190.797 226.425 183.885 227.711 176.644C228.996 169.403 235.908 164.576 243.149 165.861C250.39 167.147 255.218 174.059 253.932 181.3Z" fill="#5e5e5e" fill-rule="nonzero" opacity="1" stroke="#e94420" stroke-linecap="butt" stroke-linejoin="round" stroke-width="10" vectornator:layerName="Oval 2"/>
<path d="M254.321 141.031C255.607 133.791 250.779 126.879 243.538 125.593C236.297 124.307 229.385 129.135 228.1 136.376C226.814 143.617 231.642 150.529 238.883 151.814C246.124 153.1 253.036 148.272 254.321 141.031ZM254.321 141.031C253.036 148.272 246.124 153.1 238.883 151.814C231.642 150.529 226.814 143.617 228.1 136.376C229.385 129.135 236.297 124.307 243.538 125.593C250.779 126.879 255.607 133.791 254.321 141.031Z" fill="#5e5e5e" fill-rule="nonzero" opacity="1" stroke="#e94420" stroke-linecap="butt" stroke-linejoin="round" stroke-width="10" vectornator:layerName="Oval 3"/>
</g>
<path d="M226.902 96.3147C225.631 103.558 230.473 110.46 237.717 111.731C244.96 113.001 251.862 108.159 253.133 100.916C254.403 93.6721 249.561 86.7701 242.318 85.4996C235.074 84.2291 228.172 89.0712 226.902 96.3147ZM226.902 96.3147C228.172 89.0712 235.074 84.2291 242.318 85.4996C249.561 86.7701 254.403 93.6721 253.133 100.916C251.862 108.159 244.96 113.001 237.717 111.731C230.473 110.46 225.631 103.558 226.902 96.3147Z" fill="#5e5e5e" fill-rule="nonzero" opacity="1" stroke="#e94420" stroke-linecap="butt" stroke-linejoin="round" stroke-width="10" vectornator:layerName="Oval 1"/>
<path d="M267.545 96.2439C266.275 103.487 271.117 110.389 278.36 111.66C285.604 112.93 292.506 108.088 293.776 100.845C295.047 93.6013 290.205 86.6994 282.961 85.4289C275.718 84.1583 268.816 89.0004 267.545 96.2439ZM267.545 96.2439C268.816 89.0004 275.718 84.1583 282.961 85.4289C290.205 86.6994 295.047 93.6013 293.776 100.845C292.506 108.088 285.604 112.93 278.36 111.66C271.117 110.389 266.275 103.487 267.545 96.2439Z" fill="#5e5e5e" fill-rule="nonzero" opacity="1" stroke="#e94420" stroke-linecap="butt" stroke-linejoin="round" stroke-width="10" vectornator:layerName="Oval 2"/>
<path d="M267.24 136.513C265.97 143.756 270.812 150.658 278.055 151.929C285.299 153.199 292.201 148.357 293.471 141.114C294.742 133.87 289.9 126.968 282.656 125.698C275.413 124.427 268.511 129.269 267.24 136.513ZM267.24 136.513C268.511 129.269 275.413 124.427 282.656 125.698C289.9 126.968 294.742 133.87 293.471 141.114C292.201 148.357 285.299 153.199 278.055 151.929C270.812 150.658 265.97 143.756 267.24 136.513Z" fill="#5e5e5e" fill-rule="nonzero" opacity="1" stroke="#e94420" stroke-linecap="butt" stroke-linejoin="round" stroke-width="10" vectornator:layerName="Oval 3"/>
<path d="M227.226 56.416C225.955 63.6595 230.797 70.5614 238.041 71.8319C245.284 73.1024 252.186 68.2604 253.457 61.0169C254.727 53.7734 249.885 46.8714 242.642 45.6009C235.398 44.3304 228.496 49.1725 227.226 56.416ZM227.226 56.416C228.496 49.1725 235.398 44.3304 242.642 45.6009C249.885 46.8714 254.727 53.7734 253.457 61.0169C252.186 68.2604 245.284 73.1024 238.041 71.8319C230.797 70.5614 225.955 63.6595 227.226 56.416Z" fill="#5e5e5e" fill-rule="nonzero" opacity="1" stroke="#e94420" stroke-linecap="butt" stroke-linejoin="round" stroke-width="10" vectornator:layerName="Oval 4"/>
</g>
</g>
<g id="Layer-4" vectornator:layerName="Layer 4" visibility="hidden">
<path d="M51.4123 219.777L390.233 219.777L390.233 399.114L51.4123 399.114L51.4123 219.777Z" fill="#ffffff" fill-rule="nonzero" opacity="1" stroke="#b1935d" stroke-linecap="butt" stroke-linejoin="round" stroke-width="10" vectornator:layerName="Rectangle 1"/>
</g>
<g id="Layer-5" vectornator:layerName="Layer 5" visibility="hidden">
<g opacity="1" vectornator:layerName="Group 1">
<path d="M94.6532 531.642C94.6532 519.771 104.402 510.148 116.428 510.148C128.454 510.148 138.203 519.771 138.203 531.642C138.203 543.513 128.454 553.137 116.428 553.137C104.402 553.137 94.6532 543.513 94.6532 531.642Z" fill="#829735" fill-rule="nonzero" opacity="1" stroke="#6a884e" stroke-linecap="butt" stroke-linejoin="round" stroke-width="6.02171" vectornator:layerName="Oval 1"/>
<path d="M116.219 562.636C199.487 562.636 116.545 638.514 116.545 638.514C116.545 638.514 32.9506 562.636 116.219 562.636Z" fill="#829735" fill-rule="nonzero" opacity="1" stroke="#6a884e" stroke-linecap="butt" stroke-linejoin="round" stroke-width="6.02218" vectornator:layerName="Curve 2"/>
</g>
<g opacity="1" vectornator:layerName="Group 1">
<path d="M558.691 240.25C558.691 228.379 568.44 218.756 580.466 218.756C592.492 218.756 602.241 228.379 602.241 240.25C602.241 252.121 592.492 261.744 580.466 261.744C568.44 261.744 558.691 252.121 558.691 240.25Z" fill="#829735" fill-rule="nonzero" opacity="1" stroke="#6a884e" stroke-linecap="butt" stroke-linejoin="round" stroke-width="6.0008" vectornator:layerName="Oval 1"/>
<path d="M580.257 271.244C663.525 271.244 580.583 347.122 580.583 347.122C580.583 347.122 496.988 271.244 580.257 271.244Z" fill="#829735" fill-rule="nonzero" opacity="1" stroke="#6a884e" stroke-linecap="butt" stroke-linejoin="round" stroke-width="6.0008" vectornator:layerName="Curve 2"/>
</g>
</g>
<g clip-path="url(#ArtboardFrame)" id="Layer-8" vectornator:layerName="Layer 8" visibility="hidden">
<path d="M746.711 283.466C772.025 286.127 986.765 282.447 986.765 282.447L1066.82 362.465C1066.82 362.465 1066.9 499.11 1066.99 662.99C1067.08 826.871 1066.95 982.374 1066.95 982.374L1006.95 1062.51L746.657 1062.84L667.305 982.695C667.305 982.695 667.065 866.387 668.217 692.226C669.37 518.064 667.61 363.728 667.61 363.728C667.61 363.728 738.725 282.626 746.711 283.466Z" fill="#c9b09a" fill-rule="nonzero" opacity="0" stroke="#b1935d" stroke-linecap="round" stroke-linejoin="round" stroke-width="10" vectornator:layerName="Curve 5"/>
<g opacity="0" vectornator:layerName="Group 3">
<path d="M691.145 403.231L1029.97 403.231L1029.97 613.648L691.145 613.648L691.145 403.231Z" fill="#ffffff" fill-rule="nonzero" opacity="1" stroke="#6a884e" stroke-linecap="butt" stroke-linejoin="round" stroke-width="10" vectornator:layerName="Rectangle 1"/>
<path d="M691.145 634.458L1029.97 634.458L1029.97 869.738L691.145 869.738L691.145 634.458Z" fill="#8b8b8b" fill-rule="nonzero" opacity="1" stroke="none" vectornator:layerName="Rectangle 2"/>
</g>
<g opacity="0" vectornator:layerName="Group 2">
<path d="M734.14 925.411C734.14 913.54 743.889 903.917 755.915 903.917C767.942 903.917 777.691 913.54 777.691 925.411C777.691 937.282 767.942 946.906 755.915 946.906C743.889 946.906 734.14 937.282 734.14 925.411Z" fill="#829735" fill-rule="nonzero" opacity="1" stroke="#6a884e" stroke-linecap="butt" stroke-linejoin="round" stroke-width="6.0008" vectornator:layerName="Oval 1"/>
<path d="M755.706 956.405C838.975 956.405 756.032 1032.28 756.032 1032.28C756.032 1032.28 672.438 956.405 755.706 956.405Z" fill="#829735" fill-rule="nonzero" opacity="1" stroke="#6a884e" stroke-linecap="butt" stroke-linejoin="round" stroke-width="6.0008" vectornator:layerName="Curve 2"/>
</g>
<g opacity="0" vectornator:layerName="Group 2">
<path d="M914.179 1025.72C921.622 1028.4 938.047 1031.19 960.755 1031.22C984.961 1031.26 989.549 1032.07 999.798 1027.57C1010.5 1022.88 1024.08 997.324 1005.51 977.926C986.939 958.528 959.333 977.423 959.333 977.423C959.333 977.423 962.496 948.465 964.38 915.531C932.856 913.958 947.104 914.169 915.58 912.595C913.057 948.078 906.431 993.119 914.179 1025.72Z" fill="#7cc9bf" fill-rule="nonzero" opacity="1" stroke="#058785" stroke-linecap="round" stroke-linejoin="round" stroke-width="6.61665" vectornator:layerName="Curve 3"/>
<path d="M976.832 915.675C974.053 905.001 956.72 909.435 943.059 909.719C929.397 910.004 917.92 905.505 906.986 909.321C901.026 911.402 897.872 920.845 904.74 928.786C911.609 936.727 931.573 930 939.583 930.312C952.195 930.803 954.832 933.1 964.588 931.609C978.35 929.504 977.41 917.895 976.832 915.675Z" fill="#04a595" fill-rule="nonzero" opacity="1" stroke="#058785" stroke-linecap="round" stroke-linejoin="round" stroke-width="6.61665" vectornator:layerName="Curve 1"/>
</g>
<g opacity="0" vectornator:layerName="Group 2">
<path d="M1036.75 501.33L1006.47 471.355L976.494 501.639L1006.78 531.613L1036.75 501.33Z" fill="#5a94bc" fill-rule="nonzero" opacity="0" stroke="#abcadf" stroke-linecap="butt" stroke-linejoin="round" stroke-width="4.82958" vectornator:layerName="Polygon 1"/>
<g opacity="1" vectornator:layerName="Group 1">
<g opacity="0" vectornator:layerName="Group 2">
<path d="M1025.89 304.784L995.48 274.934L965.629 305.34L996.036 335.191L1025.89 304.784Z" fill="#5a94bc" fill-rule="nonzero" opacity="0" stroke="#abcadf" stroke-linecap="butt" stroke-linejoin="round" stroke-width="4.82958" vectornator:layerName="Polygon 6"/>
<path d="M1061.99 340.262L1031.71 310.287L1001.73 340.571L1032.02 370.546L1061.99 340.262Z" fill="#5a94bc" fill-rule="nonzero" opacity="1" stroke="#abcadf" stroke-linecap="butt" stroke-linejoin="round" stroke-width="4.82958" vectornator:layerName="Polygon 6"/>
<path d="M1097.62 304.128L1067.33 274.153L1037.36 304.437L1067.64 334.412L1097.62 304.128Z" fill="#5a94bc" fill-rule="nonzero" opacity="1" stroke="#abcadf" stroke-linecap="butt" stroke-linejoin="round" stroke-width="4.82958" vectornator:layerName="Polygon 7"/>
<path d="M1061.36 268.505L1030.95 238.654L1001.1 269.061L1031.51 298.911L1061.36 268.505Z" fill="#5a94bc" fill-rule="nonzero" opacity="0" stroke="#abcadf" stroke-linecap="butt" stroke-linejoin="round" stroke-width="4.82958" vectornator:layerName="Polygon 7"/>
</g>
</g>
<path d="M1097.66 305.768L1032.1 240.876L967.211 306.438L1032.77 371.33L1097.66 305.768Z" fill="#5a94bc" fill-rule="nonzero" opacity="1" stroke="#abcadf" stroke-linecap="butt" stroke-linejoin="round" stroke-width="10.4556" vectornator:layerName="Polygon 4"/>
</g>
<text fill="#000000" font-family="Helvetica" font-size="43.4974" opacity="0" stroke="none" text-anchor="start" transform="matrix(1 0 0 1 738.128 293.003)" vectornator:layerName="Text 1" vectornator:width="256.291" x="0" y="0">
<tspan textLength="256.291" x="0" y="40.0184"><![CDATA[Goblin Hoard]]></tspan>
</text>
</g>
<g id="Layer-10" vectornator:layerName="Layer 10">
<g opacity="1" vectornator:layerName="Group 2">
<path d="M144.932 365.21C144.932 353.339 154.681 343.715 166.707 343.715C178.733 343.715 188.482 353.339 188.482 365.21C188.482 377.081 178.733 386.704 166.707 386.704C154.681 386.704 144.932 377.081 144.932 365.21Z" fill="#829735" fill-rule="nonzero" opacity="1" stroke="#6a884e" stroke-linecap="butt" stroke-linejoin="round" stroke-width="6.0008" vectornator:layerName="Oval 1"/>
<path d="M166.498 396.203C249.766 396.203 166.824 472.082 166.824 472.082C166.824 472.082 83.2292 396.203 166.498 396.203Z" fill="#829735" fill-rule="nonzero" opacity="1" stroke="#6a884e" stroke-linecap="butt" stroke-linejoin="round" stroke-width="6.0008" vectornator:layerName="Curve 2"/>
</g>
<g opacity="1" vectornator:layerName="Group 3">
<path d="M322.251 471.865C329.694 474.541 346.119 477.331 368.827 477.368C393.033 477.407 397.621 478.217 407.87 473.718C418.568 469.022 432.155 443.468 413.583 424.07C395.011 404.672 367.405 423.567 367.405 423.567C367.405 423.567 370.568 394.609 372.452 361.675C340.928 360.102 355.176 360.313 323.652 358.739C321.129 394.222 314.503 439.263 322.251 471.865Z" fill="#7cc9bf" fill-rule="nonzero" opacity="1" stroke="#058785" stroke-linecap="round" stroke-linejoin="round" stroke-width="6.61665" vectornator:layerName="Curve 3"/>
<path d="M384.904 361.819C382.125 351.145 364.792 355.578 351.131 355.863C337.469 356.148 325.992 351.649 315.058 355.465C309.098 357.546 305.944 366.989 312.812 374.93C319.681 382.871 339.645 376.144 347.655 376.456C360.267 376.947 362.904 379.244 372.66 377.752C386.422 375.648 385.482 364.039 384.904 361.819Z" fill="#04a595" fill-rule="nonzero" opacity="1" stroke="#058785" stroke-linecap="round" stroke-linejoin="round" stroke-width="6.61665" vectornator:layerName="Curve 1"/>
</g>
<path d="M355.037 127.455C355.037 127.455 363.71 91.0351 391.463 90.9177C419.215 90.8003 432.422 112.211 427.835 127.593C417.651 161.748 375.866 189.499 355.044 218.424C333.255 189.464 293.981 161.814 282.629 127.396C277.71 112.483 291.08 90.9444 318.72 91.1375C346.359 91.3306 355.037 127.455 355.037 127.455Z" fill="#952f2f" fill-rule="nonzero" opacity="1" stroke="#cc4029" stroke-linecap="butt" stroke-linejoin="round" stroke-width="4.54507" vectornator:layerName="Curve 4"/>
<g opacity="1" vectornator:layerName="Group 4">
<path d="M198.827 107.5C198.827 107.5 198.934 133.502 198.892 142.052C198.85 150.603 198.904 168.105 198.928 176.577C198.946 183.186 199.102 205.734 199.056 211.051C196.324 217.146 191.119 228.888 190.337 228.499C188.278 227.477 183.954 216.436 181.749 210.987C181.839 205.196 181.732 187.283 181.78 176.552C181.827 165.82 181.633 152.803 181.577 142.301C181.522 131.798 181.723 107.71 181.723 107.71L198.827 107.5Z" fill="#8b8b8b" fill-rule="nonzero" opacity="1" stroke="#adadad" stroke-linecap="butt" stroke-linejoin="round" stroke-width="3.48834" vectornator:layerName="Curve 1"/>
<path d="M199.199 99.7675C199.199 99.7675 198.003 89.7753 197.822 86.3424C197.641 82.9095 198.054 80.4865 198.464 77.9822C199.13 73.9153 202.4 59.4431 198.035 60.5037C197.107 60.7291 194.276 61.0099 190.454 61.0874C187.419 61.149 183.357 60.4103 181.605 60.2468C177.68 59.8806 180.723 72.7843 181.269 77.9999C181.52 80.3896 182.139 84.0511 181.838 86.5131C181.537 88.9751 180.745 99.9871 180.745 99.9871L199.199 99.7675Z" fill="#6f3a1a" fill-rule="nonzero" opacity="1" stroke="#9d521b" stroke-linecap="butt" stroke-linejoin="round" stroke-width="3.48834" vectornator:layerName="Curve 3"/>
<path d="M233.012 103.523C233.046 112.468 223.217 109.237 215.486 105.622C214.382 105.106 198.837 109.644 190.493 109.5C182.149 109.357 166.017 106.64 163.647 107.239C155.908 109.196 146.672 112.483 146.59 103.787C146.508 95.0904 153.748 96.7315 163.315 99.7685C166.642 100.825 184.223 97.5023 191.107 97.3704C197.991 97.2384 210.682 100.363 215.587 98.5366C225.413 94.8785 232.978 94.5789 233.012 103.523Z" fill="#ef9f46" fill-rule="nonzero" opacity="1" stroke="#fddf19" stroke-linecap="butt" stroke-linejoin="round" stroke-width="3.48834" vectornator:layerName="Curve 2"/>
</g>
<path d="M666.035 56.8471C691.348 59.5083 906.089 55.8284 906.089 55.8284L986.141 135.846C986.141 135.846 986.227 272.491 986.316 436.372C986.404 600.252 986.277 755.756 986.277 755.756L926.271 835.89L665.981 836.218L586.628 756.076C586.628 756.076 586.389 639.768 587.541 465.607C588.693 291.445 586.934 137.11 586.934 137.11C586.934 137.11 658.049 56.0076 666.035 56.8471Z" fill="#c9b09a" fill-rule="nonzero" opacity="1" stroke="#b1935d" stroke-linecap="round" stroke-linejoin="round" stroke-width="10" vectornator:layerName="Curve 5"/>
</g>
<g id="Layer-9" vectornator:layerName="Layer 9" visibility="hidden">
<path d="M390.663 507.304C386.626 497.617 370.996 452.02 373.371 440.145C375.91 427.45 411.222 469.018 413.354 471.309C413.381 471.338 430.994 486.806 430.994 487.772C430.994 488.08 429.94 483.778 430.406 484.244C432.987 486.825 427.46 488.36 429.818 488.36C431.311 488.36 431.172 485.68 431.582 484.244C434.761 473.116 437.804 461.878 440.99 450.729C449.975 419.28 453.469 385.555 464.509 354.886C464.782 354.13 473.895 329.603 475.093 329.603C480.049 329.603 504.917 363.029 509.197 367.822C513.929 373.123 523.942 385.688 529.776 389.578C532.462 391.368 533.841 387.192 535.656 388.402C539.062 390.672 533.274 433.373 531.54 438.381C527.042 451.375 509.785 478.365 509.785 478.365L511.239 501.166L559.174 476.707L506.257 545.395L409.964 557.191C409.964 557.191 392.357 511.37 390.663 507.304Z" fill="none" opacity="0" stroke="#b1935d" stroke-linecap="round" stroke-linejoin="round" stroke-width="10" vectornator:layerName="Curve 1"/>
<path d="M746.711 283.466C772.025 286.127 986.765 282.447 986.765 282.447L1066.82 362.465C1066.82 362.465 1066.9 499.11 1066.99 662.99C1067.08 826.871 1066.95 982.374 1066.95 982.374L1006.95 1062.51L746.657 1062.84L667.305 982.695C667.305 982.695 667.065 866.387 668.217 692.226C669.37 518.064 667.61 363.728 667.61 363.728C667.61 363.728 738.725 282.626 746.711 283.466Z" fill="#c9b09a" fill-rule="nonzero" opacity="0" stroke="#b1935d" stroke-linecap="round" stroke-linejoin="round" stroke-width="10" vectornator:layerName="Curve 2"/>
<g opacity="0" vectornator:layerName="Group 2">
<path d="M734.14 925.411C734.14 913.54 743.889 903.917 755.915 903.917C767.942 903.917 777.691 913.54 777.691 925.411C777.691 937.282 767.942 946.906 755.915 946.906C743.889 946.906 734.14 937.282 734.14 925.411Z" fill="#829735" fill-rule="nonzero" opacity="1" stroke="#6a884e" stroke-linecap="butt" stroke-linejoin="round" stroke-width="6.0008" vectornator:layerName="Oval 1"/>
<path d="M755.706 956.405C838.975 956.405 756.032 1032.28 756.032 1032.28C756.032 1032.28 672.438 956.405 755.706 956.405Z" fill="#829735" fill-rule="nonzero" opacity="1" stroke="#6a884e" stroke-linecap="butt" stroke-linejoin="round" stroke-width="6.0008" vectornator:layerName="Curve 2"/>
</g>
</g>
<g id="La.yer-6" vectornator:layerName="La.yer 6" visibility="hidden">
<g opacity="1" vectornator:layerName="Group 1">
<path d="M450.114 346.557C456.86 348.983 471.748 351.512 492.331 351.545C514.272 351.581 518.43 352.315 527.72 348.237C537.417 343.981 549.732 320.818 532.899 303.236C516.065 285.653 491.042 302.779 491.042 302.779C491.042 302.779 493.909 276.532 495.616 246.68C467.043 245.254 479.957 245.445 451.384 244.019C449.098 276.181 443.091 317.007 450.114 346.557Z" fill="#7cc9bf" fill-rule="nonzero" opacity="1" stroke="#058785" stroke-linecap="round" stroke-linejoin="round" stroke-width="5.9974" vectornator:layerName="Curve 3"/>
<path d="M506.904 246.811C504.385 237.136 488.674 241.154 476.291 241.412C463.908 241.67 453.505 237.592 443.595 241.052C438.192 242.937 435.333 251.496 441.559 258.694C447.784 265.892 465.88 259.795 473.14 260.078C484.572 260.523 486.962 262.605 495.806 261.253C508.28 259.346 507.428 248.823 506.904 246.811Z" fill="#04a595" fill-rule="nonzero" opacity="1" stroke="#058785" stroke-linecap="round" stroke-linejoin="round" stroke-width="5.9974" vectornator:layerName="Curve 1"/>
</g>
</g>
<g id="Layer-7" vectornator:layerName="Layer 7" visibility="hidden">
<g opacity="1" vectornator:layerName="Group 5">
<g opacity="1" vectornator:layerName="Group 1">
<path d="M264.812 562.778C264.812 562.778 273.893 576.292 276.839 580.763C279.785 585.235 285.888 594.338 288.841 598.745C291.144 602.183 299.052 613.881 300.874 616.668C301.565 620.793 302.929 628.72 302.386 628.789C300.958 628.971 294.872 624.717 291.831 622.643C289.868 619.593 283.595 610.294 279.895 604.684C276.195 599.074 271.575 592.358 267.901 586.903C264.226 581.448 255.97 568.823 255.97 568.823L264.812 562.778Z" fill="#8b8b8b" fill-rule="nonzero" opacity="1" stroke="#adadad" stroke-linecap="butt" stroke-linejoin="round" stroke-width="2.1844" vectornator:layerName="Curve 1"/>
<path d="M262.322 558.618C262.322 558.618 258.23 553.825 256.944 552.099C255.658 550.373 255.032 548.966 254.377 547.519C253.313 545.168 249.993 536.49 248.086 538.558C247.681 538.997 246.303 540.126 244.338 541.493C242.777 542.579 240.404 543.604 239.434 544.127C237.261 545.298 243.326 550.968 245.421 553.496C246.381 554.655 247.975 556.348 248.673 557.736C249.37 559.124 252.78 565.138 252.78 565.138L262.322 558.618Z" fill="#6f3a1a" fill-rule="nonzero" opacity="1" stroke="#9d521b" stroke-linecap="butt" stroke-linejoin="round" stroke-width="2.1844" vectornator:layerName="Curve 3"/>
<path d="M281.249 548.839C284.371 553.489 278.127 555.217 272.843 556.016C272.088 556.13 265.561 563.891 261.162 566.713C256.764 569.534 247.412 573.718 246.385 574.853C243.031 578.559 239.358 583.478 236.297 578.974C233.236 574.47 237.579 572.812 243.619 571.074C245.72 570.47 253.73 562.636 257.272 560.178C260.814 557.719 268.513 554.943 270.436 552.288C274.287 546.971 278.126 544.189 281.249 548.839Z" fill="#ef9f46" fill-rule="nonzero" opacity="1" stroke="#fddf19" stroke-linecap="butt" stroke-linejoin="round" stroke-width="2.1844" vectornator:layerName="Curve 2"/>
</g>
<g opacity="1" vectornator:layerName="Group 2">
<path d="M356.481 569.492C356.481 569.492 345.43 581.45 341.761 585.349C338.091 589.248 330.644 597.289 327.038 601.181C324.225 604.216 314.671 614.613 312.38 617.029C308.526 618.655 301.129 621.812 300.937 621.3C300.43 619.953 303.162 613.048 304.478 609.611C306.992 606.996 314.59 598.745 319.193 593.849C323.796 588.953 329.264 582.906 333.723 578.071C338.181 573.236 348.557 562.286 348.557 562.286L356.481 569.492Z" fill="#8b8b8b" fill-rule="nonzero" opacity="1" stroke="#adadad" stroke-linecap="butt" stroke-linejoin="round" stroke-width="2.1844" vectornator:layerName="Curve 1"/>
<path d="M359.953 566.108C359.953 566.108 363.671 561.02 365.054 559.37C366.436 557.72 367.66 556.786 368.917 555.814C370.958 554.236 378.634 549.001 376.182 547.624C375.661 547.331 374.244 546.251 372.46 544.655C371.043 543.387 369.498 541.315 368.765 540.492C367.123 538.649 363.008 545.859 361.032 548.482C360.126 549.683 358.847 551.625 357.658 552.625C356.469 553.624 351.405 558.331 351.405 558.331L359.953 566.108Z" fill="#6f3a1a" fill-rule="nonzero" opacity="1" stroke="#9d521b" stroke-linecap="butt" stroke-linejoin="round" stroke-width="2.1844" vectornator:layerName="Curve 3"/>
<path d="M373.84 582.264C370.037 586.376 366.914 580.7 364.915 575.744C364.63 575.036 355.571 570.478 351.81 566.85C348.048 563.223 341.818 555.091 340.476 554.354C336.095 551.947 330.461 549.509 334.136 545.49C337.811 541.471 340.427 545.314 343.513 550.789C344.587 552.694 354.059 558.677 357.269 561.555C360.479 564.434 364.96 571.283 367.986 572.54C374.05 575.059 377.643 578.152 373.84 582.264Z" fill="#ef9f46" fill-rule="nonzero" opacity="1" stroke="#fddf19" stroke-linecap="butt" stroke-linejoin="round" stroke-width="2.1844" vectornator:layerName="Curve 2"/>
</g>
<g opacity="1" vectornator:layerName="Group 3">
<path d="M310.323 530.568C310.323 530.568 310.55 546.849 310.576 552.203C310.602 557.558 310.744 568.517 310.81 573.822C310.862 577.959 311.098 592.077 311.102 595.407C309.429 599.24 306.242 606.625 305.749 606.386C304.454 605.758 301.678 598.872 300.264 595.473C300.285 591.846 300.109 580.631 300.073 573.911C300.036 567.191 299.835 559.041 299.736 552.465C299.637 545.889 299.615 530.804 299.615 530.804L310.323 530.568Z" fill="#8b8b8b" fill-rule="nonzero" opacity="1" stroke="#adadad" stroke-linecap="butt" stroke-linejoin="round" stroke-width="2.1844" vectornator:layerName="Curve 1"/>
<path d="M310.509 525.724C310.509 525.724 309.699 519.474 309.564 517.326C309.43 515.177 309.674 513.658 309.915 512.087C310.308 509.536 312.266 500.454 309.539 501.145C308.96 501.292 307.189 501.485 304.796 501.557C302.896 501.614 300.348 501.177 299.25 501.085C296.79 500.88 298.774 508.941 299.148 512.204C299.32 513.698 299.73 515.987 299.557 517.531C299.384 519.074 298.955 525.974 298.955 525.974L310.509 525.724Z" fill="#6f3a1a" fill-rule="nonzero" opacity="1" stroke="#9d521b" stroke-linecap="butt" stroke-linejoin="round" stroke-width="2.1844" vectornator:layerName="Curve 3"/>
<path d="M331.705 527.868C331.781 533.469 325.607 531.506 320.743 529.29C320.049 528.974 310.343 531.91 305.117 531.872C299.891 531.833 289.773 530.231 288.293 530.62C283.459 531.893 277.696 534.008 277.591 528.563C277.487 523.118 282.03 524.102 288.039 525.945C290.129 526.586 301.117 524.397 305.427 524.272C309.737 524.148 317.703 526.026 320.763 524.853C326.893 522.502 331.629 522.268 331.705 527.868Z" fill="#ef9f46" fill-rule="nonzero" opacity="1" stroke="#fddf19" stroke-linecap="butt" stroke-linejoin="round" stroke-width="2.1844" vectornator:layerName="Curve 2"/>
</g>
<path d="M305.884 589.496C305.884 589.496 311.032 567.88 327.503 567.811C343.975 567.741 351.814 580.449 349.091 589.579C343.047 609.85 318.247 626.321 305.888 643.489C292.956 626.3 269.646 609.889 262.908 589.462C259.989 580.611 267.924 567.827 284.329 567.941C300.734 568.056 305.884 589.496 305.884 589.496Z" fill="#952f2f" fill-rule="nonzero" opacity="1" stroke="#cc4029" stroke-linecap="butt" stroke-linejoin="round" stroke-width="2.6976" vectornator:layerName="Curve 3"/>
</g>
<g opacity="1" vectornator:layerName="Group 4">
<path d="M716.424 241.659C716.424 241.659 716.531 267.66 716.489 276.211C716.447 284.761 716.501 302.263 716.525 310.736C716.543 317.344 716.699 339.892 716.653 345.209C713.921 351.304 708.717 363.046 707.934 362.657C705.875 361.635 701.551 350.594 699.346 345.145C699.436 339.354 699.329 321.442 699.377 310.71C699.424 299.979 699.23 286.962 699.175 276.459C699.119 265.956 699.32 241.868 699.32 241.868L716.424 241.659Z" fill="#8b8b8b" fill-rule="nonzero" opacity="1" stroke="#adadad" stroke-linecap="butt" stroke-linejoin="round" stroke-width="3.48834" vectornator:layerName="Curve 1"/>
<path d="M716.796 233.926C716.796 233.926 715.6 223.934 715.419 220.501C715.238 217.068 715.651 214.645 716.061 212.141C716.728 208.074 719.997 193.601 715.632 194.662C714.704 194.887 711.873 195.168 708.052 195.246C705.016 195.307 700.954 194.569 699.202 194.405C695.278 194.039 698.32 206.943 698.866 212.158C699.117 214.548 699.736 218.209 699.435 220.671C699.134 223.133 698.342 234.145 698.342 234.145L716.796 233.926Z" fill="#6f3a1a" fill-rule="nonzero" opacity="1" stroke="#9d521b" stroke-linecap="butt" stroke-linejoin="round" stroke-width="3.48834" vectornator:layerName="Curve 3"/>
<path d="M750.609 237.682C750.643 246.626 740.814 243.395 733.083 239.781C731.979 239.265 716.434 243.802 708.09 243.659C699.746 243.515 683.614 240.798 681.244 241.398C673.505 243.355 664.269 246.642 664.187 237.945C664.105 229.249 671.345 230.89 680.912 233.927C684.239 234.983 701.82 231.661 708.704 231.529C715.588 231.397 728.279 234.521 733.184 232.695C743.01 229.037 750.576 228.737 750.609 237.682Z" fill="#ef9f46" fill-rule="nonzero" opacity="1" stroke="#fddf19" stroke-linecap="butt" stroke-linejoin="round" stroke-width="3.48834" vectornator:layerName="Curve 2"/>
</g>
<path d="M872.634 261.613C872.634 261.613 881.307 225.193 909.06 225.076C936.812 224.959 950.019 246.369 945.432 261.752C935.248 295.906 893.463 323.657 872.641 352.583C850.853 323.622 811.578 295.973 800.226 261.555C795.308 246.642 808.677 225.103 836.317 225.296C863.956 225.489 872.634 261.613 872.634 261.613Z" fill="#952f2f" fill-rule="nonzero" opacity="1" stroke="#cc4029" stroke-linecap="butt" stroke-linejoin="round" stroke-width="4.54507" vectornator:layerName="Curve 4"/>
</g>
<g id="Layer-6" vectornator:layerName="Layer 6">
<g opacity="1" vectornator:layerName="Group 1">
<path d="M188.13 681.221L241.08 734.171L188.13 787.121L135.179 734.171L188.13 681.221Z" fill="#5a94bc" fill-rule="nonzero" opacity="1" stroke="#abcadf" stroke-linecap="butt" stroke-linejoin="round" stroke-width="8.48753" vectornator:layerName="Polygon 1"/>
<path d="M424.477 681.221L477.427 734.171L424.477 787.121L371.527 734.171L424.477 681.221Z" fill="#5a94bc" fill-rule="nonzero" opacity="1" stroke="#abcadf" stroke-linecap="butt" stroke-linejoin="round" stroke-width="8.48753" vectornator:layerName="Polygon 2"/>
<path d="M305.406 681.221L358.356 734.171L305.406 787.121L252.456 734.171L305.406 681.221Z" fill="#5a94bc" fill-rule="nonzero" opacity="1" stroke="#abcadf" stroke-linecap="butt" stroke-linejoin="round" stroke-width="8.48753" vectornator:layerName="Polygon 3"/>
</g>
</g>
</svg>
