<?xml version="1.0" encoding="UTF-8" standalone="no"?>
<!-- Created with Inkscape (http://www.inkscape.org/) -->

<svg
   width="612"
   height="612"
   viewBox="0 0 161.925 161.925"
   version="1.1"
   id="svg1"
   inkscape:version="1.4.2 (f4327f4, 2025-05-13)"
   sodipodi:docname="DragonPic.svg"
   xmlns:inkscape="http://www.inkscape.org/namespaces/inkscape"
   xmlns:sodipodi="http://sodipodi.sourceforge.net/DTD/sodipodi-0.dtd"
   xmlns:xlink="http://www.w3.org/1999/xlink"
   xmlns="http://www.w3.org/2000/svg"
   xmlns:svg="http://www.w3.org/2000/svg">
  <sodipodi:namedview
     id="namedview1"
     pagecolor="#505050"
     bordercolor="#eeeeee"
     borderopacity="1"
     inkscape:showpageshadow="0"
     inkscape:pageopacity="0"
     inkscape:pagecheckerboard="true"
     inkscape:deskcolor="#505050"
     inkscape:document-units="mm"
     inkscape:zoom="0.5"
     inkscape:cx="280"
     inkscape:cy="335"
     inkscape:window-width="1920"
     inkscape:window-height="1009"
     inkscape:window-x="-8"
     inkscape:window-y="430"
     inkscape:window-maximized="1"
     inkscape:current-layer="layer1" />
  <defs
     id="defs1">
    <color-profile
       name="Agfa-:-Swop-Standard"
       xlink:href="file:///C:/WINDOWS/system32/spool/drivers/color/RSWOP.icm"
       id="color-profile1" />
  </defs>
  <g
     inkscape:label="Layer 1"
     inkscape:groupmode="layer"
     id="layer1"
     transform="matrix(1.0738462,0,0,1.0738462,6.8504352,24.376113)">
    <rect
       style="fill:#ffffff;fill-opacity:1;stroke-width:1.59635"
       id="rect2"
       width="300.59393"
       height="220.76408"
       x="-99.514191"
       y="-56.208652" />
    <path
       style="fill:#3d404f;fill-opacity:1;stroke-width:0.89408"
       d="m 35.818412,33.168899 -3.91049,0.862113 -5.014706,3.069606 -1.650262,4.469935 -1.428332,-3.896014 0.526678,-1.524353 1.000569,-3.601905 4.066338,-2.583185 3.995889,-0.8891 1.288386,-0.341489 z"
       id="path33"
       sodipodi:nodetypes="ccccccccccc" />
    <path
       style="fill:#918c8c;fill-opacity:1;stroke-width:0.889948"
       d="M 15.035256,15.873291 C 14.997936,15.58431 13.982929,10.377997 14.180214,10.009755 14.3775,9.6415151 16.421676,4.2360635 16.421676,4.2360635 l 5.364565,-3.58171563 -3.197197,3.30186203 -1.590458,5.8855014 2.847087,8.3974207 z"
       id="path20"
       sodipodi:nodetypes="cscccccc" />
    <path
       style="fill:#3d404f;fill-opacity:1;stroke-width:1.40466"
       d="m 45.312559,50.937944 -6.277553,0.413477 -8.515001,3.580678 -2.661638,6.080607 -1.296318,-6.389076 0.219425,-1.771647 2.406486,-5.357437 6.926933,-3.049651 6.416576,-0.435179 1.899542,-0.618192 z"
       id="path18"
       sodipodi:nodetypes="ccccccccccc" />
    <g
       id="g17"
       inkscape:label="RightFrontLeg"
       style="display:inline"
       transform="matrix(-0.50007734,0.20251735,0.20251735,0.50007734,25.022944,-15.573582)">
      <path
         style="display:inline;fill:#474f3d;fill-opacity:1;stroke-width:1.71971"
         d="m 29.247254,154.52832 2.588033,28.43624 -3.921313,8.50031 20.864987,15.62781 9.501336,4.92573 -3.184269,16.75132 12.169148,-13.2337 -3.900244,-13.48927 -14.435748,-7.68399 -3.741611,-12.00476 9.469944,-18.40029 -7.146263,-12.3506 z"
         id="path16"
         sodipodi:nodetypes="ccccccccccccc" />
    </g>
    <path
       style="fill:#474f3d;fill-opacity:1;stroke-width:0.875012"
       d="m 81.321941,57.952747 3.426069,5.223029 2.927477,5.945505 -1.355371,9.685056 -3.83924,7.907102 5.607123,2.537502 4.733366,-1.159937 0.328342,1.914049 -7.444794,14.617687 -0.902506,4.55553 -2.365855,-6.23079 2.768839,-8.424212 -9.921596,-1.471338 -6.653298,-8.612425 -0.200402,-9.751596 0.887979,-7.291998 z"
       id="path12"
       sodipodi:nodetypes="ccccccccccccccccc" />
    <g
       id="g9"
       inkscape:label="LeftFrontLeg"
       transform="matrix(0.90893321,0,0,0.90893321,15.759552,4.9368683)"
       style="display:none">
      <path
         style="fill:#4f3d3d;fill-opacity:1;stroke-width:1.9367"
         d="m 15.519644,148.80331 10.260179,33.4007 -2.262378,17.45619 20.000013,11.23801 46.757324,2.81501 -9.271566,-16.22702 -15.544865,0.42358 -17.709317,-5.05594 -6.952344,-12.33686 6.08733,-22.49638 z"
         id="path8"
         sodipodi:nodetypes="ccccccccccc" />
      <path
         style="fill:#4f3d3d;fill-opacity:1;stroke-width:1.9367"
         d="m 80.867282,197.37187 5.878639,31.41369 6.053247,4.07452 7.094333,-3.18159 -17.516323,-30.87078 z"
         id="path9" />
    </g>
    <path
       style="display:none;fill:#4f3d3d;fill-opacity:1;stroke-width:1.71764"
       d="m 58.551553,136.49838 11.589891,29.69644 8.262645,5.08571 -12.533719,23.52965 -6.522758,8.60708 9.034129,14.81987 -15.626711,-7.77778 -1.589834,-14.56566 9.835805,-13.26961 -1.176905,-13.07288 -15.175612,-13.84734 z"
       id="path10"
       sodipodi:nodetypes="cccccccccccc" />
    <path
       style="fill:#474f3d;fill-opacity:1;stroke-width:1.19213"
       d="m 48.202942,52.722159 2.184343,-13.424132 -2.195937,-16.911286 -6.745984,-9.522644 2.974455,-7.3675823 26.950212,-23.3680687 11.735009,-0.393271 -5.747547,6.222749 -0.365254,8.0418444 4.636635,4.98080817 6.640661,1.64467993 -5.583672,6.6933223 -3.352557,8.5545452 4.932788,3.558558 6.558724,1.409397 -8.161268,8.382453 -9.850396,5.804835 -8.169502,13.661741 z"
       id="path4" />
    <path
       style="display:inline;fill:#3d404f;fill-opacity:1;stroke-width:1.40466"
       d="m 99.904625,78.892532 4.927265,-3.934888 2.97658,-6.615722 -0.43618,-6.523952 6.86074,2.976573 0.11991,2.588347 -0.33744,5.208893 -2.78544,6.27612 -3.08465,2.539371 -1.38668,0.469212 z"
       id="path7"
       sodipodi:nodetypes="ccccccccccc" />
    <g
       id="g23"
       inkscape:label="Body"
       style="display:inline"
       transform="matrix(0.5191501,0,0,0.5191501,4.3241471,-6.4802124)">
      <path
         style="fill:#707767;fill-opacity:1;stroke-width:1.71424"
         d="m 68.618853,112.83305 36.158617,-4.65742 37.45626,9.5671 28.50155,2.65279 15.0779,34.95959 -7.52353,15.40531 -17.55488,15.76357 -29.0193,-21.85404 -14.45501,-7.98248 -14.1075,9.62804 -29.382512,-0.63504 -26.743705,-15.71409 -1.240386,-23.21782 z"
         id="path2"
         sodipodi:nodetypes="cccccccccccccc" />
      <path
         style="fill:#707767;fill-opacity:1;stroke-width:1.71424"
         d="m 170.48937,120.28501 29.27883,10.7616 40.07422,41.89027 7.9706,30.49249 -3.36992,21.08341 -21.91371,18.88696 12.83345,-16.82876 3.87423,-19.4923 -15.55573,-27.74081 -30.93521,-13.66519 -25.90903,8.9592 z"
         id="path14"
         sodipodi:nodetypes="cccccccccccc" />
    </g>
    <path
       style="fill:#717e60;fill-opacity:1;stroke-width:1.36421"
       d="m 50.818517,56.650927 7.412822,-13.685205 3.991522,-19.102261 -3.70641,-12.829877 5.987269,-6.8426014 37.91941,-15.1107446 12.82988,3.9915186 -8.55325,4.5617319 -3.42131,8.5532535 3.13621,7.12771 6.55749,4.276626 -8.55326,5.131949 -6.842598,7.983037 3.991518,5.702166 6.55749,3.991513 -11.974542,5.987284 -12.829881,2.565978 -13.970314,11.689439 z"
       id="path3"
       sodipodi:nodetypes="ccccccccccccccccccc" />
    <path
       style="fill:#707767;fill-opacity:1;stroke-width:0.889948"
       d="M 29.15,58.509058 26.551434,40.505696 20.894611,29.443464 18.810425,26.818865 22.072494,16.608697 30.322649,23.158105 46.664585,52.510736 Z"
       id="path13"
       sodipodi:nodetypes="cccccccc" />
    <g
       id="g24"
       inkscape:label="UndersScales"
       transform="matrix(0.5191501,0,0,0.5191501,4.3241471,-6.4802124)">
      <path
         style="fill:#b4b4b4;fill-opacity:1;stroke-width:1.71424"
         d="m 152.01459,179.68381 -17.93833,-13.20535 -16.8158,-9.79099 -14.1075,9.62804 -29.382512,-0.63504 -26.743705,-15.71409 -1.18146,-22.17942 37.37761,26.59203 19.277547,0.48398 14.95732,-4.71139 20.25716,15.01591 z"
         id="path21"
         sodipodi:nodetypes="cccccccccccc" />
      <path
         style="fill:#b4b4b4;fill-opacity:1;stroke-width:1.71424"
         d="m 45.928947,129.23313 -0.126129,-2.1381 1.097569,-3.21298 -4.646894,-33.563699 -10.896316,-21.30835 -4.014611,-5.05557 1.419176,-5.448342 9.811275,14.486521 7.682474,13.620451 3.940699,13.713999 4.493859,36.63474 z"
         id="path23"
         sodipodi:nodetypes="cccccccccccc" />
      <path
         style="display:inline;fill:#b4b4b4;fill-opacity:1;stroke-width:1.71424"
         d="m 172.34145,165.79334 21.60592,-4.84881 33.45963,16.75485 13.57225,28.31438 -2.68576,18.95069 -15.7641,18.43529 12.83345,-16.82876 3.87423,-19.4923 -15.55573,-27.74081 -30.93521,-13.66519 -25.90903,8.9592 z"
         id="path22"
         sodipodi:nodetypes="cccccccccccc" />
    </g>
    <path
       style="display:inline;fill:#7d7979;fill-opacity:0.65;stroke-width:0.889948"
       d="m 93.245797,81.308397 11.216713,-2.517261 17.02717,7.530735 7.42621,14.190209 -1.52406,7.671 -0.87905,2.96106 2.01131,-10.11943 -8.07575,-14.401649 -16.06002,-7.094285 -13.450676,4.651169 z"
       id="path28"
       sodipodi:nodetypes="ccccccccccc" />
    <path
       style="fill:#545454;fill-opacity:0.65;stroke-width:0.889948"
       d="m 20.603229,29.346337 -2.084186,-2.6246 6.437734,-3.445367 0.121009,9.497317 z"
       id="path29"
       sodipodi:nodetypes="ccccc" />
    <path
       style="fill:#7f7676;fill-opacity:0.65;stroke-width:0.889948"
       d="m 83.242537,86.802656 -9.312686,-6.855559 -8.729924,-5.082994 -7.32391,4.998398 -15.253934,-0.329681 -13.883997,-8.157971 -0.235619,-4.079923 3.595821,4.05421 14.881599,6.093876 11.106806,0.525977 6.940944,-4.162898 10.379149,6.490601 z"
       id="path25"
       sodipodi:nodetypes="ccccccccccccc" />
    <g
       id="g8"
       inkscape:label="RightFrontLeg"
       style="display:inline"
       transform="matrix(-0.5191501,0,0,0.5191501,61.712936,-12.154903)">
      <path
         style="display:inline;fill:#848c7a;fill-opacity:1;stroke-width:1.9367"
         d="m 24.450134,154.89692 2.914593,32.02434 -4.416107,9.57288 23.497742,17.59973 10.700219,5.54727 -3.586062,18.86501 13.704657,-14.90354 -4.392379,-15.19135 -16.257257,-8.65356 -4.21373,-13.51953 10.664867,-20.72205 -8.047982,-13.909 z"
         id="path5"
         sodipodi:nodetypes="ccccccccccccc" />
      <path
         style="display:none;fill:#8c7a7a;fill-opacity:1;stroke-width:1.9367"
         d="m 25.020801,162.86424 2.343926,24.05702 -4.416107,9.57288 23.497742,17.59973 10.700219,5.54727 -3.586062,18.86501 13.704657,-14.90354 -4.392379,-15.19135 -16.257257,-8.65356 -4.21373,-13.51953 10.664867,-20.72205 -8.047982,-13.909 -12.622889,1.08363 z"
         id="path15"
         sodipodi:nodetypes="cccccccccccccc" />
    </g>
    <path
       style="display:inline;fill:#545454;fill-opacity:0.65;stroke-width:1.00544"
       d="m 48.14548,86.25399 1.653677,3.601058 -12.198854,9.136904 3.964246,-5.725646 4.797368,-4.340173 z"
       id="path30"
       sodipodi:nodetypes="cccccc" />
    <path
       d="m 17.556519,28.437906 -10.029474,4.580039 -4.1489286,-1.381001 2.7139937,-2.992997 5.8826959,-0.932752 5.052159,-2.968853 -3.64594,-1.004097 -5.1278071,2.440919 -3.6201846,0.428956 -1.8094195,1.785816 -1.8113042,-2.613932 1.431974,-2.539898 2.0870764,0.778483 6.88997,-5.347104 3.495876,-6.227054 8.851478,1.897244 2.714513,5.832163 -2.416288,5.471601"
       style="fill:#72825c;fill-opacity:1;stroke-width:0.889948"
       id="path1"
       sodipodi:nodetypes="cccccccccccccccccc" />
    <path
       style="fill:#848c7a;fill-opacity:1;stroke-width:0.951186"
       d="m 93.775308,66.069452 4.497575,6.252082 0.806307,7.538205 -5.599963,8.529444 -7.199963,5.381676 4.266645,5.686296 5.066636,1.624655 -0.533329,2.03082 -13.64437,9.74794 -2.888873,3.85856 0.488888,-7.36172 6.399963,-6.49862 -8.88884,-7.15865 -2.577767,-12.134157 4.133312,-9.494082 4.088868,-6.498627 z"
       id="path11"
       sodipodi:nodetypes="ccccccccccccccccc" />
    <path
       style="fill:#535353;fill-opacity:0.64878;stroke-width:1.11394"
       d="m 28.062415,53.496659 4.984743,-0.23299 6.631053,-2.691954 2.813673,-5.648865 2.387454,4.48451 -1.008105,3.957657 -2.486184,3.330774 -5.96285,2.295594 -5.143393,0.341424 -1.496617,-0.472385 z"
       id="path24"
       sodipodi:nodetypes="ccccccccccc" />
    <path
       style="display:none;fill:#535353;fill-opacity:0.64878;stroke-width:2.29205"
       d="m 44.402332,122.20374 11.562381,-0.42526 15.381088,-4.91346 6.526467,-10.31053 3.727742,4.60715 2.839072,-0.37409 -3.367338,11.17592 -5.766842,6.07945 -13.831153,4.19001 -11.930377,0.62318 -3.471486,-0.86221 z"
       id="path36"
       sodipodi:nodetypes="cccccccccccc" />
    <path
       style="display:inline;fill:#5e221d;fill-opacity:1;stroke-width:1.40466"
       d="m 26.525717,54.547507 6.293626,-0.324324 8.272489,-3.34357 3.338804,-7.486484 2.721398,6.265022 -0.872088,4.300297 -3.10161,4.245345 -7.43888,2.925914 -6.416577,0.435177 -1.503578,-0.602094 z"
       id="path17"
       sodipodi:nodetypes="ccccccccccc" />
    <path
       style="fill:#b4b4b4;fill-opacity:1;stroke-width:0.889948"
       d="m 18.843834,16.11165 c 0.04479,-0.287918 0.522642,-5.570682 0.814832,-5.86926 0.292191,-0.2985748 3.763313,-4.9190591 3.763313,-4.9190591 l 6.15084,-1.9427816 -3.991457,2.2787341 -3.169353,5.2080596 0.391159,8.858305 z"
       id="path19"
       sodipodi:nodetypes="cscccccc" />
    <g
       id="g27"
       inkscape:label="UndersScales">
      <path
         style="display:none;fill:#b4b4b4;fill-opacity:1;stroke-width:1.71424"
         d="m 45.928947,129.23313 -0.126129,-2.1381 1.097569,-3.21298 -4.646894,-33.563699 -10.896316,-21.30835 -4.014611,-5.05557 1.419176,-5.448342 9.811275,14.486521 7.682474,13.620451 3.940699,13.713999 4.493859,36.63474 z"
         id="path26"
         sodipodi:nodetypes="cccccccccccc" />
      <path
         style="display:none;fill:#b4b4b4;fill-opacity:1;stroke-width:1.71424"
         d="m 172.34145,165.79334 21.60592,-4.84881 33.45963,16.75485 13.57225,28.31438 -2.68576,18.95069 -15.7641,18.43529 12.83345,-16.82876 3.87423,-19.4923 -15.55573,-27.74081 -30.93521,-13.66519 -25.90903,8.9592 z"
         id="path27"
         sodipodi:nodetypes="cccccccccccc" />
    </g>
    <path
       d="m 32.062453,101.93191 1.861704,9.79377 -3.406095,-6.70698 0.322946,-1.99735"
       style="display:inline;fill:#6b6b6b;fill-opacity:0.65;stroke-width:1.00544"
       id="path1-4"
       sodipodi:nodetypes="cccc" />
    <path
       style="fill:#6a6a6a;fill-opacity:0.65;stroke-width:0.951186"
       d="m 91.850814,102.10131 3.761731,-1.0195 -0.533329,2.03082 -13.64437,9.74794 -2.408119,3.20611 1.793794,-4.85493 z"
       id="path31"
       sodipodi:nodetypes="ccccccc" />
    <path
       d="m 99.07919,79.859739 -5.599963,8.529444 -7.199963,5.381676 -0.447658,-2.084704 5.047209,-4.303152 3.413396,-4.620124 z"
       style="fill:#545454;fill-opacity:0.65;stroke-width:0.951186"
       id="path1-7"
       sodipodi:nodetypes="ccccccc" />
    <path
       style="display:inline;fill:#5d5d5d;fill-opacity:0.65;stroke-width:1.10717"
       d="m 113.5324,67.245446 -3.88205,3.098993 -2.34618,5.214604 0.2831,5.397224 -4.20366,-1.899455 -1.23787,-2.74185 0.26597,-4.10572 2.19551,-4.946924 2.68497,-2.61402 2.63452,-1.014684 z"
       id="path37"
       sodipodi:nodetypes="ccccccccccc" />
    <path
       style="display:inline;fill:#5e221d;fill-opacity:1;stroke-width:1.40466"
       d="m 114.23657,64.795504 -4.92512,3.931669 -2.97658,6.615721 0.43619,6.523952 -6.0571,-0.299601 -0.923554,-5.26532 0.337434,-5.208891 2.78543,-6.276121 3.4064,-3.316387 3.12675,-1.164096 z"
       id="path6"
       sodipodi:nodetypes="ccccccccccc" />
    <path
       style="fill:#535353;fill-opacity:0.64878;stroke-width:0.787032"
       d="m 24.378376,36.767062 3.3519,-0.443855 4.697183,-2.727528 1.49017,-3.991097 2.002471,3.654079 -0.602988,2.759784 -1.756565,2.353294 -4.212936,1.621906 -3.633964,0.241227 -0.04776,-0.955424 z"
       id="path34"
       sodipodi:nodetypes="ccccccccccc" />
    <path
       style="display:none;fill:#535353;fill-opacity:0.64878;stroke-width:1.59293"
       d="m 38.901599,86.296335 6.907487,-0.882305 9.679803,-5.421845 3.070894,-7.933596 4.126628,7.263665 -1.242618,5.485964 -3.619874,4.677932 -8.681881,3.224065 -7.488757,0.479516 -0.09843,-1.899213 z"
       id="path35"
       sodipodi:nodetypes="ccccccccccc" />
    <path
       style="display:inline;fill:#5e221d;fill-opacity:1;stroke-width:0.936734"
       d="m 23.855451,37.703495 4.130287,-0.776471 5.168381,-2.948543 1.53783,-5.245793 2.358064,3.897282 -0.19224,2.919822 -1.670568,3.082642 -4.654779,2.598071 -4.201641,0.860711 -1.047444,-0.263607 z"
       id="path32"
       sodipodi:nodetypes="ccccccccccc" />
    <path
       id="path39"
       style="display:none;fill:#3d404f;fill-opacity:1;stroke-width:1.7222"
       d="m 58.495898,67.828182 -2.123384,0.562756 4.16667,7.484298 z m -19.95227,14.322643 -1.000973,2.89749 2.751253,7.50497 1.49655,-4.0535 z" />
  </g>
</svg>
