<?xml version="1.0" encoding="UTF-8" standalone="no"?>
<!-- Created with Inkscape (http://www.inkscape.org/) -->

<svg
   width="612"
   height="612"
   viewBox="0 0 161.925 161.925"
   version="1.1"
   id="svg1"
   inkscape:version="1.4.2 (f4327f4, 2025-05-13)"
   sodipodi:docname="FireDragonPic.svg"
   xml:space="preserve"
   xmlns:inkscape="http://www.inkscape.org/namespaces/inkscape"
   xmlns:sodipodi="http://sodipodi.sourceforge.net/DTD/sodipodi-0.dtd"
   xmlns:xlink="http://www.w3.org/1999/xlink"
   xmlns="http://www.w3.org/2000/svg"
   xmlns:svg="http://www.w3.org/2000/svg"><sodipodi:namedview
     id="namedview1"
     pagecolor="#505050"
     bordercolor="#eeeeee"
     borderopacity="1"
     inkscape:showpageshadow="0"
     inkscape:pageopacity="0"
     inkscape:pagecheckerboard="true"
     inkscape:deskcolor="#505050"
     inkscape:document-units="mm"
     inkscape:zoom="0.5"
     inkscape:cx="292"
     inkscape:cy="457"
     inkscape:window-width="1920"
     inkscape:window-height="1009"
     inkscape:window-x="-8"
     inkscape:window-y="430"
     inkscape:window-maximized="1"
     inkscape:current-layer="layer1" /><defs
     id="defs1"><color-profile
       name="Agfa-:-Swop-Standard"
       xlink:href="file:///C:/WINDOWS/system32/spool/drivers/color/RSWOP.icm"
       id="color-profile1" /></defs><g
     inkscape:label="Layer 1"
     inkscape:groupmode="layer"
     id="layer1"
     transform="matrix(1.0738462,0,0,1.0738462,6.8504352,24.376113)"><rect
       style="fill:#ffffff;stroke-width:1.59635"
       id="rect2"
       width="416.39655"
       height="238.01128"
       x="-119.71805"
       y="-55.223099" /><path
       style="display:none;fill:#9c9c9c;fill-opacity:1;stroke-width:1.7222"
       d="m 60.665149,76.373408 -7.532484,1.660623 -9.659454,5.912754 -3.178777,8.610102 -2.751288,-7.504602 1.0145,-2.936248 1.927323,-6.93808 7.83268,-4.975797 7.696982,-1.712606 2.481723,-0.657785 z"
       id="path33-1"
       sodipodi:nodetypes="ccccccccccc" /><path
       style="display:none;fill:#9c9c9c;fill-opacity:1;stroke-width:2.70569"
       d="m 78.953013,110.60059 -12.09198,0.79645 -16.40181,6.89719 -5.126914,11.71262 -2.497,-12.3068 0.422663,-3.41259 4.635434,-10.31963 13.342832,-5.874313 12.359771,-0.83825 3.658944,-1.19078 z"
       id="path18-1"
       sodipodi:nodetypes="ccccccccccc" /><path
       style="display:none;fill:#9c9c9c;fill-opacity:1;stroke-width:2.70569"
       d="m 184.10962,164.44742 9.49104,-7.57948 5.73355,-12.74337 -0.84018,-12.5666 13.21535,5.73355 0.23095,4.98574 -0.64997,10.0335 -5.36538,12.08922 -5.94175,4.8914 -2.67106,0.90381 z"
       id="path7-5"
       sodipodi:nodetypes="ccccccccccc" /><path
       style="display:none;fill:#3d404f;fill-opacity:1;stroke-width:1.7222"
       d="m 60.665046,76.373118 -7.532484,1.660623 -9.659454,5.912754 -3.178777,8.610099 -2.751288,-7.504599 1.0145,-2.936248 1.927323,-6.93808 7.83268,-4.975797 7.696982,-1.712606 2.481723,-0.657785 z"
       id="path33"
       sodipodi:nodetypes="ccccccccccc" /><path
       style="display:none;fill:#918c8c;fill-opacity:1;stroke-width:1.71424"
       d="m 20.632007,43.057882 c -0.07188,-0.556644 -2.027018,-10.585174 -1.647003,-11.294491 0.380017,-0.709313 4.317562,-11.12143 4.317562,-11.12143 l 10.333357,-6.899191 -6.158521,6.36013 -3.063579,11.336801 5.484131,16.175323 z"
       id="path20"
       sodipodi:nodetypes="cscccccc" /><path
       style="display:inline;fill:#4f3d3d;fill-opacity:1;stroke-width:1.39794"
       d="m 44.115087,50.114125 -6.247523,0.4115 -8.474269,3.563548 -2.648905,6.05152 -1.290117,-6.358513 0.218376,-1.763172 2.394974,-5.331809 6.893797,-3.035062 6.385881,-0.433097 1.890455,-0.615235 z"
       id="path18"
       sodipodi:nodetypes="ccccccccccc" /><g
       id="g17"
       inkscape:label="RightFrontLeg"
       style="display:inline"
       transform="matrix(-0.49768515,0.20154858,0.20154858,0.49768515,23.92253,-16.079234)"><path
         style="display:inline;fill:#79441f;fill-opacity:1;stroke-width:1.71971"
         d="m 29.247254,154.52832 2.588033,28.43624 -3.921313,8.50031 20.864987,15.62781 9.501336,4.92573 -3.184269,16.75132 12.169148,-13.2337 -3.900244,-13.48927 -14.435748,-7.68399 -3.741611,-12.00476 9.469944,-18.40029 -7.146263,-12.3506 z"
         id="path16"
         sodipodi:nodetypes="ccccccccccccc" /></g><path
       style="display:inline;fill:#79441f;fill-opacity:1;stroke-width:0.870826"
       d="m 79.952213,57.095372 3.40968,5.198044 2.913473,5.917063 -1.348888,9.638726 -3.820874,7.869278 5.5803,2.525363 4.710724,-1.154388 0.326771,1.904893 -7.409181,14.547759 -0.898189,4.53374 -2.354538,-6.20099 2.755595,-8.383907 -9.874135,-1.464301 -6.621471,-8.571226 -0.199444,-9.704948 0.883733,-7.257115 z"
       id="path12"
       sodipodi:nodetypes="ccccccccccccccccc" /><g
       id="g9"
       inkscape:label="LeftFrontLeg"
       transform="matrix(0.90893321,0,0,0.90893321,15.759552,4.9368683)"
       style="display:none"><path
         style="fill:#4f3d3d;fill-opacity:1;stroke-width:1.9367"
         d="m 15.519644,148.80331 10.260179,33.4007 -2.262378,17.45619 20.000013,11.23801 46.757324,2.81501 -9.271566,-16.22702 -15.544865,0.42358 -17.709317,-5.05594 -6.952344,-12.33686 6.08733,-22.49638 z"
         id="path8"
         sodipodi:nodetypes="ccccccccccc" /><path
         style="fill:#4f3d3d;fill-opacity:1;stroke-width:1.9367"
         d="m 80.867282,197.37187 5.878639,31.41369 6.053247,4.07452 7.094333,-3.18159 -17.516323,-30.87078 z"
         id="path9" /></g><path
       style="display:none;fill:#4f3d3d;fill-opacity:1;stroke-width:1.71764"
       d="m 58.551553,136.49838 11.589891,29.69644 8.262645,5.08571 -12.533719,23.52965 -6.522758,8.60708 9.034129,14.81987 -15.626711,-7.77778 -1.589834,-14.56566 9.835805,-13.26961 -1.176905,-13.07288 -15.175612,-13.84734 z"
       id="path10"
       sodipodi:nodetypes="cccccccccccc" /><path
       style="display:inline;fill:#79441f;fill-opacity:1;stroke-width:1.18643"
       d="M 46.991643,51.889805 49.165537,38.52989 46.980106,21.699501 40.266391,12.22241 43.226617,4.8900718 70.047909,-18.366213 l 11.678873,-0.391389 -5.720053,6.192982 -0.363506,8.0033746 4.614454,4.95698169 6.608895,1.63681241 -5.556962,6.6613037 -3.33652,8.5136226 4.909191,3.541536 6.52735,1.402655 -8.122227,8.342354 -9.803275,5.777067 -8.130422,13.596387 z"
       id="path4" /><path
       style="display:inline;fill:#4f3d3d;fill-opacity:1;stroke-width:1.39794"
       d="m 98.446002,77.934988 4.903708,-3.916065 2.96233,-6.584075 -0.43409,-6.492743 6.82793,2.962334 0.11932,2.575966 -0.33582,5.183975 -2.77211,6.246097 -3.0699,2.527223 -1.38005,0.466969 z"
       id="path7"
       sodipodi:nodetypes="ccccccccccc" /><g
       id="g23"
       inkscape:label="Body"
       style="display:inline"
       transform="matrix(0.51666667,0,0,0.51666667,3.3227505,-7.0293633)"><path
         style="fill:#9a6a45;fill-opacity:1;stroke-width:1.71424"
         d="m 68.618853,112.83305 36.158617,-4.65742 37.45626,9.5671 28.50155,2.65279 15.0779,34.95959 -7.52353,15.40531 -17.55488,15.76357 -29.0193,-21.85404 -14.45501,-7.98248 -14.1075,9.62804 -29.382512,-0.63504 -26.743705,-15.71409 -1.240386,-23.21782 z"
         id="path2"
         sodipodi:nodetypes="cccccccccccccc" /><path
         style="fill:#9a6a45;fill-opacity:1;stroke-width:1.71424"
         d="m 170.48937,120.28501 29.27883,10.7616 40.07422,41.89027 7.9706,30.49249 -3.36992,21.08341 -9.08026,2.0582 3.87423,-19.4923 -15.55573,-27.74081 -30.93521,-13.66519 -25.90903,8.9592 z"
         id="path14"
         sodipodi:nodetypes="ccccccccccc" /></g><path
       style="display:inline;fill:#ae6331;fill-opacity:1;stroke-width:1.35768"
       d="m 49.594707,55.799779 7.377361,-13.61974 3.972428,-19.010881 -3.68868,-12.768504 5.958629,-6.8098692 37.738025,-15.0384598 12.7685,3.9724237 -8.51233,4.5399108 -3.40494,8.5123377 3.1212,7.0936138 6.52612,4.256168 -8.51234,5.107399 -6.809871,7.944849 3.972431,5.674889 6.52612,3.972419 -11.917266,5.958644 -12.768508,2.553702 -13.903484,11.63352 z"
       id="path3"
       sodipodi:nodetypes="ccccccccccccccccccc" /><path
       style="display:inline;fill:#9a6a45;fill-opacity:1;stroke-width:0.885691"
       d="M 28.029843,57.649022 25.443709,39.731781 19.813946,28.722467 17.73973,26.110423 l 3.246465,-10.161326 8.210689,6.518078 16.263761,29.212218 z"
       id="path13"
       sodipodi:nodetypes="cccccccc" /><path
       id="path39"
       style="display:inline;fill:#4f3d3d;fill-opacity:1;stroke-width:0.889803"
       d="m 33.545631,28.015198 -1.097082,0.290757 2.152779,3.866887 z m -10.308673,7.400032 -0.51717,1.497037 1.421481,3.877567 0.773218,-2.094308 z" /><g
       id="g24"
       inkscape:label="UndersScales"
       transform="matrix(0.51666667,0,0,0.51666667,3.3227505,-7.0293633)"><path
         style="fill:#b4b4b4;fill-opacity:1;stroke-width:1.71424"
         d="m 152.01459,179.68381 -17.93833,-13.20535 -16.8158,-9.79099 -14.1075,9.62804 -29.382512,-0.63504 -26.743705,-15.71409 -1.18146,-22.17942 37.37761,26.59203 19.277547,0.48398 14.95732,-4.71139 20.25716,15.01591 z"
         id="path21"
         sodipodi:nodetypes="cccccccccccc" /><path
         style="fill:#b4b4b4;fill-opacity:1;stroke-width:1.71424"
         d="m 45.928947,129.23313 -0.126129,-2.1381 1.097569,-3.21298 -4.646894,-33.563699 -10.896316,-21.30835 -4.014611,-5.05557 1.419176,-5.448342 9.811275,14.486521 7.682474,13.620451 3.940699,13.713999 4.493859,36.63474 z"
         id="path23"
         sodipodi:nodetypes="cccccccccccc" /><path
         style="display:inline;fill:#b4b4b4;fill-opacity:1;stroke-width:1.71424"
         d="m 172.34145,165.79334 21.60592,-4.84881 33.45963,16.75485 13.57225,28.31438 -2.68576,18.95069 -15.7641,18.43529 12.83345,-16.82876 3.87423,-19.4923 -15.55573,-27.74081 -30.93521,-13.66519 -25.90903,8.9592 z"
         id="path22"
         sodipodi:nodetypes="cccccccccccc" /></g><path
       style="display:inline;fill:#7d7979;fill-opacity:0.65;stroke-width:0.885691"
       d="m 91.819028,80.339296 11.163062,-2.505219 16.94572,7.49471 7.39068,14.122329 -1.51676,7.634294 -0.87485,2.9469 2.00169,-10.071022 -8.03713,-14.332751 -15.98319,-7.060349 -13.386332,4.62892 z"
       id="path28"
       sodipodi:nodetypes="ccccccccccc" /><path
       style="display:inline;fill:#545454;fill-opacity:0.65;stroke-width:0.885691"
       d="M 19.523958,28.625804 17.449742,26.01376 23.85668,22.584874 23.977111,32.03676 Z"
       id="path29"
       sodipodi:nodetypes="ccccc" /><path
       style="display:inline;fill:#7f7676;fill-opacity:0.65;stroke-width:0.885691"
       d="M 81.863621,85.807272 72.595484,78.984508 63.907321,73.92583 56.618446,78.900317 41.437481,78.572213 27.6199,70.453267 l -0.234492,-4.060406 3.578621,4.034815 14.81041,6.064727 11.053675,0.52346 6.907741,-4.142984 10.329499,6.459552 z"
       id="path25"
       sodipodi:nodetypes="ccccccccccccc" /><g
       id="g8"
       inkscape:label="RightFrontLeg"
       style="display:inline"
       transform="matrix(-0.51666667,0,0,0.51666667,60.43701,-12.676908)"><path
         style="display:inline;fill:#ae8258;fill-opacity:1;stroke-width:1.9367"
         d="m 24.450134,154.89692 2.914593,32.02434 -4.416107,9.57288 23.497742,17.59973 10.700219,5.54727 -3.586062,18.86501 13.704657,-14.90354 -4.392379,-15.19135 -16.257257,-8.65356 -4.21373,-13.51953 10.664867,-20.72205 -8.047982,-13.909 z"
         id="path5"
         sodipodi:nodetypes="ccccccccccccc" /><path
         style="display:none;fill:#8c7a7a;fill-opacity:1;stroke-width:1.9367"
         d="m 25.020801,162.86424 2.343926,24.05702 -4.416107,9.57288 23.497742,17.59973 10.700219,5.54727 -3.586062,18.86501 13.704657,-14.90354 -4.392379,-15.19135 -16.257257,-8.65356 -4.21373,-13.51953 10.664867,-20.72205 -8.047982,-13.909 -12.622889,1.08363 z"
         id="path15"
         sodipodi:nodetypes="cccccccccccccc" /></g><path
       style="display:inline;fill:#545454;fill-opacity:0.65;stroke-width:1.00063"
       d="m 46.934456,85.261231 1.645767,3.583833 -12.1405,9.093194 3.945283,-5.698255 4.77442,-4.319411 z"
       id="path30"
       sodipodi:nodetypes="cccccc" /><path
       style="display:inline;fill:#d2a366;fill-opacity:1;stroke-width:0.824781"
       d="m 12.739877,14.914338 -1.156997,-4.110052 0.871832,0.42881 0.01692,-4.5410541 0.585047,0.7756851 0.869413,-3.7645982 0.87735,0.3713206 0.640366,-1.8892867 1.040343,-1.72377461 0.768867,1.36564501 2.014312,-4.3788248 1.061119,2.42484109 0.597876,-1.11164089 0.747295,2.48657 -1.008389,1.5022176 -0.905422,0.5653826 -1.353626,0.8955988 -0.729251,1.4118108 -1.521865,2.8296309 -0.323379,1.3093852 0.870751,3.1142216 0.615085,-0.761626 0.454458,0.999857 -0.333111,1.122497 -0.236728,1.54892 0.857147,-0.568797 -1.135593,2.689104 z"
       id="path40"
       sodipodi:nodetypes="cccccccccccccccccccccccccccc" /><path
       style="display:inline;fill:#cd622f;fill-opacity:1;stroke-width:0.824781"
       d="m 12.773035,13.950019 -0.679535,-2.481118 1.289627,0.554119 0.2977,-4.0084623 1.124092,3.3130473 0.591161,-0.592619 0.701894,2.105065 0.24208,1.57795 0.162664,1.146762 -0.378842,1.439356 z"
       id="path44"
       sodipodi:nodetypes="ccccccccccc" /><path
       d="m 16.491823,27.721719 -9.9814962,4.55813 -4.1290814,-1.374394 2.7010108,-2.97868 5.8545558,-0.92829 5.02799,-2.954652 -3.628499,-0.999293 -5.1032769,2.429242 -3.602867,0.426904 -1.8007639,1.777274 -1.80263951,-2.601428 1.42512401,-2.527749 2.0770925,0.77476 6.8570108,-5.321525 3.479152,-6.197267 8.809136,1.888169 2.701527,5.804264 -2.404729,5.445427"
       style="display:inline;fill:#a76838;fill-opacity:1;stroke-width:0.885691"
       id="path1"
       sodipodi:nodetypes="cccccccccccccccccc" /><path
       style="display:inline;fill:#ae8258;fill-opacity:1;stroke-width:0.946631"
       d="m 92.346008,65.173249 4.476059,6.222175 0.802455,7.502145 -5.57318,8.488642 -7.16552,5.355932 4.246235,5.659091 5.042398,1.616886 -0.530777,2.02111 -13.5791,9.70131 -2.875054,3.8401 0.48655,-7.32651 6.369348,-6.46754 -8.84632,-7.124395 -2.565436,-12.076112 4.11354,-9.448666 4.069308,-6.46754 z"
       id="path11"
       sodipodi:nodetypes="ccccccccccccccccc" /><path
       style="display:inline;fill:#535353;fill-opacity:0.64878;stroke-width:1.10861"
       d="m 26.947462,52.6606 4.960897,-0.231875 6.599333,-2.679077 2.800214,-5.621843 2.376032,4.463058 -1.003281,3.938726 -2.474293,3.31484 -5.934325,2.284612 -5.118788,0.339791 -1.489459,-0.470125 z"
       id="path24"
       sodipodi:nodetypes="ccccccccccc" /><path
       style="display:none;fill:#535353;fill-opacity:0.64878;stroke-width:2.29205"
       d="m 44.402332,122.20374 11.562381,-0.42526 15.381088,-4.91346 6.526467,-10.31053 3.727742,4.60715 2.839072,-0.37409 -3.367338,11.17592 -5.766842,6.07945 -13.831153,4.19001 -11.930377,0.62318 -3.471486,-0.86221 z"
       id="path36"
       sodipodi:nodetypes="cccccccccccc" /><path
       style="display:inline;fill:#9c4343;fill-opacity:1;stroke-width:1.39794"
       d="m 25.418115,53.706421 6.263519,-0.322772 8.232917,-3.327576 3.322832,-7.450671 2.70838,6.235052 -0.867917,4.279726 -3.086772,4.225036 -7.403295,2.911918 -6.385882,0.433096 -1.496386,-0.599214 z"
       id="path17"
       sodipodi:nodetypes="ccccccccccc" /><path
       style="display:none;fill:#b4b4b4;fill-opacity:1;stroke-width:1.71424"
       d="m 27.968185,43.517013 c 0.08628,-0.554594 1.006728,-10.730387 1.569552,-11.305514 0.562825,-0.575123 7.248988,-9.475216 7.248988,-9.475216 l 11.847902,-3.742235 -7.688446,4.389355 -6.104887,10.031895 0.753461,17.063091 z"
       id="path19"
       sodipodi:nodetypes="cscccccc" /><g
       id="g27"
       inkscape:label="UndersScales"><path
         style="display:none;fill:#b4b4b4;fill-opacity:1;stroke-width:1.71424"
         d="m 45.928947,129.23313 -0.126129,-2.1381 1.097569,-3.21298 -4.646894,-33.563699 -10.896316,-21.30835 -4.014611,-5.05557 1.419176,-5.448342 9.811275,14.486521 7.682474,13.620451 3.940699,13.713999 4.493859,36.63474 z"
         id="path26"
         sodipodi:nodetypes="cccccccccccc" /><path
         style="display:none;fill:#b4b4b4;fill-opacity:1;stroke-width:1.71424"
         d="m 172.34145,165.79334 21.60592,-4.84881 33.45963,16.75485 13.57225,28.31438 -2.68576,18.95069 -15.7641,18.43529 12.83345,-16.82876 3.87423,-19.4923 -15.55573,-27.74081 -30.93521,-13.66519 -25.90903,8.9592 z"
         id="path27"
         sodipodi:nodetypes="cccccccccccc" /></g><path
       d="m 30.928365,100.86415 1.852798,9.74693 -3.389802,-6.67491 0.321402,-1.98779"
       style="display:inline;fill:#6b6b6b;fill-opacity:0.65;stroke-width:1.00063"
       id="path1-4"
       sodipodi:nodetypes="cccc" /><path
       style="display:inline;fill:#6a6a6a;fill-opacity:0.65;stroke-width:0.946631"
       d="m 90.430719,101.03274 3.743736,-1.01462 -0.530777,2.02111 -13.5791,9.70131 -2.3966,3.19077 1.785212,-4.83171 z"
       id="path31"
       sodipodi:nodetypes="ccccccc" /><path
       d="m 97.624522,78.897569 -5.57318,8.488642 -7.16552,5.355932 -0.445517,-2.074732 5.023064,-4.282567 3.397068,-4.598024 z"
       style="display:inline;fill:#545454;fill-opacity:0.65;stroke-width:0.946631"
       id="path1-7"
       sodipodi:nodetypes="ccccccc" /><path
       style="display:inline;fill:#5d5d5d;fill-opacity:0.65;stroke-width:1.10187"
       d="m 112.00859,66.343617 -3.86348,3.08417 -2.33495,5.189658 0.28174,5.371406 -4.18355,-1.890369 -1.23195,-2.728734 0.2647,-4.086079 2.18501,-4.92326 2.67213,-2.601515 2.62191,-1.00983 z"
       id="path37"
       sodipodi:nodetypes="ccccccccccc" /><path
       style="display:inline;fill:#9c4343;fill-opacity:1;stroke-width:1.39794"
       d="m 112.7094,63.905395 -4.90157,3.912861 -2.96233,6.584075 0.43409,6.492743 -6.028126,-0.298168 -0.919129,-5.240132 0.335818,-5.183975 2.772117,-6.246097 3.39009,-3.300523 3.1118,-1.158527 z"
       id="path6"
       sodipodi:nodetypes="ccccccccccc" /><path
       style="display:inline;fill:#535353;fill-opacity:0.64878;stroke-width:0.783267"
       d="m 23.281046,36.011031 3.335866,-0.441731 4.674713,-2.714481 1.483041,-3.972004 1.992893,3.636599 -0.600104,2.746582 -1.748163,2.342036 -4.192782,1.614148 -3.616581,0.240073 -0.04754,-0.950853 z"
       id="path34"
       sodipodi:nodetypes="ccccccccccc" /><path
       style="display:none;fill:#535353;fill-opacity:0.64878;stroke-width:1.59293"
       d="m 38.901599,86.296335 6.907487,-0.882305 9.679803,-5.421845 3.070894,-7.933596 4.126628,7.263665 -1.242618,5.485964 -3.619874,4.677932 -8.681881,3.224065 -7.488757,0.479516 -0.09843,-1.899213 z"
       id="path35"
       sodipodi:nodetypes="ccccccccccc" /><path
       style="display:inline;fill:#9c4343;fill-opacity:1;stroke-width:0.932253"
       d="m 22.760623,36.942984 4.110528,-0.772756 5.143658,-2.934437 1.530473,-5.2207 2.346785,3.878639 -0.191321,2.905855 -1.662576,3.067895 -4.632513,2.585643 -4.181541,0.856594 -1.042434,-0.262346 z"
       id="path32"
       sodipodi:nodetypes="ccccccccccc" /><path
       style="display:inline;fill:#e8a750;fill-opacity:1;stroke-width:0.824781"
       d="m 16.806086,14.868463 -0.105121,-4.268502 0.738778,0.631011 1.138898,-4.3959488 0.375149,0.8962322 1.773008,-3.4328594 0.758336,0.5766708 1.087509,-1.6723627 1.434161,-1.4131164 0.40743,1.5133224 3.034209,-3.74501441 0.42879,2.61188951 0.85411,-0.9293527 0.109444,2.5941276 -1.34843,1.206334 -1.017081,0.3240244 -1.533004,0.5332005 -1.055606,1.1877329 -2.174098,2.3656255 -0.637013,1.1888146 0.07392,3.232818 0.784263,-0.585945 0.193199,1.081166 -0.600245,1.00532 -0.612261,1.442335 0.971148,-0.339266 -1.765075,2.324943 z"
       id="path38"
       sodipodi:nodetypes="cccccccccccccccccccccccccccc" /><path
       style="display:inline;fill:#e8a750;fill-opacity:1;stroke-width:0.962493"
       d="m 125.99133,109.63341 c -0.42838,0.19282 -4.12559,-0.9249 -4.12559,-0.9249 l 1.19218,1.4468 -5.38705,0.62175 3.453,0.91853 -4.62211,3.00786 5.53255,-2.12973 -3.36124,5.86621 4.49452,-4.26411 0.25632,3.259 1.90058,-4.07535 2.26543,2.4577 0.0595,-4.56032 c 0,0 0.89773,2.2233 1.07441,1.7574 0.17665,-0.46591 1.13907,-4.222 1.13907,-4.222 z"
       id="path41" /><path
       style="display:inline;fill:#df761d;fill-opacity:1;stroke-width:0.962493"
       d="m 125.88437,108.5981 -0.80252,0.9498 -2.27095,-0.20928 1.01216,0.92921 -1.97907,1.58529 1.58556,-0.24707 -0.12694,1.64711 2.17941,-1.17641 1.24472,0.77787 0.57933,-2.3833 1.23339,0.80325 0.22073,-2.25728 -1.35366,-0.65668 z"
       id="path42"
       sodipodi:nodetypes="cccccccccccccc" /><path
       style="display:inline;fill:#df761d;fill-opacity:1;stroke-width:0.824781"
       d="m 17.426677,15.154889 -0.184684,-2.565855 1.152505,1.47438 0.98868,-4.2798392 0.497838,4.0923562 0.63875,-0.510093 0.384119,1.346027 0.734196,-0.547571 -0.803212,2.142489 -0.06317,1.156518 -0.651194,1.338362 z"
       id="path43"
       sodipodi:nodetypes="cccccccccccc" /><path
       style="display:none;fill:#ffffff;fill-opacity:1;stroke-width:2.70569"
       d="m 42.76491,117.5532 12.12294,-0.62472 15.93467,-6.44047 6.43129,-14.420656 5.24203,12.067846 -1.67984,8.28334 -5.9744,8.17749 -14.32896,5.63597 -12.35977,0.83825 -2.89623,-1.15977 z"
       id="path17-8"
       sodipodi:nodetypes="ccccccccccc" /><path
       style="display:none;fill:#ffffff;fill-opacity:1;stroke-width:2.70569"
       d="m 211.71578,137.29315 -9.48691,7.57328 -5.73355,12.74337 0.84018,12.5666 -11.66734,-0.5771 -1.77896,-10.14219 0.64997,-10.0335 5.36538,-12.08922 6.56148,-6.38811 6.02283,-2.24231 z"
       id="path6-2"
       sodipodi:nodetypes="ccccccccccc" /><path
       style="display:none;fill:#ffffff;fill-opacity:1;stroke-width:1.80436"
       d="m 37.62137,85.107837 7.95586,-1.495658 9.95547,-5.679556 2.96221,-10.104579 4.54216,7.507043 -0.3703,5.624234 -3.21789,5.937863 -8.96615,5.00447 -8.09331,1.657924 -2.01761,-0.507767 z"
       id="path32-4"
       sodipodi:nodetypes="ccccccccccc" /></g></svg>
