<?xml version="1.0" encoding="UTF-8" standalone="no"?>
<!-- Created with Inkscape (http://www.inkscape.org/) -->

<svg
   width="612"
   height="612"
   viewBox="0 0 161.925 161.925"
   version="1.1"
   id="svg1"
   inkscape:version="1.4.2 (f4327f4, 2025-05-13)"
   sodipodi:docname="LongRangedDragonPic.svg"
   xmlns:inkscape="http://www.inkscape.org/namespaces/inkscape"
   xmlns:sodipodi="http://sodipodi.sourceforge.net/DTD/sodipodi-0.dtd"
   xmlns:xlink="http://www.w3.org/1999/xlink"
   xmlns="http://www.w3.org/2000/svg"
   xmlns:svg="http://www.w3.org/2000/svg">
  <sodipodi:namedview
     id="namedview1"
     pagecolor="#505050"
     bordercolor="#eeeeee"
     borderopacity="1"
     inkscape:showpageshadow="0"
     inkscape:pageopacity="0"
     inkscape:pagecheckerboard="true"
     inkscape:deskcolor="#505050"
     inkscape:document-units="mm"
     inkscape:zoom="1"
     inkscape:cx="250"
     inkscape:cy="306.5"
     inkscape:window-width="1920"
     inkscape:window-height="1009"
     inkscape:window-x="-8"
     inkscape:window-y="430"
     inkscape:window-maximized="1"
     inkscape:current-layer="layer1" />
  <defs
     id="defs1">
    <color-profile
       name="Agfa-:-Swop-Standard"
       xlink:href="file:///C:/WINDOWS/system32/spool/drivers/color/RSWOP.icm"
       id="color-profile1" />
  </defs>
  <g
     inkscape:label="Layer 1"
     inkscape:groupmode="layer"
     id="layer1"
     transform="matrix(1.0738462,0,0,1.0738462,12.430421,24.376113)">
    <rect
       style="fill:#ffffff;fill-opacity:1;stroke-width:1.59635"
       id="rect2"
       width="195.63245"
       height="169.76166"
       x="-33.996956"
       y="-31.816193" />
    <path
       style="fill:#3d404f;fill-opacity:1;stroke-width:0.895141"
       d="m 32.132325,33.722673 -3.915128,0.863136 -5.020653,3.073247 -1.65222,4.475234 -1.430025,-3.900634 0.527302,-1.52616 1.001756,-3.606177 4.07116,-2.58625 4.000627,-0.890153 1.289915,-0.341895 z"
       id="path33"
       sodipodi:nodetypes="ccccccccccc" />
    <path
       style="fill:#918c8c;fill-opacity:1;stroke-width:0.891003"
       d="m 11.324521,16.406554 c -0.03736,-0.289325 -1.053575,-5.501811 -0.856056,-5.87049 0.19752,-0.368677 2.244121,-5.780539 2.244121,-5.780539 L 18.083511,1.1695617 14.882523,4.4753395 13.29018,10.367821 16.140643,18.7752 Z"
       id="path20"
       sodipodi:nodetypes="cscccccc" />
    <path
       style="fill:#3d404f;fill-opacity:1;stroke-width:1.40632"
       d="m 41.637731,51.512792 -6.284998,0.413967 -8.525099,3.584923 -2.664795,6.087819 -1.297855,-6.396654 0.219686,-1.773747 2.409339,-5.36379 6.935148,-3.053268 6.424186,-0.435695 1.901794,-0.618925 z"
       id="path18"
       sodipodi:nodetypes="ccccccccccc" />
    <g
       id="g17"
       inkscape:label="RightFrontLeg"
       style="display:inline"
       transform="matrix(-0.5006704,0.20275753,0.20275753,0.5006704,21.324053,-15.077614)">
      <path
         style="display:inline;fill:#493d4f;fill-opacity:1;stroke-width:1.71971"
         d="m 29.247254,154.52832 2.588033,28.43624 -3.921313,8.50031 20.864987,15.62781 9.501336,4.92573 -3.184269,16.75132 12.169148,-13.2337 -3.900244,-13.48927 -14.435748,-7.68399 -3.741611,-12.00476 9.469944,-18.40029 -7.146263,-12.3506 z"
         id="path16"
         sodipodi:nodetypes="ccccccccccccc" />
    </g>
    <path
       style="display:inline;fill:#493d4f;fill-opacity:1;stroke-width:0.87605"
       d="m 77.689818,58.535913 3.430132,5.229224 2.930948,5.952554 -1.356978,9.696543 -3.843793,7.91648 5.613772,2.540511 4.73898,-1.161313 0.328731,1.916319 -7.453623,14.635019 -0.903577,4.56092 -2.36866,-6.23817 2.772124,-8.434195 -9.933364,-1.473084 -6.661188,-8.622639 -0.20064,-9.76316 0.889034,-7.300646 z"
       id="path12"
       sodipodi:nodetypes="ccccccccccccccccc" />
    <g
       id="g9"
       inkscape:label="LeftFrontLeg"
       transform="matrix(0.90893321,0,0,0.90893321,15.759552,4.9368683)"
       style="display:none">
      <path
         style="fill:#4f3d3d;fill-opacity:1;stroke-width:1.9367"
         d="m 15.519644,148.80331 10.260179,33.4007 -2.262378,17.45619 20.000013,11.23801 46.757324,2.81501 -9.271566,-16.22702 -15.544865,0.42358 -17.709317,-5.05594 -6.952344,-12.33686 6.08733,-22.49638 z"
         id="path8"
         sodipodi:nodetypes="ccccccccccc" />
      <path
         style="fill:#4f3d3d;fill-opacity:1;stroke-width:1.9367"
         d="m 80.867282,197.37187 5.878639,31.41369 6.053247,4.07452 7.094333,-3.18159 -17.516323,-30.87078 z"
         id="path9" />
    </g>
    <path
       style="display:none;fill:#4f3d3d;fill-opacity:1;stroke-width:1.71764"
       d="m 58.551553,136.49838 11.589891,29.69644 8.262645,5.08571 -12.533719,23.52965 -6.522758,8.60708 9.034129,14.81987 -15.626711,-7.77778 -1.589834,-14.56566 9.835805,-13.26961 -1.176905,-13.07288 -15.175612,-13.84734 z"
       id="path10"
       sodipodi:nodetypes="cccccccccccc" />
    <path
       style="fill:#493d4f;fill-opacity:1;stroke-width:1.19355"
       d="m 44.531541,53.299123 2.186933,-13.440053 -2.198539,-16.931343 -6.753986,-9.533936 2.977982,-7.37632 26.982174,-23.395782 11.748926,-0.393737 -5.754364,6.230128 -0.365685,8.0513822 4.642132,4.986715 6.648537,1.6466305 -5.590295,6.7012599 -3.356532,8.5646904 4.938637,3.562778 6.566503,1.411069 -8.170946,8.392394 -9.862078,5.811719 -8.17919,13.677942 z"
       id="path4" />
    <path
       style="display:inline;fill:#3d404f;fill-opacity:1;stroke-width:1.40632"
       d="m 96.294537,79.500531 4.933123,-3.939555 2.9801,-6.623567 -0.4367,-6.531689 6.86889,2.980103 0.12004,2.591417 -0.33784,5.21507 -2.78874,6.283563 -3.08831,2.542382 -1.38833,0.46977 z"
       id="path7"
       sodipodi:nodetypes="ccccccccccc" />
    <g
       id="g23"
       inkscape:label="Body"
       style="display:inline"
       transform="matrix(0.51976578,0,0,0.51976578,0.6007098,-5.9734604)">
      <path
         style="fill:#726777;fill-opacity:1;stroke-width:1.71424"
         d="m 68.618853,112.83305 36.158617,-4.65742 37.45626,9.5671 28.50155,2.65279 15.0779,34.95959 -7.52353,15.40531 -17.55488,15.76357 -29.0193,-21.85404 -14.45501,-7.98248 -14.1075,9.62804 -29.382512,-0.63504 -26.743705,-15.71409 -1.240386,-23.21782 z"
         id="path2"
         sodipodi:nodetypes="cccccccccccccc" />
      <path
         style="fill:#726777;fill-opacity:1;stroke-width:1.71424"
         d="m 170.48937,120.28501 29.27883,10.7616 40.07422,41.89027 7.9706,30.49249 -3.36992,21.08341 -21.91371,18.88696 12.83345,-16.82876 3.87423,-19.4923 -15.55573,-27.74081 -30.93521,-13.66519 -25.90903,8.9592 z"
         id="path14"
         sodipodi:nodetypes="cccccccccccc" />
    </g>
    <path
       style="fill:#726777;fill-opacity:1;stroke-width:0.891003"
       d="M 25.456003,59.092884 22.854356,41.068171 17.190824,29.992819 15.104167,27.365108 18.370105,17.142832 26.630045,23.700008 42.99136,53.087447 Z"
       id="path13"
       sodipodi:nodetypes="cccccccc" />
    <g
       id="g24"
       inkscape:label="UndersScales"
       transform="matrix(0.51976578,0,0,0.51976578,0.6007098,-5.9734604)">
      <path
         style="fill:#b4b4b4;fill-opacity:1;stroke-width:1.71424"
         d="m 152.01459,179.68381 -17.93833,-13.20535 -16.8158,-9.79099 -14.1075,9.62804 -29.382512,-0.63504 -26.743705,-15.71409 -1.18146,-22.17942 37.37761,26.59203 19.277547,0.48398 14.95732,-4.71139 20.25716,15.01591 z"
         id="path21"
         sodipodi:nodetypes="cccccccccccc" />
      <path
         style="fill:#b4b4b4;fill-opacity:1;stroke-width:1.71424"
         d="m 45.928947,129.23313 -0.126129,-2.1381 1.097569,-3.21298 -4.646894,-33.563699 -10.896316,-21.30835 -4.014611,-5.05557 1.419176,-5.448342 9.811275,14.486521 7.682474,13.620451 3.940699,13.713999 4.493859,36.63474 z"
         id="path23"
         sodipodi:nodetypes="cccccccccccc" />
      <path
         style="display:inline;fill:#b4b4b4;fill-opacity:1;stroke-width:1.71424"
         d="m 172.34145,165.79334 21.60592,-4.84881 33.45963,16.75485 13.57225,28.31438 -2.68576,18.95069 -15.7641,18.43529 12.83345,-16.82876 3.87423,-19.4923 -15.55573,-27.74081 -30.93521,-13.66519 -25.90903,8.9592 z"
         id="path22"
         sodipodi:nodetypes="cccccccccccc" />
    </g>
    <path
       style="display:inline;fill:#7d7979;fill-opacity:0.65;stroke-width:0.891003"
       d="m 89.627814,81.919261 11.230016,-2.520245 17.04737,7.539664 7.43501,14.20704 -1.52586,7.68008 -0.88009,2.96458 2.01369,-10.13143 -8.08534,-14.418722 -16.07906,-7.102699 -13.466626,4.656686 z"
       id="path28"
       sodipodi:nodetypes="ccccccccccc" />
    <path
       style="fill:#545454;fill-opacity:0.65;stroke-width:0.891003"
       d="m 16.899097,29.895578 -2.086657,-2.627713 6.445368,-3.449453 0.121153,9.508581 z"
       id="path29"
       sodipodi:nodetypes="ccccc" />
    <path
       style="fill:#7f7676;fill-opacity:0.65;stroke-width:0.891003"
       d="m 79.612691,87.420035 -9.32373,-6.863688 -8.740277,-5.089022 -7.332596,5.004325 -15.272024,-0.330072 -13.900463,-8.167645 -0.235899,-4.084761 3.600087,4.059016 14.899247,6.101105 11.119979,0.5266 6.949174,-4.167835 10.391459,6.498299 z"
       id="path25"
       sodipodi:nodetypes="ccccccccccccc" />
    <path
       d="m 13.848774,28.986069 -10.0413679,4.585471 -4.1538488,-1.382638 2.7172122,-2.996547 5.889673,-0.933858 5.0581495,-2.972374 -3.6502636,-1.005289 -5.1338881,2.443815 -3.6244779,0.429463 -1.8115654,1.787935 -1.8134522,-2.617032 1.4336722,-2.54291 2.0895515,0.779407 6.8981413,-5.353446 3.5000212,-6.234439 8.861976,1.899495 2.717731,5.839079 -2.419153,5.478091"
       style="fill:#765c82;fill-opacity:1;stroke-width:0.891003"
       id="path1"
       sodipodi:nodetypes="cccccccccccccccccc" />
    <path
       style="fill:#867a8c;fill-opacity:1;stroke-width:0.95231"
       d="m 90.157954,66.662243 4.502908,6.259498 0.807268,7.547145 -5.606609,8.539559 -7.208501,5.388058 4.271705,5.693037 5.072644,1.62658 -0.533961,2.03323 -13.660552,9.7595 -2.892299,3.86314 0.489469,-7.37046 6.407553,-6.50633 -8.899383,-7.167128 -2.580825,-12.148548 4.138215,-9.505341 4.093717,-6.506334 z"
       id="path11"
       sodipodi:nodetypes="ccccccccccccccccc" />
    <path
       style="fill:#535353;fill-opacity:0.64878;stroke-width:1.11526"
       d="m 24.36713,54.07454 4.990654,-0.233265 6.638917,-2.695147 2.81701,-5.655565 2.390285,4.489828 -1.009299,3.962352 -2.489134,3.334724 -5.969922,2.298315 -5.149491,0.341829 -1.498393,-0.472945 z"
       id="path24"
       sodipodi:nodetypes="ccccccccccc" />
    <path
       style="display:none;fill:#535353;fill-opacity:0.64878;stroke-width:2.29205"
       d="m 44.402332,122.20374 11.562381,-0.42526 15.381088,-4.91346 6.526467,-10.31053 3.727742,4.60715 2.839072,-0.37409 -3.367338,11.17592 -5.766842,6.07945 -13.831153,4.19001 -11.930377,0.62318 -3.471486,-0.86221 z"
       id="path36"
       sodipodi:nodetypes="cccccccccccc" />
    <path
       style="display:inline;fill:#9c4343;fill-opacity:1;stroke-width:1.40632"
       d="m 22.828609,55.126634 6.301089,-0.324708 8.2823,-3.347536 3.342764,-7.495362 2.724625,6.272453 -0.873122,4.305396 -3.105288,4.250379 -7.447703,2.929384 -6.424186,0.435694 -1.505361,-0.602808 z"
       id="path17"
       sodipodi:nodetypes="ccccccccccc" />
    <path
       style="fill:#b4b4b4;fill-opacity:1;stroke-width:0.891003"
       d="m 15.137615,16.645194 c 0.04485,-0.288259 0.523263,-5.577287 0.8158,-5.876219 0.292537,-0.298929 3.767775,-4.9248931 3.767775,-4.9248931 l 6.158134,-1.9450857 -3.996191,2.2814365 -3.173111,5.2142363 0.391623,8.86881 z"
       id="path19"
       sodipodi:nodetypes="cscccccc" />
    <g
       id="g27"
       inkscape:label="UndersScales">
      <path
         style="display:none;fill:#b4b4b4;fill-opacity:1;stroke-width:1.71424"
         d="m 45.928947,129.23313 -0.126129,-2.1381 1.097569,-3.21298 -4.646894,-33.563699 -10.896316,-21.30835 -4.014611,-5.05557 1.419176,-5.448342 9.811275,14.486521 7.682474,13.620451 3.940699,13.713999 4.493859,36.63474 z"
         id="path26"
         sodipodi:nodetypes="cccccccccccc" />
      <path
         style="display:none;fill:#b4b4b4;fill-opacity:1;stroke-width:1.71424"
         d="m 172.34145,165.79334 21.60592,-4.84881 33.45963,16.75485 13.57225,28.31438 -2.68576,18.95069 -15.7641,18.43529 12.83345,-16.82876 3.87423,-19.4923 -15.55573,-27.74081 -30.93521,-13.66519 -25.90903,8.9592 z"
         id="path27"
         sodipodi:nodetypes="cccccccccccc" />
    </g>
    <g
       id="g2"
       transform="matrix(0.51976578,0,0,0.51976578,0.6007098,-5.9734604)">
      <g
         id="g8"
         inkscape:label="RightFrontLeg"
         style="display:inline"
         transform="matrix(-1,0,0,1,110.54373,-10.930733)"
         inkscape:transform-center-x="7.1093692"
         inkscape:transform-center-y="32.17925">
        <path
           style="display:inline;fill:#867a8c;fill-opacity:1;stroke-width:1.9367"
           d="m 24.450134,154.89692 2.914593,32.02434 -4.416107,9.57288 23.497742,17.59973 10.700219,5.54727 -3.586062,18.86501 13.704657,-14.90354 -4.392379,-15.19135 -16.257257,-8.65356 -4.21373,-13.51953 10.664867,-20.72205 -8.047982,-13.909 z"
           id="path5"
           sodipodi:nodetypes="ccccccccccccc" />
        <path
           style="display:none;fill:#8c7a7a;fill-opacity:1;stroke-width:1.9367"
           d="m 25.020801,162.86424 2.343926,24.05702 -4.416107,9.57288 23.497742,17.59973 10.700219,5.54727 -3.586062,18.86501 13.704657,-14.90354 -4.392379,-15.19135 -16.257257,-8.65356 -4.21373,-13.51953 10.664867,-20.72205 -8.047982,-13.909 -12.622889,1.08363 z"
           id="path15"
           sodipodi:nodetypes="cccccccccccccc" />
      </g>
      <path
         style="display:inline;fill:#545454;fill-opacity:0.65;stroke-width:1.9367"
         d="m 26.133977,189.55769 -3.185357,6.93645 23.497742,17.59973 -7.63603,-11.02888 -9.240814,-8.36015 z"
         id="path30"
         sodipodi:nodetypes="cccccc"
         transform="matrix(-1,0,0,1,110.54373,-10.930733)" />
      <path
         d="m 53.430222,208.82616 3.586062,18.86501 -6.560907,-12.91917 0.622067,-3.84734"
         style="display:inline;fill:#6b6b6b;fill-opacity:0.65;stroke-width:1.9367"
         id="path1-4"
         sodipodi:nodetypes="cccc" />
    </g>
    <path
       style="fill:#6a6a6a;fill-opacity:0.65;stroke-width:0.95231"
       d="m 88.231177,102.73682 3.766192,-1.0207 -0.533961,2.03323 -13.660552,9.7595 -2.410974,3.20991 1.79592,-4.86069 z"
       id="path31"
       sodipodi:nodetypes="ccccccc" />
    <path
       d="m 95.46813,80.468886 -5.606609,8.539559 -7.208501,5.388058 -0.44819,-2.087176 5.053195,-4.308256 3.417444,-4.625603 z"
       style="fill:#545454;fill-opacity:0.65;stroke-width:0.95231"
       id="path1-7"
       sodipodi:nodetypes="ccccccc" />
    <path
       style="display:inline;fill:#5d5d5d;fill-opacity:0.65;stroke-width:1.10849"
       d="m 109.93848,67.839632 -3.88666,3.102669 -2.34895,5.220788 0.28343,5.403625 -4.208645,-1.901708 -1.239341,-2.745102 0.266287,-4.110589 2.198119,-4.952791 2.68815,-2.617119 2.63764,-1.015887 z"
       id="path37"
       sodipodi:nodetypes="ccccccccccc" />
    <path
       style="display:inline;fill:#9c4343;fill-opacity:1;stroke-width:1.40632"
       d="m 110.64349,65.386785 -4.93097,3.936332 -2.9801,6.623567 0.4367,6.531689 -6.064289,-0.299958 -0.924642,-5.271562 0.337832,-5.215071 2.788741,-6.283562 3.410428,-3.320322 3.13047,-1.165476 z"
       id="path6"
       sodipodi:nodetypes="ccccccccccc" />
    <path
       style="fill:#535353;fill-opacity:0.64878;stroke-width:0.787965"
       d="m 20.678721,37.325103 3.355875,-0.444381 4.702754,-2.730764 1.491937,-3.995829 2.004847,3.658413 -0.603705,2.763057 -1.758647,2.356083 -4.217933,1.623831 -3.638274,0.241513 -0.04782,-0.956557 z"
       id="path34"
       sodipodi:nodetypes="ccccccccccc" />
    <path
       style="display:none;fill:#535353;fill-opacity:0.64878;stroke-width:1.59293"
       d="m 38.901599,86.296335 6.907487,-0.882305 9.679803,-5.421845 3.070894,-7.933596 4.126628,7.263665 -1.242618,5.485964 -3.619874,4.677932 -8.681881,3.224065 -7.488757,0.479516 -0.09843,-1.899213 z"
       id="path35"
       sodipodi:nodetypes="ccccccccccc" />
    <path
       style="display:inline;fill:#9c4343;fill-opacity:1;stroke-width:0.937845"
       d="m 20.155177,38.262646 4.135184,-0.777391 5.17451,-2.95204 1.539654,-5.252014 2.360862,3.901904 -0.192469,2.923284 -1.672548,3.086298 -4.6603,2.601153 -4.206624,0.861732 -1.048686,-0.26392 z"
       id="path32"
       sodipodi:nodetypes="ccccccccccc" />
    <path
       id="path39"
       style="display:none;fill:#3d404f;fill-opacity:1;stroke-width:1.7222"
       d="m 58.495898,67.828182 -2.123384,0.562756 4.16667,7.484298 z m -19.95227,14.322643 -1.000973,2.89749 2.751253,7.50497 1.49655,-4.0535 z" />
    <path
       style="fill:#342828;fill-opacity:1;stroke-width:1.02188"
       d="M -5.415894,23.097383 0.89838,28.75169 3.816224,35.060542 -1.1519967,33.877633 Z"
       id="path38"
       sodipodi:nodetypes="ccccc" />
    <path
       style="fill:#4f3d3d;stroke-width:0.829728"
       d="m -5.414839,23.102321 5.7954137,0.83398 6.3893682,-4.688664 4.5096351,1.137041 3.998401,3.592235 2.049028,4.354187 -13.5051135,6.718795"
       id="path40"
       sodipodi:nodetypes="ccccccc" />
    <path
       style="fill:#545454;fill-opacity:0.65;stroke-width:0.891003"
       d="M 3.7623289,34.968632 -0.9496467,28.867174 5.4957218,31.62884 14.421295,29.771714 Z"
       id="path41"
       sodipodi:nodetypes="ccccc" />
    <path
       d="m 0.3645667,23.920292 6.411379,-4.682661 4.5124823,1.148462"
       style="fill:#5a4545;fill-opacity:1;stroke-width:0.829728"
       id="path1-8"
       sodipodi:nodetypes="ccc" />
    <path
       d="m -4.021578,25.597856 6.7114037,8.696767 -3.6117104,-0.85993 z"
       style="fill:#ce653e;fill-opacity:1;stroke-width:0.742864"
       id="path1-1" />
    <g
       id="g44"
       transform="matrix(0.51976578,0,0,0.51976578,0.6007098,-5.9734604)">
      <path
         style="fill:#5e2e2e;fill-opacity:1;stroke-width:1.59635"
         d="m 24.172827,59.593934 10.47151,-5.420546 12.812201,0.369582 5.543741,2.833468 3.449439,6.898877 c 0,0 7.514848,9.116374 7.391654,9.609151 -0.123194,0.492777 6.036518,12.689007 6.036518,12.689007 l 5.913323,4.06541 6.775683,-1.601525 0.615972,2.217496 -5.666935,1.355137 c 0,0 -3.572633,0.492777 -4.434993,0.123194 -0.86236,-0.369583 -4.681381,-4.434993 -4.681381,-4.434993 l -4.188604,-8.254014 -2.833468,-6.036518 -5.174158,-5.913323 -3.449439,-5.913324 -1.971107,-3.20305 -3.942216,-2.217496 -6.529295,-0.369583 -6.529295,1.108748 -8.746791,4.06541 -2.304076,-0.157995 z"
         id="path45"
         sodipodi:nodetypes="cccccscccccscccccccccccc" />
      <path
         style="display:inline;fill:#4f3d3d;fill-opacity:1;stroke-width:1.59635"
         d="m 96.724802,114.98162 -13.732256,-5.9997 -2.34876,-13.399607 4.673194,-15.202966 17.80703,-1.596464 69.51261,8.836658 c 0,0 7.89305,8.167167 8.10892,9.028913 0.21587,0.861734 0.71142,14.791836 0.71142,14.791836 l -10.82598,10.63731 z"
         id="path42"
         sodipodi:nodetypes="ccccccsccc" />
      <path
         d="m 102.86193,97.567493 -5.989522,17.511797 -13.925084,-6.08301 -2.23987,-13.791608 4.673193,-15.115854 14.322574,0.581323 z"
         style="fill:#6c4b4b;fill-opacity:1;stroke-width:1.59635"
         id="path1-6"
         sodipodi:nodetypes="ccccccc" />
      <path
         d="M 98.877276,98.469588 95.906582,111.24639 84.819986,106.40334 81.927015,95.561716 86.7573,83.388367 97.467743,84.011785 Z"
         style="display:inline;fill:#858585;fill-opacity:1;stroke-width:1.27095"
         id="path43"
         sodipodi:nodetypes="ccccccc" />
      <path
         d="M 99.098791,97.923328 95.906582,111.24639 84.819986,106.40334 81.892605,95.516281 82.688373,93.645263 Z"
         style="display:inline;fill:#cd633b;fill-opacity:0.756757;stroke-width:1.27095"
         id="path44"
         sodipodi:nodetypes="cccccc" />
    </g>
    <path
       style="display:inline;fill:#75607e;fill-opacity:1;stroke-width:1.36582"
       d="M 47.150219,57.232548 54.571832,43.531114 58.568087,24.4062 54.857282,11.561108 l 5.99437,-6.8507174 37.964384,-15.1286656 12.845094,3.9962527 -8.56339,4.5671421 -3.425364,8.563397 3.139924,7.1361642 6.56527,4.281697 -8.56341,5.138035 -6.850715,7.992504 3.996256,5.708928 6.565269,3.996247 -11.98875,5.994386 -12.845096,2.56902 -13.986881,11.703301 z"
       id="path3"
       sodipodi:nodetypes="ccccccccccccccccccc" />
  </g>
</svg>
