<?xml version="1.0" encoding="UTF-8" standalone="no"?>
<!-- Created with Inkscape (http://www.inkscape.org/) -->

<svg
   width="612"
   height="612"
   viewBox="0 0 161.925 161.925"
   version="1.1"
   id="svg1"
   inkscape:version="1.4.2 (f4327f4, 2025-05-13)"
   sodipodi:docname="WarriorPic.svg"
   xmlns:inkscape="http://www.inkscape.org/namespaces/inkscape"
   xmlns:sodipodi="http://sodipodi.sourceforge.net/DTD/sodipodi-0.dtd"
   xmlns="http://www.w3.org/2000/svg"
   xmlns:svg="http://www.w3.org/2000/svg"
   xmlns:vectornator="http://vectornator.io">
  <sodipodi:namedview
     id="namedview1"
     pagecolor="#505050"
     bordercolor="#eeeeee"
     borderopacity="1"
     inkscape:showpageshadow="false"
     inkscape:pageopacity="0"
     inkscape:pagecheckerboard="true"
     inkscape:deskcolor="#505050"
     inkscape:document-units="mm"
     labelstyle="default"
     inkscape:lockguides="false"
     inkscape:zoom="0.52221043"
     inkscape:cx="-296.81521"
     inkscape:cy="4.7873421"
     inkscape:window-width="1920"
     inkscape:window-height="1009"
     inkscape:window-x="-8"
     inkscape:window-y="430"
     inkscape:window-maximized="1"
     inkscape:current-layer="svg1"
     showgrid="false" />
  <defs
     id="defs1" />
  <rect
     style="fill:#ffffff;stroke-width:1.71424"
     id="rect1"
     width="243.19698"
     height="227.99716"
     x="-52.692677"
     y="-39.012848" />
  <path
     style="fill:#3d6f49;fill-opacity:1;stroke:none;stroke-width:0.496254"
     d="M 101.01961,54.427687 107.13554,67.908898 103.2163,84.269986 95.422579,74.4803 93.30914,53.334692 Z"
     id="path8"
     inkscape:label="RightArm"
     sodipodi:nodetypes="cccccc" />
  <g
     id="g19"
     inkscape:label="LeftLeg"
     transform="matrix(0.23733666,0,0,0.23733666,17.384121,19.028355)">
    <path
       style="fill:#3d6f49;fill-opacity:1;stroke:none;stroke-width:1.5875"
       d="m 172.77117,318.94268 -17.50118,84.8218 1.78794,132.08878 c 13.18778,0.9872 41.58233,0.45373 39.56333,2.96162 l 4.77615,-134.14313 52.39456,-98.72828 z"
       id="path13"
       sodipodi:nodetypes="ccccccc" />
    <path
       style="display:none;fill:#3d6f49;fill-opacity:1;stroke:none;stroke-width:1.5875"
       d="M 214.31733,415.96814 245.2236,378.98193 224.95718,298.9296 Z"
       id="path19"
       sodipodi:nodetypes="cccc" />
  </g>
  <g
     id="g27"
     inkscape:label="RightLeg"
     transform="matrix(0.23733666,0,0,0.28147673,17.384121,5.721759)">
    <path
       style="fill:#3d6f49;fill-opacity:1;stroke:none;stroke-width:1.5875"
       d="m 244.29069,321.47598 -6.76834,58.42415 28.4347,124.02918 30.2115,0.35621 -5.86687,-122.24927 22.15105,-73.0166 z"
       id="path12"
       sodipodi:nodetypes="ccccccc" />
    <path
       style="display:none;fill:#3d6f49;fill-opacity:1;stroke:none;stroke-width:1.5875"
       d="m 297.91629,418.50144 30.90627,-36.98621 -20.26642,-80.05233 c -4.95466,62.29361 -10.63985,117.03854 -10.63985,117.03854 z"
       id="path21"
       sodipodi:nodetypes="cccc" />
  </g>
  <path
     style="fill:#3d6f49;fill-opacity:1;stroke:none;stroke-width:0.448459"
     d="m 52.283348,52.503612 -7.36468,9.549367 1.841992,13.39276 3.533079,2.814949 4.290392,-3.249724 3.804173,-20.037476 c -2.589892,-0.422556 -1.723778,-3.122136 -6.104956,-2.469876 z"
     id="path10"
     sodipodi:nodetypes="ccccccc" />
  <g
     id="g15"
     inkscape:label="Body"
     transform="matrix(0.23733666,0,0,0.23733666,17.506688,19.066709)">
    <path
       style="fill:#4d8b5c;fill-opacity:1;stroke:none;stroke-width:1.5875"
       d="m 212.80821,110.34499 20.06272,2.14958 41.91677,-3.58263 45.06543,-18.899339 36.24736,22.180909 3.23727,57.26488 -32.24367,21.85403 -24.34725,53.96655 8.56349,66.855 -29.71564,15.31837 -64.84559,4.65743 -44.38423,-13.12534 c 0,0 7.20444,-102.96304 7.20444,-104.75435 0,-1.79133 -14.76834,-27.93334 -14.76834,-27.93334 l -4.29916,-10.74788 -10.03136,-12.89747 c 0,0 -9.72091,-17.0057 -10.03137,-19.52534 1.68452,-3.53295 6.21972,-36.78109 6.21972,-36.78109 l 32.57979,-11.137547 z"
       id="path7"
       sodipodi:nodetypes="ccccccccccccsccccccc"
       inkscape:label="MainBody" />
    <path
       style="display:none;fill:#3d6f49;fill-opacity:1;stroke:none;stroke-width:1.5875"
       d="m 195.07419,106.04584 16.12183,3.94089 21.85404,2.32871 42.45416,-3.58263 30.27323,-8.24005 10.927,-2.866102 9.85223,7.165262 -15.40531,17.01749 -39.22977,15.76357 -30.41525,10.26033 -38.26477,-4.60606 L 191.87,121.38968 Z"
       id="path15"
       sodipodi:nodetypes="ccccccccccccc"
       inkscape:label="NeckShadow" />
    <g
       id="g28"
       inkscape:label="Cloth"
       style="display:none">
      <path
         style="fill:#ffffff;fill-opacity:1;stroke:none;stroke-width:1.67169"
         d="m 354.89586,121.82869 -37.75604,-26.712893 -11.11291,3.623084 -26.06837,30.650999 -26.06838,30.651 -84.65951,-20.62897 -29.21094,1.14534 0.91186,12.14035 23.06441,33.05527 c 0,0 -11.23789,39.39862 -13.34496,45.20878 -0.7771,3.53018 7.50935,29.34375 7.50935,29.34375 l 14.48496,59.75009 44.44892,-6.84766 28.87965,-25.07969 22.03972,-36.47954 40.53283,-33.43958 12.66652,-23.55971 30.01961,-26.09301 8.23324,-28.87964 z"
         id="path14"
         sodipodi:nodetypes="cccccccccccccccccccc"
         inkscape:label="Rag" />
      <path
         style="fill:#dedede;fill-opacity:1;stroke:none;stroke-width:1.67169"
         d="m 354.89586,121.82869 c -6.01831,8.96749 -11.61371,20.33042 -17.21274,30.38538 -9.24587,5.50299 -19.32914,14.14722 -28.31705,22.12654 -15.44251,18.2386 -27.32947,40.94702 -46.60076,54.79373 -8.26101,3.03673 -23.09058,21.0279 -26.25511,25.41217 -8.37318,11.60056 -15.225,23.29773 -16.61865,26.36023 -11.68643,18.22513 -33.09316,28.19524 -47.24622,39.14875 l 44.44892,-6.84766 28.87965,-25.07969 22.03972,-36.47954 40.53283,-33.43958 12.66652,-23.55971 30.01961,-25.83968 8.23324,-29.13297 z"
         id="path18"
         sodipodi:nodetypes="ccccscccccccccc"
         inkscape:label="RagLowerShadow" />
      <path
         style="fill:#dfdfdf;fill-opacity:1;stroke:none;stroke-width:1.67169"
         d="m 304.22802,118.68007 1.63861,-20.01765 -6.28845,7.24172 -19.61964,23.48574 -6.01247,7.01246 19.18081,-5.55367 z"
         id="path30"
         sodipodi:nodetypes="ccccccc"
         inkscape:label="RagUpperShadow" />
    </g>
    <path
       style="display:none;fill:#3d6f49;fill-opacity:1;stroke:none;stroke-width:1.5875"
       d="m 327.09409,191.31242 2.14958,64.48735 -17.93334,56.3342 -29.71564,15.31837 -64.84559,4.65743 -44.38423,-13.12534 c 18.1803,0.17795 45.6544,0.69061 52.90033,-3.49284 15.21618,-4.84141 38.14648,-14.97836 46.52043,-16.99457 7.65742,-6.4945 27.80736,-25.55796 35.49235,-38.66887 4.63976,-10.60307 16.33991,-39.79461 19.81611,-68.51573 z"
       id="path20"
       sodipodi:nodetypes="cccccccccc"
       inkscape:label="MainBody" />
  </g>
  <g
     id="g6"
     inkscape:label="Face"
     transform="matrix(2.6005299,0,0,2.6005299,-72.423143,-51.584003)"
     style="display:none">
    <g
       id="g30"
       inkscape:label="Face">
      <path
         style="fill:#4d8b5c;fill-opacity:1;stroke:none;stroke-width:1.5875"
         d="m 134.97097,130.36011 -11.3353,12.72798 c 0,0 -2.09472,15.77387 -1.42251,23.63917 0.53256,6.23127 4.28861,18.26523 4.28861,18.26523 0,0 8.89574,5.03027 13.08873,5.89481 4.193,0.86453 17.6555,0.7877 21.05684,0.60485 20.98847,-1.1283 57.21661,-19.22764 57.21661,-19.22764 l 8.61322,-39.01284 c 0,0 -1.9882,-19.81898 -4.55994,-34.452902 0.44297,-11.778018 -4.72195,-28.349032 -4.75926,-27.714835 l -14.23305,-15.130885 -36.908,-0.803455 -31.64828,15.435137 -6.51329,13.188085 4.85365,17.497785 z"
         id="path1"
         sodipodi:nodetypes="ccacsscccccccccc"
         inkscape:label="MainFace" />
      <path
         style="display:inline;fill:#3d6f49;fill-opacity:1;stroke:none;stroke-width:1.5875"
         d="m 205.34983,157.57136 c 0,0 -8.42665,6.44004 -23.87247,16.30571 -2.80036,5.40073 -5.14072,8.59191 -5.1116,15.21109 18.7085,-5.81491 41.49819,-16.82365 41.49819,-16.82365 l 8.61322,-39.01284 z"
         id="path27"
         sodipodi:nodetypes="cccccc"
         inkscape:label="MainFaceShaodw" />
    </g>
    <path
       style="display:inline;fill:#3d6f49;fill-opacity:1;stroke:none;stroke-width:1.5875"
       d="m 148.69267,101.52571 2.89684,1.89417 -1.85015,4.04374 -5.60866,0.85048 -10.94905,-0.38731 -0.10954,-1.5131 -0.26304,-3.31196 z"
       id="path25"
       inkscape:label="LeftEyebrowShadow"
       sodipodi:nodetypes="cccccccc" />
    <path
       style="fill:#505451;fill-opacity:1;stroke:none;stroke-width:1.5875"
       d="m 115.77189,99.558758 8.10656,-6.333254 23.55971,6.839916 -1.26665,5.0666 -22.79972,0.25333 z"
       id="path2"
       inkscape:label="LeftEyebrow" />
    <path
       style="display:inline;fill:#3d6f49;fill-opacity:1;stroke:none;stroke-width:1.5875"
       d="m 155.71161,103.19767 -2.50861,2.38462 2.54774,3.64471 5.67014,-0.17288 10.70054,-2.35163 2.61196,-2.58289 -3.1139,-2.23043 z"
       id="path26"
       inkscape:label="RightEyebrowShadow"
       sodipodi:nodetypes="cccccccc" />
    <path
       style="fill:#505451;fill-opacity:1;stroke:none;stroke-width:1.5875"
       d="m 184.69812,96.841165 -9.14958,-4.70229 -21.86102,11.132855 2.19348,4.73957 22.44345,-4.02283 z"
       id="path3"
       inkscape:label="RightEyebrow" />
    <path
       style="fill:#3d6f49;fill-opacity:1;stroke:none;stroke-width:1.5875"
       d="m 235.85039,72.325764 -2.27997,3.293292 6.96658,4.939938 21.53306,-1.519981 4.81328,-4.433278 -4.30662,-5.066603 z"
       id="path16"
       transform="translate(-77.026537,51.94813)"
       inkscape:label="RightEyeShadow"
       sodipodi:nodetypes="ccccccc" />
    <path
       style="fill:#6f7171;fill-opacity:1;stroke:none;stroke-width:1.5875"
       d="m 156.05139,116.02522 20.51974,-8.61323 7.85324,6.33326 2.02663,11.65318 -16.97312,3.54663 c 0,0 -10.38653,-0.50666 -10.38653,-2.78664 0,-2.27997 -3.03996,-10.1332 -3.03996,-10.1332 z"
       id="path4"
       inkscape:label="RightEye" />
    <path
       style="display:inline;fill:#3d6f49;fill-opacity:1;stroke:none;stroke-width:1.5875"
       d="m 152.9656,123.67224 1.39331,3.67329 -8.32823,4.90827 -12.44214,-0.35564 1.38355,-1.54477 -0.26304,-3.31196 z"
       id="path17"
       inkscape:label="LeftEyeShadow"
       sodipodi:nodetypes="ccccccc" />
    <path
       style="fill:#6f7171;fill-opacity:1;stroke:none;stroke-width:1.5875"
       d="m 132.70862,108.85956 c 1.26038,0.12577 16.69726,6.50795 16.69726,6.50795 l 3.25403,10.76282 -8.51927,3.73249 -9.37914,-2.15849 -2.83716,-10.91147 z"
       id="path5"
       sodipodi:nodetypes="ccccccc"
       inkscape:label="LeftEye" />
    <path
       style="display:inline;fill:#393b3b;fill-opacity:1;stroke:none;stroke-width:1.5875"
       d="m 134.76143,127.70352 -1.79449,-6.78077 4.16799,-5.66887 5.7322,1.61218 3.49307,5.19482 -1.45545,5.12763 -4.25437,1.8361 z"
       id="path23"
       sodipodi:nodetypes="cccccccc"
       inkscape:label="LeftIris" />
    <g
       id="g26"
       inkscape:label="Mouth">
      <path
         style="fill:#3d6f49;fill-opacity:1;stroke:none;stroke-width:1.5875"
         d="m 128.02471,157.90542 13.50519,0.96334 15.54753,-3.31394 3.54135,4.89756 -3.7488,3.56758 -2.03883,-3.58899 -25.57625,0.81279 -2.61171,5.46768 -2.92587,-4.18088 z"
         id="path22"
         sodipodi:nodetypes="cccccccccc"
         inkscape:label="Mouth" />
      <path
         style="display:inline;fill:#3d6f49;fill-opacity:1;stroke:none;stroke-width:1.5875"
         d="m 138.05078,187.35311 c -0.63332,-1.39332 -2.15331,-6.58659 -2.15331,-6.58659 l 3.92662,-4.81327 0.88666,4.68661 z"
         id="path31"
         inkscape:label="Chin" />
    </g>
    <path
       style="display:inline;fill:#393b3b;fill-opacity:1;stroke:none;stroke-width:1.5875"
       d="m 161.78277,126.71869 -1.06981,-6.92055 4.16799,-5.66887 5.7322,1.61218 3.49307,5.19482 0.14362,5.27284 -5.98779,2.21929 z"
       id="path24"
       sodipodi:nodetypes="cccccccc"
       inkscape:label="LeftIris" />
    <path
       style="fill:#3d6f49;fill-opacity:1;stroke:none;stroke-width:1.5875"
       d="m 203.99301,107.98811 8.61322,-12.919839 12.53986,-10.006542 3.92662,20.139751 -6.0031,11.47778 -2.40554,11.55989 -12.57322,0.37999 1.72877,-10.75116 z"
       id="path32"
       sodipodi:nodetypes="ccccccccc"
       inkscape:label="Ear" />
  </g>
  <g
     opacity="1"
     vectornator:layerName="Group 4"
     id="g53"
     style="clip-rule:evenodd;fill-rule:nonzero;stroke-linecap:round;stroke-linejoin:round"
     transform="matrix(-0.25979638,-0.17352114,0.17352114,-0.25979638,109.36518,124.0695)"
     inkscape:label="Sword">
    <path
       d="m 199.199,99.7675 c 0,0 -1.196,-9.9922 -1.377,-13.4251 -0.181,-3.4329 0.232,-5.8559 0.642,-8.3602 0.666,-4.0669 3.936,-18.5391 -0.429,-17.4785 -0.928,0.2254 -3.759,0.5062 -7.581,0.5837 -3.035,0.0616 -7.097,-0.6771 -8.849,-0.8406 -3.925,-0.3662 -0.882,12.5375 -0.336,17.7531 0.251,2.3897 0.87,6.0512 0.569,8.5132 -0.301,2.462 -1.093,13.474 -1.093,13.474 z"
       fill="#6f3a1a"
       fill-rule="nonzero"
       opacity="1"
       stroke="#9d521b"
       stroke-linecap="butt"
       stroke-linejoin="round"
       stroke-width="3.48834"
       vectornator:layerName="Curve 3"
       id="path52" />
    <path
       d="m 233.012,103.523 c 0.034,8.945 -9.795,5.714 -17.526,2.099 -1.104,-0.516 -16.649,4.022 -24.993,3.878 -8.344,-0.143 -24.476,-2.86 -26.846,-2.261 -7.739,1.957 -16.975,5.244 -17.057,-3.452 -0.082,-8.6966 7.158,-7.0555 16.725,-4.0185 3.327,1.0565 20.908,-2.2662 27.792,-2.3981 6.884,-0.132 19.575,2.9926 24.48,1.1662 9.826,-3.6581 17.391,-3.9577 17.425,4.9864 z"
       fill="#ef9f46"
       fill-rule="nonzero"
       opacity="1"
       stroke="#fddf19"
       stroke-linecap="butt"
       stroke-linejoin="round"
       stroke-width="3.48834"
       vectornator:layerName="Curve 2"
       id="path53" />
  </g>
  <g
     id="g29"
     inkscape:label="LeftArm"
     transform="matrix(-0.19551816,-0.15240843,0.15240843,-0.19551816,41.709869,148.01619)">
    <path
       style="fill:#3a6945;fill-opacity:1;stroke:none;stroke-width:1.52992"
       d="m 88.817204,301.68705 -11.087586,21.46314 19.308287,1.25803 10.932565,-10.31149 60.05567,-56.62258 -4.74503,-27.56342 -29.63762,3.02182 z"
       id="path11"
       sodipodi:nodetypes="cccccccc"
       inkscape:label="LeftForearm" />
  </g>
  <path
     style="fill:#3a6945;fill-opacity:1;stroke:none;stroke-width:0.411663"
     d="m 94.703981,73.440661 -14.981124,-4.790919 -4.704092,-2.141205 -3.739803,-0.542442 -0.600941,2.465662 6.612024,4.500276 13.502175,8.613687 12.21234,3.605032 0.58364,-4.609478 z"
     id="path9"
     inkscape:label="RightforeArm"
     sodipodi:nodetypes="cccccccccc" />
  <path
     style="fill:#6f5d3d;fill-opacity:1;stroke:none;stroke-width:0.15645"
     d="m 55.615321,144.03593 c 0,0 -1.961827,3.26967 -2.484937,3.40047 -0.523159,0.13078 -4.054417,0 -4.577578,0 -0.523159,0 -5.231453,-4.31598 -5.231453,-4.31598 l -1.046321,3.13889 1.961827,6.53936 11.378462,1.83102 12.293967,-1.83102 -4.446762,-11.2477 z"
     id="path35" />
  <path
     style="fill:#6f5d3d;fill-opacity:1;stroke:none;stroke-width:0.15645"
     d="m 80.022493,143.8564 c 0,0 -0.658834,3.75572 -1.100317,4.06541 -0.441281,0.30966 -3.784741,1.45388 -4.273085,1.64149 -0.488344,0.18759 -6.431261,-2.15296 -6.431261,-2.15296 l 0.14878,3.30533 4.176326,5.40096 11.278314,-2.37103 10.819776,-6.1178 -8.18439,-8.90507 z"
     id="path36" />
  <path
     style="fill:#2d582d;fill-opacity:1;stroke-width:0.488247"
     d="m 57.477403,145.71867 2.350832,-3.8559 c 0,0 -1.70976,-2.57063 -1.923417,-3.03325 -0.213554,-0.46266 2.350832,-3.80459 3.633127,-4.21587 1.282294,-0.41129 3.31254,-3.39306 3.526247,-3.75304 0.213554,-0.35982 -1.816538,-5.1413 -1.816538,-5.1413 l 1.816538,-4.72985 -2.564539,-4.88411 -1.70971,-4.2672 -5.556542,-2.57064 c 0,0 -0.213554,-2.51934 0.106776,-2.82779 0.320336,-0.30851 2.243953,-1.54225 2.243953,-1.54225 l -0.534294,-0.61693 -2.885125,0.97674 -0.427618,2.41631 0.641122,2.77632 3.098884,1.02826 c 0,0 2.243952,2.15936 2.350831,2.46781 0.106777,0.30851 1.60283,2.82766 1.60283,2.82766 0,0 1.496002,1.54237 1.175467,2.93041 -0.320841,1.38826 -1.60283,3.44479 -1.60283,3.65043 0,0.20567 -1.496054,0.82263 -0.106777,2.7248 1.389123,1.90217 5.022249,1.95368 1.709709,4.47283 -3.31259,2.51915 -6.518302,4.26718 -6.518302,4.26718 0,0 -0.641122,1.95373 -0.641122,2.82779 0,0.87396 -1.175467,3.29027 -0.320841,4.2672 0.854829,0.97678 0.213553,3.80439 0.213553,3.80439 z"
     id="path16-4" />
  <path
     style="fill:#2d582d;fill-opacity:1;stroke-width:0.274319"
     d="m 80.63482,143.10292 -1.320805,-2.16642 c 0,0 0.960595,-1.4443 1.080631,-1.70422 0.119934,-0.25998 -1.320805,-2.13758 -2.041227,-2.36865 -0.720471,-0.23109 -1.861121,-1.90638 -1.981208,-2.10863 -0.119934,-0.2022 1.020613,-2.88861 1.020613,-2.88861 l -1.020613,-2.65744 1.440893,-2.74411 0.960545,-2.3975 3.121959,-1.4443 c 0,0 0.119934,-1.41548 -0.05972,-1.58878 -0.180156,-0.1733 -1.260787,-0.8665 -1.260787,-0.8665 l 0.30009,-0.34661 1.620998,0.54878 0.239873,1.35759 -0.360312,1.55985 -1.741085,0.57773 c 0,0 -1.260736,1.21322 -1.320805,1.38652 -0.05972,0.17331 -0.900527,1.5887 -0.900527,1.5887 0,0 -0.840559,0.86658 -0.660453,1.64644 0.180156,0.77999 0.900577,1.93544 0.900577,2.05098 0,0.11552 0.840508,0.46218 0.05971,1.53091 -0.78049,1.06872 -2.821717,1.09766 -0.960595,2.51304 1.861172,1.41537 3.662274,2.39749 3.662274,2.39749 0,0 0.360313,1.09768 0.360313,1.58877 0,0.49102 0.660402,1.84862 0.180156,2.3975 -0.480246,0.54881 -0.119934,2.13748 -0.119934,2.13748 z"
     id="path37" />
  <path
     style="fill:#2d582d;fill-opacity:1;stroke-width:0.274319"
     d="m 82.78075,122.30778 1.320805,-2.16642 c 0,0 -0.960595,-1.4443 -1.080682,-1.70422 -0.119934,-0.25993 1.320806,-2.13758 2.041278,-2.36866 0.720421,-0.23109 1.861121,-1.90638 1.981208,-2.10862 0.119934,-0.2022 -1.020613,-2.88862 -1.020613,-2.88862 l 1.020613,-2.65744 -1.440892,-2.74411 -0.960595,-2.3975 -3.121909,-1.4443 c 0,0 -0.119934,-1.41548 0.05972,-1.58878 0.180156,-0.17331 1.260787,-0.866508 1.260787,-0.866508 l -0.30009,-0.346608 -1.620998,0.548773 -0.240378,1.357583 0.360312,1.55985 1.741085,0.57774 c 0,0 1.260737,1.21322 1.320805,1.38652 0.05972,0.17331 0.900527,1.58871 0.900527,1.58871 0,0 0.840508,0.86657 0.660403,1.64643 -0.180156,0.77999 -0.900526,1.93544 -0.900526,2.05098 0,0.11552 -0.840559,0.46218 -0.05972,1.53092 0.780439,1.06872 2.821716,1.09765 0.960544,2.51304 -1.861121,1.41537 -3.662224,2.39748 -3.662224,2.39748 0,0 -0.360312,1.09769 -0.360312,1.58878 0,0.49102 -0.660454,1.84862 -0.180156,2.39751 0.480246,0.5488 0.119933,2.13747 0.119933,2.13747 z"
     id="path38" />
  <path
     style="fill:#2d582d;fill-opacity:1;stroke-width:0.488247"
     d="m 63.581094,117.04973 2.350832,-3.8559 c 0,0 -1.70971,-2.57063 -1.923417,-3.03326 -0.213553,-0.46265 2.350882,-3.80458 3.633127,-4.21586 1.282294,-0.41129 3.31259,-3.39306 3.526298,-3.75304 0.213553,-0.35982 -1.816538,-5.141303 -1.816538,-5.141303 l 1.816538,-4.729839 -2.56459,-4.884117 -1.709659,-4.267202 -5.556594,-2.570634 c 0,0 -0.213554,-2.519348 0.106777,-2.827801 0.320331,-0.308505 2.244003,-1.542247 2.244003,-1.542247 l -0.534294,-0.616926 -2.885176,0.976739 -0.427618,2.416307 0.641173,2.776315 3.098833,1.028272 c 0,0 2.244003,2.159346 2.350831,2.467804 0.106777,0.308505 1.602831,2.827659 1.602831,2.827659 0,0 1.496053,1.542373 1.175466,2.930409 -0.320841,1.388268 -1.60283,3.444785 -1.60283,3.650434 0,0.20567 -1.496002,0.822627 -0.106777,2.724797 1.389123,1.902169 5.0223,1.953682 1.709709,4.472833 -3.31259,2.51915 -6.518302,4.26717 -6.518302,4.26717 0,0 -0.641122,1.95374 -0.641122,2.8278 0,0.87396 -1.175416,3.29028 -0.320841,4.2672 0.854829,0.97678 0.213553,3.80439 0.213553,3.80439 z"
     id="path39" />
  <path
     style="fill:#2d582d;fill-opacity:1;stroke-width:0.416188"
     d="m 79.823562,121.85872 -2.00388,-3.28683 c 0,0 1.457391,-2.19125 1.639571,-2.58558 0.18218,-0.39437 -2.00393,-3.24307 -3.09691,-3.59366 -1.09308,-0.35059 -2.82369,-2.89229 -3.00587,-3.19914 -0.18218,-0.30672 1.548429,-4.38251 1.548429,-4.38251 l -1.548429,-4.03178 2.18606,-4.163281 1.45739,-3.637414 4.73648,-2.191234 c 0,0 0.182182,-2.147521 -0.09109,-2.410466 -0.273271,-0.262929 -1.91279,-1.31462 -1.91279,-1.31462 l 0.455453,-0.525859 2.45933,0.832575 0.36436,2.059695 -0.54649,2.366569 -2.64151,0.876509 c 0,0 -1.91284,1.840658 -2.00393,2.103582 -0.09109,0.262929 -1.36625,2.410324 -1.36625,2.410324 0,0 -1.27521,1.314751 -1.00199,2.497923 0.27327,1.183377 1.366299,2.936387 1.366299,3.111677 0,0.17531 1.275211,0.70121 0.09109,2.32265 -1.18412,1.62144 -4.28108,1.66534 -1.45739,3.8127 2.82369,2.14736 5.55629,3.6374 5.55629,3.6374 0,0 0.54649,1.66538 0.54649,2.41044 0,0.74498 1.00194,2.80468 0.273271,3.63742 -0.72867,0.83261 -0.182182,3.24292 -0.182182,3.24292 z"
     id="path40" />
  <path
     style="fill:#2d582d;fill-opacity:1;stroke-width:0.381461"
     d="m 61.129305,44.079842 -3.142202,1.604815 c 0,0 0.08654,2.410516 0.04047,2.805856 -0.04553,0.395382 -3.121187,1.570656 -4.142964,1.31984 -1.021776,-0.250853 -3.592995,0.903294 -3.88251,1.055475 -0.289463,0.15207 -0.8942,4.16528 -0.8942,4.16528 l -3.144074,2.405106 -0.290982,4.300113 -0.607723,3.539752 2.646874,3.984253 c 0,0 -0.888431,1.764347 -1.227843,1.83859 -0.339563,0.07431 -2.124574,0.108571 -2.124574,0.108571 l 0.103236,0.62922 2.319962,0.530174 1.273034,-1.433465 0.709035,-2.110255 -1.641949,-1.952176 c 0,0 -0.610252,-2.355323 -0.555194,-2.604343 0.05516,-0.248982 0.09008,-2.537862 0.09008,-2.537862 0,0 -0.364866,-1.638646 0.416484,-2.431402 0.781452,-0.79284 2.476131,-1.6372 2.560237,-1.774083 0.084,-0.136886 1.332344,0.06447 1.18574,-1.770037 -0.146248,-1.834401 -2.543639,-3.355013 0.691829,-3.676622 3.235518,-0.321599 6.084409,-0.173677 6.084409,-0.173677 0,0 1.225971,-1.038159 1.58355,-1.619946 0.357782,-0.581727 2.128471,-1.709188 1.959246,-2.709089 -0.169529,-0.999875 1.414122,-2.619699 1.414122,-2.619699 z"
     id="path41" />
  <path
     style="fill:#2d582d;fill-opacity:1;stroke-width:0.381461"
     d="m 61.129305,44.079842 -3.142202,1.604815 c 0,0 0.08654,2.410516 0.04047,2.805856 -0.04553,0.395382 -3.121187,1.570656 -4.142964,1.31984 -1.021776,-0.250853 -3.592995,0.903294 -3.88251,1.055475 -0.289463,0.15207 -0.8942,4.16528 -0.8942,4.16528 l -3.144074,2.405106 -0.290982,4.300113 -0.607723,3.539752 2.646874,3.984253 c 0,0 -0.888431,1.764347 -1.227843,1.83859 -0.339563,0.07431 -2.124574,0.108571 -2.124574,0.108571 l 0.103236,0.62922 2.319962,0.530174 1.273034,-1.433465 0.709035,-2.110255 -1.641949,-1.952176 c 0,0 -0.610252,-2.355323 -0.555194,-2.604343 0.05516,-0.248982 0.09008,-2.537862 0.09008,-2.537862 0,0 -0.364866,-1.638646 0.416484,-2.431402 0.781452,-0.79284 2.476131,-1.6372 2.560237,-1.774083 0.084,-0.136886 1.332344,0.06447 1.18574,-1.770037 -0.146248,-1.834401 -2.543639,-3.355013 0.691829,-3.676622 3.235518,-0.321599 6.084409,-0.173677 6.084409,-0.173677 0,0 1.225971,-1.038159 1.58355,-1.619946 0.357782,-0.581727 2.128471,-1.709188 1.959246,-2.709089 -0.169529,-0.999875 1.414122,-2.619699 1.414122,-2.619699 z"
     id="path42" />
  <path
     style="fill:#2d582d;fill-opacity:1;stroke-width:0.335577"
     d="m 104.18322,69.83624 0.56718,-3.051633 c 0,0 -1.72681,-1.233168 -1.97716,-1.478077 -0.25051,-0.244931 0.57974,-3.018672 1.30285,-3.59639 0.7231,-0.577734 1.29813,-2.989495 1.34737,-3.272986 0.0505,-0.283391 -2.42396,-2.858291 -2.42396,-2.858291 l 0.0101,-3.482358 -2.84155,-2.510183 -2.141628,-2.322953 -4.197785,-0.292551 c 0,0 -0.753315,-1.566025 -0.622955,-1.842494 0.130562,-0.276508 1.064286,-1.539351 1.064286,-1.539351 l -0.493911,-0.265628 -1.614368,1.332875 0.316285,1.656614 1.090702,1.626565 2.241977,-0.09721 c 0,0 1.969418,0.838342 2.113492,1.010351 0.143727,0.172056 1.720945,1.424395 1.720945,1.424395 0,0 1.33811,0.624923 1.47161,1.594906 0.13362,0.970175 -0.18725,2.604654 -0.13715,2.736754 0.0505,0.132133 -0.75979,0.894211 0.59775,1.776332 1.35744,0.882172 3.70372,0.02684 2.19193,2.455035 -1.51184,2.428144 -3.14356,4.334834 -3.14356,4.334834 0,0 0.0658,1.411719 0.27982,1.97317 0.21356,0.561372 0.0505,2.400903 0.83737,2.819438 0.78793,0.418392 1.06752,2.391457 1.06752,2.391457 z"
     id="path43" />
  <path
     style="fill:#2d582d;fill-opacity:1;stroke-width:0.335577"
     d="m 95.714675,84.263187 -0.567188,-3.051628 c 0,0 1.726813,-1.233168 1.977159,-1.478083 0.25051,-0.24493 -0.579733,-3.018666 -1.302836,-3.59639 -0.723103,-0.577734 -1.298136,-2.989489 -1.347375,-3.272986 -0.05063,-0.283401 2.424006,-2.858288 2.424006,-2.858288 l -0.01,-3.482355 2.841605,-2.510186 2.141584,-2.322951 4.19783,-0.292559 c 0,0 0.75326,-1.566024 0.6229,-1.842494 -0.13057,-0.276508 -1.06429,-1.539349 -1.06429,-1.539349 l 0.49392,-0.265629 1.61442,1.332873 -0.3163,1.656613 -1.0907,1.626567 -2.24198,-0.0972 c 0,0 -1.96941,0.838343 -2.11344,1.010347 -0.14425,0.17204 -1.72099,1.424397 -1.72099,1.424397 0,0 -1.338114,0.624925 -1.47161,1.594906 -0.133623,0.970175 0.18725,2.604653 0.137148,2.736749 -0.05052,0.132149 0.759795,0.894212 -0.597754,1.776336 -1.357391,0.882171 -3.703719,0.02684 -2.191928,2.455037 1.511843,2.428138 3.143568,4.334828 3.143568,4.334828 0,0 -0.06579,1.411725 -0.279823,1.973176 -0.213564,0.561366 -0.05052,2.400898 -0.837321,2.819438 -0.787978,0.418392 -1.067574,2.391457 -1.067574,2.391457 z"
     id="path44" />
  <g
     id="g47"
     inkscape:label="fACE"
     transform="matrix(6.1990193,0,0,6.1990193,35.572364,5.7322078)">
    <path
       style="fill:#a86424;fill-opacity:1;stroke:none;stroke-width:0.0225352"
       d="M 4.31842,7.166293 3.53452,6.316722 3.20012,4.233479 3.60988,2.398287 4.63867,1.590058 6.52254,1.684248 6.95583,2.249407 7.95427,1.778441 9.2353,1.891473 10.25259,3.134822 10.12072,4.528881 9.49904,6.375066 8.0673,7.072096 6.68991,6.811773 Z"
       id="path33"
       sodipodi:nodetypes="ccccccccccccccc" />
    <path
       style="fill:#6f5d3d;fill-opacity:1;stroke:none;stroke-width:0.0309155"
       d="m 5.06251,3.590989 c 0.0914,0.0731 0.54825,0.712716 0.54825,0.712716 L 4.80667,4.669199 Z"
       id="path45" />
    <path
       style="fill:#6f5d3d;fill-opacity:1;stroke:none;stroke-width:0.0309155"
       d="M 7.20066,4.395078 7.94993,3.572714 8.44334,4.559551 Z"
       id="path46" />
    <path
       style="fill:#6f5d3d;fill-opacity:1;stroke:none;stroke-width:0.0309155"
       d="M 4.93459,5.656036 C 5.02599,5.509838 5.70213,5.235717 5.70213,5.235717 L 6.50622,5.126068 7.87683,5.272266 8.40679,5.656036 8.00475,6.039806 7.73063,5.491564 7.23721,5.930157 6.72552,5.509838 6.06763,6.021531 5.73868,5.546388 5.06251,6.149455 Z"
       id="path47" />
    <path
       style="fill:#3d6f49;fill-opacity:1;stroke:none;stroke-width:0.0309155"
       d="m 6.58846,1.790926 c 0,0 0.27412,-0.648754 0.28326,-0.685303 0.009,-0.03655 0.8315,-0.968562 0.8315,-0.968562 L 9.15606,0 9.31139,0.255847 9.07382,0.447731 8.40679,0.383771 c 0,0 -0.25584,0.164473 -0.3198,0.191885 -0.064,0.02741 -0.25585,0.374632 -0.26499,0.411182 -0.009,0.03655 0.0914,0.813226 0.0914,0.813226 l 0.25584,0.06396 0.0457,0.402044 -0.48428,0.484281 c 0,0 -0.82237,0.127924 -0.85891,0.127924 -0.0366,0 -0.79496,-0.392908 -0.81323,-0.466007 -0.0183,-0.0731 -0.064,-0.648753 -0.064,-0.648753 z"
       id="path34" />
  </g>
  <path
     d="m 76.364159,61.640708 c 0,0 4.484098,-6.773795 5.978615,-8.987766 1.494691,-2.214231 4.517628,-6.770558 5.981464,-8.975717 1.142125,-1.720118 5.014151,-7.605077 5.948713,-8.978432 1.767375,-1.1094 5.1571,-3.256751 5.292759,-3.019997 0.357607,0.622792 -0.434917,4.241509 -0.80757,6.039754 -1.02824,1.488864 -4.108726,6.161163 -5.983251,8.94071 -1.87444,2.779979 -4.082763,6.195412 -5.890533,8.933511 -1.808204,2.738185 -6.0402,8.961279 -6.0402,8.961279 z"
     fill="#8b8b8b"
     fill-rule="nonzero"
     opacity="1"
     stroke="#adadad"
     stroke-linecap="butt"
     stroke-linejoin="round"
     stroke-width="1.08981"
     vectornator:layerName="Curve 1"
     id="path51"
     style="clip-rule:evenodd;fill-rule:nonzero;stroke-linecap:round;stroke-linejoin:round" />
</svg>
