<?xml version="1.0" encoding="UTF-8" standalone="no"?>
<!-- Created with Inkscape (http://www.inkscape.org/) -->

<svg
   width="612"
   height="612"
   viewBox="0 0 161.925 161.925"
   version="1.1"
   id="svg1"
   inkscape:version="1.4.2 (f4327f4, 2025-05-13)"
   sodipodi:docname="GuardTowerGSN.svg"
   xmlns:inkscape="http://www.inkscape.org/namespaces/inkscape"
   xmlns:sodipodi="http://sodipodi.sourceforge.net/DTD/sodipodi-0.dtd"
   xmlns="http://www.w3.org/2000/svg"
   xmlns:svg="http://www.w3.org/2000/svg">
  <sodipodi:namedview
     id="namedview1"
     pagecolor="#505050"
     bordercolor="#eeeeee"
     borderopacity="1"
     inkscape:showpageshadow="0"
     inkscape:pageopacity="0"
     inkscape:pagecheckerboard="true"
     inkscape:deskcolor="#505050"
     inkscape:document-units="mm"
     inkscape:zoom="0.71891835"
     inkscape:cx="29.210549"
     inkscape:cy="212.12423"
     inkscape:window-width="1920"
     inkscape:window-height="1009"
     inkscape:window-x="-8"
     inkscape:window-y="430"
     inkscape:window-maximized="1"
     inkscape:current-layer="svg1" />
  <defs
     id="defs1" />
  <rect
     style="fill:#ffffff;fill-opacity:1;stroke-width:1.71424"
     id="rect1"
     width="260.56506"
     height="220.08179"
     x="-35.985821"
     y="-73.560753"
     transform="translate(-12.226075,44.854434)" />
  <g
     inkscape:label="Layer 1"
     inkscape:groupmode="layer"
     id="layer1"
     transform="translate(-12.226075,44.854435)">
    <path
       id="path1"
       style="fill:#3e3e3e;fill-opacity:1;stroke-width:0.984959"
       d="M 60.344572,-5.5651353 V 7.6145202 L 71.193708,26.154163 c 0,0 0.696856,45.188009 0,45.875526 -0.696856,0.687527 -8.66856,14.813605 -8.66856,14.813605 V 112.00691 H 93.332309 124.20569 V 86.843294 c 0,0 -7.86495,-14.126078 -8.55247,-14.813605 -0.68751,-0.687517 0,-45.875526 0,-45.875526 L 126.35687,7.6145202 V -5.5651353 H 114.47831 V 5.0081625 H 99.464884 V -1.7586291 H 87.602062 V 5.0081625 H 72.384355 V -5.5651353 Z"
       sodipodi:nodetypes="cccscccccscccccccccccc" />
    <path
       style="fill:#292929;fill-opacity:1;stroke-width:0.984959"
       d="m 101.94851,101.79034 h 20.9335 v 9.12102 h -20.78397 z"
       id="path2" />
    <path
       style="fill:#525252;fill-opacity:1;stroke-width:0.984959"
       d="m 80.117854,101.79034 h 20.933506 v 9.12102 H 80.267381 Z"
       id="path3" />
    <path
       style="fill:#292929;fill-opacity:1;stroke-width:0.840726"
       d="m 63.670098,101.64082 h 15.251561 v 9.12102 h -15.14262 z"
       id="path4" />
    <path
       style="fill:#474747;fill-opacity:1;stroke-width:0.840726"
       d="m 107.77999,91.323586 h 15.25155 v 9.121024 h -15.14261 z"
       id="path5" />
    <path
       style="fill:#1e1e1e;fill-opacity:1;stroke-width:0.984959"
       d="m 85.201706,90.87501 h 20.933504 v 9.121025 H 85.351233 Z"
       id="path6" />
    <path
       style="fill:#292929;fill-opacity:1;stroke-width:0.984959"
       d="M 84.454081,100.14556 H 63.520571 V 91.024537 H 84.304554 Z"
       id="path7" />
    <path
       style="fill:#292929;fill-opacity:1;stroke-width:0.984959"
       d="M 119.89151,89.67881 H 98.958006 v -9.121025 l 18.615864,-0.224263 2.46717,3.588602 z"
       id="path8"
       sodipodi:nodetypes="cccccc" />
    <path
       style="fill:#171717;fill-opacity:1;stroke-width:0.984959"
       d="M 103.74281,79.212057 H 82.809299 v -9.121024 h 20.783981 z"
       id="path10" />
    <path
       style="fill:#5a5a5a;fill-opacity:1;stroke-width:0.660731"
       d="m 104.93901,70.539609 h 9.42008 v 9.121019 h -9.35279 z"
       id="path11" />
    <path
       style="fill:#292929;fill-opacity:1;stroke-width:0.660731"
       d="m 72.492079,70.091033 h 9.420073 v 9.121024 h -9.352783 z"
       id="path12" />
    <path
       style="fill:#292929;fill-opacity:1;stroke-width:0.660731"
       d="M 88.640786,89.977858 V 80.55778 h 9.121024 v 9.352794 z"
       id="path13" />
    <path
       style="fill:#363636;fill-opacity:1;stroke-width:0.984959"
       d="M 66.137263,89.903095 H 87.070768 V 80.78207 L 68.454912,80.557753 65.987736,84.14636 Z"
       id="path14"
       sodipodi:nodetypes="cccccc" />
    <path
       style="fill:#5e221d;fill-opacity:1;stroke-width:1.12004"
       d="M 101.12612,5.7952646 H 85.126937 l -0.07474,31.0212904 7.62577,10.247621 8.448173,-10.054274 z"
       id="path15"
       sodipodi:nodetypes="cccccc" />
    <path
       style="fill:#ffffff;fill-opacity:1;stroke-width:0.609043"
       d="m 69.434447,8.3544928 -6.079583,-0.046507 -0.212367,24.1368992 2.836965,7.995575 3.269885,-7.798578 z"
       id="path20"
       sodipodi:nodetypes="cccccc" />
    <path
       style="fill:#2d582d;fill-opacity:1;stroke-width:0.984959"
       d="m 64.567255,112.25709 3.289548,-11.21438 c 0,0 -2.392401,-7.476249 -2.69145,-8.821977 -0.299054,-1.345723 3.289548,-11.06485 5.083852,-12.261051 1.794298,-1.196201 4.635276,-9.868649 4.934324,-10.915328 C 75.482584,67.99768 72.641606,54.091853 72.641606,54.091853 L 75.183529,40.335547 71.594927,26.130671 69.202531,13.720094 61.427229,6.2438405 c 0,0 -0.299054,-7.326726 0.149527,-8.2238725 0.448582,-0.8971519 3.140027,-4.4857541 3.140027,-4.4857541 l -0.747625,-1.7942983 -4.037178,2.8409774 -0.598098,7.0276771 0.897152,8.0743508 4.336227,2.9904991 c 0,0 3.140021,6.280052 3.289548,7.177199 0.149527,0.897152 2.242874,8.223878 2.242874,8.223878 0,0 2.093353,4.485749 1.644777,8.522927 -0.448582,4.037172 -2.242875,10.018181 -2.242875,10.616279 0,0.598098 -2.093352,2.392396 -0.149527,7.924829 1.943826,5.532422 7.027677,5.681949 2.392402,13.008675 -4.635276,7.326726 -9.12103,12.410573 -9.12103,12.410573 0,0 -0.897147,5.681955 -0.897147,8.223878 0,2.541923 -1.644776,9.5696 -0.448581,12.410582 1.196201,2.84097 0.299054,11.06485 0.299054,11.06485 z"
       id="path16" />
    <path
       style="fill:#2d582d;fill-opacity:1;stroke-width:0.49158"
       d="m 74.137483,112.61918 2.321818,-3.21394 c 0,0 -1.688596,-3.1793 -1.89967,-3.72183 -0.211069,-0.54252 2.321818,-3.16117 3.588261,-3.17767 1.266449,-0.0162 3.271654,-2.43478 3.482728,-2.736554 0.211068,-0.301758 -1.794131,-5.851529 -1.794131,-5.851529 l 1.794131,-4.280034 -2.532893,-5.824316 -1.688591,-4.920664 -5.487931,-4.39626 c 0,0 -0.211069,-2.653271 0.105561,-2.868471 0.31663,-0.215178 2.216278,-0.873157 2.216278,-0.873157 l -0.527698,-0.80225 -2.8495,0.08988 -0.422137,2.344904 0.633227,3.052327 3.060574,2.0357 c 0,0 2.216279,2.926178 2.321818,3.276585 0.105562,0.350429 1.583057,3.409348 1.583057,3.409348 0,0 1.477517,2.05632 1.160909,3.379654 -0.31663,1.323339 -1.583057,3.028429 -1.583057,3.239498 0,0.211068 -1.477522,0.371033 -0.105561,2.762931 1.371983,2.391899 4.960244,3.594021 1.688597,5.131738 -3.271654,1.53772 -6.437767,2.31771 -6.437767,2.31771 0,0 -0.633222,1.80239 -0.633222,2.69945 0,0.89707 -1.160909,3.00533 -0.31663,4.27838 0.844301,1.27304 0.211069,3.97248 0.211069,3.97248 z"
       id="path17" />
    <path
       style="fill:#5e221d;fill-opacity:1;stroke-width:0.49158"
       d="m 68.532309,56.098723 -2.321813,-3.21394 c 0,0 1.688591,-3.179304 1.899665,-3.72183 0.211069,-0.542522 -2.321818,-3.161171 -3.588261,-3.177671 -1.266444,-0.01622 -3.271648,-2.434783 -3.482727,-2.736557 -0.211069,-0.301758 1.794136,-5.851529 1.794136,-5.851529 l -1.794136,-4.280034 2.532892,-5.824316 1.688596,-4.920664 5.487932,-4.39626 c 0,0 0.211068,-2.653271 -0.105561,-2.868471 -0.31663,-0.215178 -2.216279,-0.873157 -2.216279,-0.873157 l 0.527698,-0.80225 2.849506,0.08988 0.422137,2.344904 -0.633222,3.052327 -3.060579,2.0357 c 0,0 -2.216279,2.926178 -2.321813,3.276585 -0.105561,0.350429 -1.583057,3.409348 -1.583057,3.409348 0,0 -1.477522,2.05632 -1.160909,3.379654 0.31663,1.323339 1.583057,3.028429 1.583057,3.239498 0,0.211068 1.477517,0.371033 0.105561,2.762931 -1.371983,2.391893 -4.960244,3.594021 -1.688591,5.131738 3.271648,1.537723 6.437762,2.317714 6.437762,2.317714 0,0 0.633221,1.802389 0.633221,2.699448 0,0.897066 1.160909,3.005333 0.31663,4.278374 -0.844295,1.273041 -0.211068,3.972484 -0.211068,3.972484 z"
       id="path18" />
    <path
       style="fill:#5e221d;fill-opacity:1;stroke-width:0.609043"
       d="m 127.74921,4.167793 -6.07959,-0.046507 -0.21236,24.136899 2.83696,7.995575 3.26988,-7.798577 z"
       id="path19"
       sodipodi:nodetypes="cccccc" />
    <path
       style="fill:#584b2d;fill-opacity:1;stroke-width:1.24416"
       d="M 62.036267,3.5278061 C 128.01188,-26.388265 128.01188,-26.388265 128.01188,-26.388265 l -6.6777,-6.410588 -40.066157,20.567301 -11.485635,-4.540833 z"
       id="path21" />
    <path
       style="fill:#584b2d;fill-opacity:1;stroke-width:1.24416"
       d="m 117.32758,-27.99091 c -6.4106,-1.869754 -26.176572,-6.944801 -26.176572,-6.944801 l 5.609268,5.609262 c 0,0 6.410584,1.602644 8.280344,1.335539 1.86975,-0.267093 12.28696,0 12.28696,0 z"
       id="path22" />
    <path
       style="fill:#584b2d;fill-opacity:1;stroke-width:1.24416"
       d="m 116.74099,-29.896788 c 1.77191,6.438324 6.54535,26.2792962 6.54535,26.2792962 l -5.52319,-5.6940414 c 0,0 -1.50484,-6.4342518 -1.20928,-8.2997228 0.29554,-1.865471 0.18711,-12.285532 0.18711,-12.285532 z"
       id="path23" />
    <path
       style="fill:#e3dbc9;fill-opacity:1;stroke-width:0.984959"
       d="M 79.756869,-19.306261 77.364468,-8.8395088 88.728372,-21.250087 71.832045,-25.885362 Z"
       id="path24"
       sodipodi:nodetypes="ccccc" />
    <path
       style="fill:#69511c;fill-opacity:1;stroke-width:0.984959"
       d="m 86.186449,-21.84819 37.082201,-17.344902 1.64478,3.140026 -37.530786,16.223465 z"
       id="path25"
       sodipodi:nodetypes="ccccc" />
    <path
       style="fill:#5e5853;fill-opacity:1;stroke-width:0.984959"
       d="m 117.02773,-39.06922 16.89633,-2.840977 -14.3544,10.765801 3.5886,-7.027677 z"
       id="path26"
       sodipodi:nodetypes="ccccc" />
  </g>
</svg>
