<?xml version="1.0" encoding="UTF-8" standalone="no"?>
<!-- Created with Inkscape (http://www.inkscape.org/) -->

<svg
   width="612"
   height="612"
   viewBox="0 0 161.92501 161.925"
   version="1.1"
   id="svg1"
   inkscape:version="1.4.2 (f4327f4, 2025-05-13)"
   sodipodi:docname="SpawnerPic.svg"
   xmlns:inkscape="http://www.inkscape.org/namespaces/inkscape"
   xmlns:sodipodi="http://sodipodi.sourceforge.net/DTD/sodipodi-0.dtd"
   xmlns="http://www.w3.org/2000/svg"
   xmlns:svg="http://www.w3.org/2000/svg">
  <sodipodi:namedview
     id="namedview1"
     pagecolor="#505050"
     bordercolor="#eeeeee"
     borderopacity="1"
     inkscape:showpageshadow="0"
     inkscape:pageopacity="0"
     inkscape:pagecheckerboard="true"
     inkscape:deskcolor="#505050"
     inkscape:document-units="mm"
     inkscape:zoom="0.50000001"
     inkscape:cx="-7.9999998"
     inkscape:cy="-0.99999997"
     inkscape:window-width="1920"
     inkscape:window-height="1009"
     inkscape:window-x="-8"
     inkscape:window-y="430"
     inkscape:window-maximized="1"
     inkscape:current-layer="layer1" />
  <defs
     id="defs1" />
  <g
     inkscape:label="Layer 1"
     inkscape:groupmode="layer"
     id="layer1"
     style="display:inline"
     transform="matrix(0.26458333,0,0,0.26458333,-15.03138,-16.68417)">
    <rect
       style="display:inline;fill:#ffffff;stroke-width:6.479"
       id="rect1"
       width="1049.3464"
       height="854.185"
       x="-129.86465"
       y="-41.593517" />
    <g
       id="g74"
       inkscape:label="BottomCage"
       transform="matrix(5.1277836,0,0,5.1277836,-158.13812,-237.66352)">
      <path
         style="fill:#627454;fill-opacity:1;stroke:none;stroke-width:1.71424"
         d="m 143.82265,89.054206 -18.66831,12.257314 -22.02113,11.8077 20.70639,-15.178776"
         id="path51"
         sodipodi:nodetypes="cccc" />
      <path
         style="fill:#627454;fill-opacity:1;stroke:none;stroke-width:1.77005"
         d="M 59.257896,88.128164 103.10075,113.08849 79.891476,97.303687"
         id="path52"
         sodipodi:nodetypes="ccc" />
      <path
         style="fill:#627454;fill-opacity:1;stroke:none;stroke-width:1.88523"
         d="m 102.69122,170.29546 0.71238,-26.90591 -1.421,-30.35213 -2.140694,30.67111"
         id="path53"
         sodipodi:nodetypes="cccc" />
      <path
         style="fill:#627454;fill-opacity:1;stroke:none;stroke-width:1.77005"
         d="M 101.79114,63.058282 57.948276,88.018608 81.157556,72.233805"
         id="path54"
         sodipodi:nodetypes="ccc" />
      <path
         style="fill:#627454;fill-opacity:1;stroke:none;stroke-width:1.77005"
         d="M 145.3828,145.75147 101.53993,170.7118 124.74922,154.927"
         id="path55"
         sodipodi:nodetypes="ccc" />
      <path
         style="fill:#627454;fill-opacity:1;stroke:none;stroke-width:1.77005"
         d="M 100.23032,63.806637 144.07317,88.766963 120.86389,72.98216"
         id="path56"
         sodipodi:nodetypes="ccc" />
      <path
         style="fill:#627454;fill-opacity:1;stroke:none;stroke-width:1.88523"
         d="m 144.59908,147.28355 0.71238,-26.90591 -1.421,-30.352126 -2.14069,30.671106"
         id="path57"
         sodipodi:nodetypes="cccc" />
      <path
         style="fill:#627454;fill-opacity:1;stroke:none;stroke-width:1.88523"
         d="m 59.660826,146.5352 0.71238,-26.90591 -1.421,-30.352131 -2.14069,30.671111"
         id="path58"
         sodipodi:nodetypes="cccc" />
      <path
         style="fill:#627454;fill-opacity:1;stroke:none;stroke-width:1.88523"
         d="m 59.660826,146.5352 0.71238,-26.90591 -1.421,-30.352131 -2.14069,30.671111"
         id="path59"
         sodipodi:nodetypes="cccc" />
      <path
         style="fill:#627454;fill-opacity:1;stroke:none;stroke-width:1.88523"
         d="m 59.660826,146.5352 0.71238,-26.90591 -1.421,-30.352131 -2.14069,30.671111"
         id="path60"
         sodipodi:nodetypes="cccc" />
      <path
         style="fill:#627454;fill-opacity:1;stroke:none;stroke-width:1.77005"
         d="M 58.883716,145.75147 102.72658,170.7118 79.517296,154.927"
         id="path61"
         sodipodi:nodetypes="ccc" />
      <path
         style="fill:#627454;fill-opacity:1;stroke:none;stroke-width:1.71424"
         d="m 140.26797,148.52502 -1.12253,-57.038664 -43.591664,-25.631144 -3.3676,1.870884 43.404574,25.256971 1.77734,57.062043 z"
         id="path62"
         sodipodi:nodetypes="ccccccc" />
      <path
         style="fill:#627454;fill-opacity:1;stroke:none;stroke-width:1.71424"
         d="m 132.3167,152.47727 -1.21608,-56.313697 -43.591654,-25.631144 -3.3676,1.870884 43.311034,24.134439 1.87088,57.623318 z"
         id="path63"
         sodipodi:nodetypes="ccccccc" />
      <path
         style="fill:#627454;fill-opacity:1;stroke:none;stroke-width:1.71424"
         d="m 114.5646,163.25092 -1.30962,-57.43622 -43.591664,-25.631155 -3.3676,1.870884 43.404574,25.256981 1.87089,57.62331 1.36569,-0.76821 z"
         id="path64"
         sodipodi:nodetypes="cccccccc" />
      <path
         style="fill:#627454;fill-opacity:1;stroke:none;stroke-width:1.71424"
         d="m 122.44777,157.71575 -0.88867,-55.93951 -43.591654,-25.631151 -3.3676,1.870884 43.404574,25.256977 1.44993,56.1266 z"
         id="path65"
         sodipodi:nodetypes="ccccccc" />
      <path
         style="fill:#627454;fill-opacity:1;stroke:none;stroke-width:1.71424"
         d="m 64.553806,148.43492 0.31743,-55.451847 43.591654,-25.631151 3.3676,1.870884 -43.404574,25.256977 -0.87869,55.638937 z"
         id="path66"
         sodipodi:nodetypes="ccccccc" />
      <path
         style="fill:#627454;fill-opacity:1;stroke:none;stroke-width:1.71424"
         d="m 73.511356,153.06868 0.71431,-55.782568 43.591654,-25.631151 3.3676,1.870884 -43.404574,25.256977 -1.27557,55.969658 z"
         id="path67"
         sodipodi:nodetypes="ccccccc" />
      <path
         style="fill:#627454;fill-opacity:1;stroke:none;stroke-width:1.71424"
         d="m 83.139776,158.89113 1.37577,-56.17945 43.591654,-25.631148 3.3676,1.870884 -43.404574,25.256974 -1.93703,56.36654 z"
         id="path68"
         sodipodi:nodetypes="ccccccc" />
      <path
         style="fill:#627454;fill-opacity:1;stroke:none;stroke-width:1.71424"
         d="m 90.766966,163.30377 1.04504,-55.91487 43.591654,-25.631151 3.3676,1.870884 -43.404574,25.256977 -1.6063,56.10196 z"
         id="path69"
         sodipodi:nodetypes="ccccccc" />
      <path
         style="fill:#627454;fill-opacity:1;stroke:none;stroke-width:1.56396"
         d="m 143.7691,101.97892 -44.340384,25.24172 -40.41977,-22.24196 -0.10231,-3.51316 40.03914,22.26963 44.748684,-24.888726 z"
         id="path70"
         sodipodi:nodetypes="ccccccc" />
      <path
         style="fill:#627454;fill-opacity:1;stroke:none;stroke-width:1.56396"
         d="m 144.51745,136.9645 -44.34037,25.24172 -40.419774,-22.24196 -0.10231,-3.51316 40.03914,22.26963 44.748684,-24.88873 z"
         id="path71"
         sodipodi:nodetypes="ccccccc" />
      <path
         style="fill:#627454;fill-opacity:1;stroke:none;stroke-width:1.56396"
         d="m 144.51745,136.9645 -44.34037,25.24172 -40.419774,-22.24196 -0.10231,-3.51316 40.03914,22.26963 44.748684,-24.88873 z"
         id="path72"
         sodipodi:nodetypes="ccccccc" />
    </g>
    <g
       id="g29"
       inkscape:label="BaseCube">
      <path
         style="display:none;fill:#646464;fill-opacity:1;stroke:none;stroke-width:1.71424"
         d="m 58.148698,146.1078 41.53758,23.98174 43.544402,-25.14038 V 87.591076"
         id="path1" />
      <path
         style="display:none;fill:#646464;fill-opacity:1;stroke:none;stroke-width:1.71424"
         d="M 143.23149,87.638885 101.69391,63.657141 58.149511,88.797525 V 146.1556"
         id="path2" />
    </g>
    <g
       id="g73"
       style="display:inline"
       inkscape:label="TopCage"
       transform="matrix(5.1277836,0,0,5.1277836,-158.13812,-237.66352)">
      <path
         style="fill:#497527;fill-opacity:1;stroke:none;stroke-width:1.71424"
         d="M 58.371663,89.054206 77.03998,101.31152 99.061106,113.11922 78.354712,97.940444"
         id="path3"
         sodipodi:nodetypes="cccc" />
      <path
         style="fill:#497527;fill-opacity:1;stroke:none;stroke-width:1.77005"
         d="M 142.93642,88.128164 99.093564,113.08849 122.30284,97.303687"
         id="path4"
         sodipodi:nodetypes="ccc" />
      <path
         style="fill:#497527;fill-opacity:1;stroke:none;stroke-width:1.88523"
         d="m 99.503094,170.29546 -0.712375,-26.90591 1.421001,-30.35213 2.14069,30.67111"
         id="path5"
         sodipodi:nodetypes="cccc" />
      <path
         style="fill:#497527;fill-opacity:1;stroke:none;stroke-width:1.77005"
         d="M 100.40318,63.058282 144.24604,88.018608 121.03676,72.233805"
         id="path6"
         sodipodi:nodetypes="ccc" />
      <path
         style="fill:#497527;fill-opacity:1;stroke:none;stroke-width:1.77005"
         d="M 56.811516,145.75147 100.65439,170.7118 77.445096,154.927"
         id="path7"
         sodipodi:nodetypes="ccc" />
      <path
         style="fill:#497527;fill-opacity:1;stroke:none;stroke-width:1.77005"
         d="M 101.964,63.806637 58.121146,88.766963 81.330422,72.98216"
         id="path8"
         sodipodi:nodetypes="ccc" />
      <path
         style="fill:#497527;fill-opacity:1;stroke:none;stroke-width:1.88523"
         d="m 57.595232,147.28355 -0.712375,-26.90591 1.421001,-30.352126 2.14069,30.671106"
         id="path9"
         sodipodi:nodetypes="cccc" />
      <path
         style="fill:#497527;fill-opacity:1;stroke:none;stroke-width:1.88523"
         d="m 142.53349,146.5352 -0.71238,-26.90591 1.421,-30.352131 2.14069,30.671111"
         id="path10"
         sodipodi:nodetypes="cccc" />
      <path
         style="fill:#497527;fill-opacity:1;stroke:none;stroke-width:1.88523"
         d="m 142.53349,146.5352 -0.71238,-26.90591 1.421,-30.352131 2.14069,30.671111"
         id="path11"
         sodipodi:nodetypes="cccc" />
      <path
         style="fill:#497527;fill-opacity:1;stroke:none;stroke-width:1.88523"
         d="m 142.53349,146.5352 -0.71238,-26.90591 1.421,-30.352131 2.14069,30.671111"
         id="path12"
         sodipodi:nodetypes="cccc" />
      <path
         style="fill:#497527;fill-opacity:1;stroke:none;stroke-width:1.77005"
         d="M 143.3106,145.75147 99.467741,170.7118 122.67702,154.927"
         id="path13"
         sodipodi:nodetypes="ccc" />
      <path
         style="fill:#497527;fill-opacity:1;stroke:none;stroke-width:1.71424"
         d="m 61.92635,148.52502 1.122529,-57.038664 43.591661,-25.631144 3.3676,1.870884 -43.404576,25.256971 -1.77734,57.062043 z"
         id="path14"
         sodipodi:nodetypes="ccccccc" />
      <path
         style="fill:#497527;fill-opacity:1;stroke:none;stroke-width:1.71424"
         d="m 69.877618,152.47727 1.216074,-56.313697 43.591658,-25.631144 3.3676,1.870884 -43.311029,24.134439 -1.870884,57.623318 z"
         id="path15"
         sodipodi:nodetypes="ccccccc" />
      <path
         style="fill:#497527;fill-opacity:1;stroke:none;stroke-width:1.71424"
         d="M 87.62972,163.25092 88.939338,105.8147 132.531,80.183545 l 3.3676,1.870884 -43.404577,25.256981 -1.870884,57.62331 -1.365693,-0.76821 z"
         id="path17"
         sodipodi:nodetypes="cccccccc" />
      <path
         style="fill:#497527;fill-opacity:1;stroke:none;stroke-width:1.71424"
         d="m 79.746546,157.71575 0.888668,-55.93951 43.591656,-25.631151 3.3676,1.870884 -43.404571,25.256977 -1.449934,56.1266 z"
         id="path18"
         sodipodi:nodetypes="ccccccc" />
      <path
         style="fill:#497527;fill-opacity:1;stroke:none;stroke-width:1.71424"
         d="m 137.64051,148.43492 -0.31743,-55.451847 -43.591653,-25.631151 -3.3676,1.870884 43.404573,25.256977 0.87869,55.638937 z"
         id="path19"
         sodipodi:nodetypes="ccccccc" />
      <path
         style="fill:#497527;fill-opacity:1;stroke:none;stroke-width:1.71424"
         d="m 128.68296,153.06868 -0.71431,-55.782568 -43.591656,-25.631151 -3.3676,1.870884 43.404576,25.256977 1.27557,55.969658 z"
         id="path20"
         sodipodi:nodetypes="ccccccc" />
      <path
         style="fill:#497527;fill-opacity:1;stroke:none;stroke-width:1.71424"
         d="m 119.05454,158.89113 -1.37577,-56.17945 -43.591653,-25.631148 -3.3676,1.870884 43.404573,25.256974 1.93703,56.36654 z"
         id="path21"
         sodipodi:nodetypes="ccccccc" />
      <path
         style="fill:#497527;fill-opacity:1;stroke:none;stroke-width:1.71424"
         d="m 111.42735,163.30377 -1.04504,-55.91487 -43.591651,-25.631151 -3.3676,1.870884 43.404571,25.256977 1.6063,56.10196 z"
         id="path22"
         sodipodi:nodetypes="ccccccc" />
      <path
         style="fill:#497527;fill-opacity:1;stroke:none;stroke-width:1.56396"
         d="m 58.425221,101.97892 44.340379,25.24172 40.41977,-22.24196 0.10231,-3.51316 -40.03914,22.26963 -44.748687,-24.888726 z"
         id="path23"
         sodipodi:nodetypes="ccccccc" />
      <path
         style="fill:#497527;fill-opacity:1;stroke:none;stroke-width:1.56396"
         d="m 57.676866,136.9645 44.340374,25.24172 40.41977,-22.24196 0.10231,-3.51316 -40.03914,22.26963 L 57.751498,133.832 Z"
         id="path25"
         sodipodi:nodetypes="ccccccc" />
      <path
         style="fill:#497527;fill-opacity:1;stroke:none;stroke-width:1.56396"
         d="m 57.676866,136.9645 44.340374,25.24172 40.41977,-22.24196 0.10231,-3.51316 -40.03914,22.26963 L 57.751498,133.832 Z"
         id="path26"
         sodipodi:nodetypes="ccccccc" />
    </g>
    <path
       style="display:inline;fill:#8e342c;fill-opacity:1;stroke:none;stroke-width:8.29435"
       d="m 288.93507,444.38757 -43.69213,33.728 -52.65088,-30.16885 -8.43893,-59.26 40.51808,-31.27777 52.48214,30.07216 z"
       id="path27" />
    <path
       style="display:inline;fill:#8e342c;fill-opacity:1;stroke:none;stroke-width:8.29435"
       d="m 542.64284,385.71004 -43.6921,-33.72799 -52.65092,30.16892 -8.43891,59.25993 40.5181,31.27783 52.48215,-30.07222 z"
       id="path28" />
    <path
       style="display:inline;fill:#8e342c;fill-opacity:1;stroke:none;stroke-width:8.29435"
       d="m 311.51771,168.31108 -14.75887,53.18598 47.79825,37.38458 58.06644,-14.53407 13.68664,-49.32232 -47.64505,-37.26478 z"
       id="path29" />
    <path
       style="display:inline;fill:#5e221d;fill-opacity:1;stroke:none;stroke-width:6.42979"
       d="m 533.3338,394.40882 -33.87024,-26.14605 -40.81516,23.38699 -6.54184,45.93846 31.40971,24.24663 40.68435,-23.31202 z"
       id="path73" />
    <path
       style="display:inline;fill:#5e221d;fill-opacity:1;stroke:none;stroke-width:6.32711"
       d="m 320.48878,178.28026 -11.25839,40.57141 36.46156,28.5178 44.29434,-11.08693 10.4404,-37.62412 -36.34459,-28.42639 z"
       id="path75" />
    <path
       style="display:inline;fill:#5e221d;fill-opacity:1;stroke:none;stroke-width:6.11892"
       d="m 274.88409,439.80277 -32.23269,24.88192 -38.84177,-22.2563 -6.22559,-43.71741 29.89112,-23.07435 38.71731,22.18491 z"
       id="path76" />
  </g>
</svg>
