<?xml version="1.0" encoding="UTF-8" standalone="no"?>
<!-- Created with Inkscape (http://www.inkscape.org/) -->

<svg
   width="13.792939mm"
   height="28.575001mm"
   viewBox="0 0 13.792939 28.575001"
   version="1.1"
   id="svg1"
   inkscape:version="1.4.2 (f4327f4, 2025-05-13)"
   sodipodi:docname="GuardTower.svg"
   xmlns:inkscape="http://www.inkscape.org/namespaces/inkscape"
   xmlns:sodipodi="http://sodipodi.sourceforge.net/DTD/sodipodi-0.dtd"
   xmlns="http://www.w3.org/2000/svg"
   xmlns:svg="http://www.w3.org/2000/svg">
  <sodipodi:namedview
     id="namedview1"
     pagecolor="#505050"
     bordercolor="#eeeeee"
     borderopacity="1"
     inkscape:showpageshadow="0"
     inkscape:pageopacity="0"
     inkscape:pagecheckerboard="0"
     inkscape:deskcolor="#505050"
     inkscape:document-units="mm"
     inkscape:zoom="0.50835204"
     inkscape:cx="-51.145659"
     inkscape:cy="541.94727"
     inkscape:window-width="1920"
     inkscape:window-height="1009"
     inkscape:window-x="-8"
     inkscape:window-y="430"
     inkscape:window-maximized="1"
     inkscape:current-layer="layer1" />
  <defs
     id="defs1" />
  <g
     inkscape:label="Layer 1"
     inkscape:groupmode="layer"
     id="layer1"
     transform="translate(-59.333882,41.910197)">
    <path
       id="path1"
       style="fill:#3e3e3e;fill-opacity:1;stroke-width:0.182135"
       d="m 59.520775,-35.189403 v 2.437133 l 2.006182,3.428282 c 0,0 0.12886,8.355999 0,8.483132 -0.12886,0.127135 -1.602958,2.739277 -1.602958,2.739277 v 4.653163 h 5.696746 5.708991 v -4.653163 c 0,0 -1.454357,-2.612142 -1.58149,-2.739277 -0.127133,-0.127133 0,-8.483132 0,-8.483132 l 1.979278,-3.428282 v -2.437133 h -2.196538 v 1.955175 h -2.776228 v -1.25129 h -2.193629 v 1.25129 h -2.814002 v -1.955175 z"
       sodipodi:nodetypes="cccscccccscccccccccccc" />
    <path
       style="fill:#292929;fill-opacity:1;stroke-width:0.182135"
       d="m 67.214021,-15.337627 h 3.870946 v 1.686626 h -3.843296 z"
       id="path2" />
    <path
       style="fill:#525252;fill-opacity:1;stroke-width:0.182135"
       d="m 63.177177,-15.337627 h 3.870947 v 1.686626 h -3.843297 z"
       id="path3" />
    <path
       style="fill:#292929;fill-opacity:1;stroke-width:0.155464"
       d="m 60.135719,-15.365276 h 2.820262 v 1.686626 h -2.800117 z"
       id="path4" />
    <path
       style="fill:#474747;fill-opacity:1;stroke-width:0.155464"
       d="m 68.292356,-17.2731 h 2.820261 v 1.686626 h -2.800116 z"
       id="path5" />
    <path
       style="fill:#1e1e1e;fill-opacity:1;stroke-width:0.182135"
       d="m 64.117264,-17.356049 h 3.870946 v 1.686626 h -3.843296 z"
       id="path6" />
    <path
       style="fill:#292929;fill-opacity:1;stroke-width:0.182135"
       d="m 63.979016,-15.641773 h -3.870947 v -1.686626 h 3.843297 z"
       id="path7" />
    <path
       style="fill:#292929;fill-opacity:1;stroke-width:0.182135"
       d="m 70.531974,-17.577246 h -3.870946 v -1.686626 l 3.442376,-0.04147 0.45622,0.663591 z"
       id="path8"
       sodipodi:nodetypes="cccccc" />
    <path
       style="fill:#171717;fill-opacity:1;stroke-width:0.182135"
       d="m 67.545816,-19.512719 h -3.870947 v -1.686626 h 3.843297 z"
       id="path10" />
    <path
       style="fill:#5a5a5a;fill-opacity:1;stroke-width:0.12218"
       d="m 67.767013,-21.116396 h 1.741926 v 1.686625 h -1.729483 z"
       id="path11" />
    <path
       style="fill:#292929;fill-opacity:1;stroke-width:0.12218"
       d="m 61.767047,-21.199345 h 1.741925 v 1.686626 H 61.77949 Z"
       id="path12" />
    <path
       style="fill:#292929;fill-opacity:1;stroke-width:0.12218"
       d="m 64.753206,-17.521947 v -1.741926 h 1.686626 v 1.729484 z"
       id="path13" />
    <path
       style="fill:#363636;fill-opacity:1;stroke-width:0.182135"
       d="m 60.591938,-17.535772 h 3.870946 v -1.686626 l -3.442375,-0.04148 -0.456221,0.663592 z"
       id="path14"
       sodipodi:nodetypes="cccccc" />
    <path
       style="fill:#ffffff;fill-opacity:1;stroke-width:0.207114"
       d="m 67.061947,-33.08868 h -2.958509 l -0.01382,5.736342 1.410129,1.894952 1.562204,-1.859199 z"
       id="path15"
       sodipodi:nodetypes="cccccc" />
    <path
       style="fill:#ffffff;fill-opacity:1;stroke-width:0.112622"
       d="m 61.201641,-32.615437 -1.124214,-0.0086 -0.03927,4.463306 0.524601,1.478512 0.604655,-1.442084 z"
       id="path20"
       sodipodi:nodetypes="cccccc" />
    <path
       style="fill:#2d582d;fill-opacity:1;stroke-width:0.182135"
       d="m 60.301618,-13.402155 0.608291,-2.07372 c 0,0 -0.442394,-1.382481 -0.497693,-1.631328 -0.0553,-0.248846 0.608291,-2.046071 0.940087,-2.267268 0.331795,-0.221197 0.857138,-1.824874 0.912437,-2.018422 0.0553,-0.193547 -0.470043,-2.764961 -0.470043,-2.764961 l 0.470043,-2.543765 -0.663591,-2.626713 -0.442393,-2.294918 -1.43778,-1.382481 c 0,0 -0.0553,-1.354831 0.02765,-1.520728 0.08295,-0.165898 0.580642,-0.829489 0.580642,-0.829489 l -0.138248,-0.331795 -0.74654,0.525343 -0.110598,1.299532 0.165898,1.493079 0.801839,0.552992 c 0,0 0.580641,1.161284 0.608291,1.327181 0.02765,0.165898 0.414744,1.520729 0.414744,1.520729 0,0 0.387095,0.829488 0.304146,1.576028 -0.08295,0.746539 -0.414744,1.852525 -0.414744,1.963123 0,0.110598 -0.387095,0.442393 -0.02765,1.46543 0.359445,1.023035 1.299532,1.050685 0.442394,2.405516 -0.857138,1.354831 -1.686627,2.294917 -1.686627,2.294917 0,0 -0.165897,1.050686 -0.165897,1.520729 0,0.470043 -0.304146,1.769575 -0.08295,2.294918 0.221197,0.525342 0.0553,2.046071 0.0553,2.046071 z"
       id="path16" />
    <path
       style="fill:#2d582d;fill-opacity:1;stroke-width:0.0909011"
       d="m 62.071309,-13.335197 0.429342,-0.59431 c 0,0 -0.312249,-0.587905 -0.35128,-0.688227 -0.03903,-0.100321 0.429342,-0.584552 0.663528,-0.587603 0.234187,-0.003 0.604982,-0.450231 0.644013,-0.506034 0.03903,-0.0558 -0.331764,-1.082043 -0.331764,-1.082043 l 0.331764,-0.791448 -0.468373,-1.077011 -0.312248,-0.909911 -1.014808,-0.81294 c 0,0 -0.03903,-0.490633 0.01952,-0.530427 0.05855,-0.03979 0.409826,-0.161461 0.409826,-0.161461 l -0.09758,-0.148349 -0.526919,0.01662 -0.07806,0.433611 0.117094,0.564425 0.56595,0.376434 c 0,0 0.409826,0.541098 0.429342,0.605894 0.01952,0.0648 0.292733,0.630444 0.292733,0.630444 0,0 0.273217,0.380247 0.214671,0.624953 -0.05855,0.244707 -0.292733,0.560006 -0.292733,0.599036 0,0.03903 -0.273218,0.06861 -0.01952,0.510911 0.253702,0.442301 0.91723,0.664593 0.312249,0.948942 -0.604982,0.28435 -1.190448,0.428583 -1.190448,0.428583 0,0 -0.117093,0.333291 -0.117093,0.499172 0,0.165882 -0.214671,0.555735 -0.05855,0.791141 0.156125,0.235406 0.03903,0.734577 0.03903,0.734577 z"
       id="path17" />
    <path
       style="fill:#2d582d;fill-opacity:1;stroke-width:0.0909011"
       d="m 61.034821,-23.786751 -0.429341,-0.59431 c 0,0 0.312248,-0.587905 0.351279,-0.688227 0.03903,-0.100321 -0.429342,-0.584552 -0.663528,-0.587603 -0.234186,-0.003 -0.604981,-0.450231 -0.644013,-0.506034 -0.03903,-0.0558 0.331765,-1.082043 0.331765,-1.082043 l -0.331765,-0.791448 0.468373,-1.077011 0.312249,-0.909911 1.014808,-0.81294 c 0,0 0.03903,-0.490633 -0.01952,-0.530427 -0.05855,-0.03979 -0.409826,-0.161461 -0.409826,-0.161461 l 0.09758,-0.148349 0.52692,0.01662 0.07806,0.433611 -0.117093,0.564425 -0.565951,0.376434 c 0,0 -0.409826,0.541098 -0.429341,0.605894 -0.01952,0.0648 -0.292733,0.630444 -0.292733,0.630444 0,0 -0.273218,0.380247 -0.214671,0.624953 0.05855,0.244707 0.292733,0.560006 0.292733,0.599036 0,0.03903 0.273217,0.06861 0.01952,0.510911 -0.253702,0.4423 -0.91723,0.664593 -0.312248,0.948942 0.604981,0.28435 1.190447,0.428583 1.190447,0.428583 0,0 0.117093,0.333291 0.117093,0.499172 0,0.165882 0.214671,0.555735 0.05855,0.791141 -0.156124,0.235406 -0.03903,0.734577 -0.03903,0.734577 z"
       id="path18" />
    <path
       style="fill:#ffffff;fill-opacity:1;stroke-width:0.112622"
       d="m 71.98499,-33.389626 -1.124214,-0.0086 -0.03927,4.463306 0.524601,1.478512 0.604654,-1.442084 z"
       id="path19"
       sodipodi:nodetypes="cccccc" />
    <path
       style="fill:#584b2d;fill-opacity:1;stroke-width:0.230065"
       d="m 59.833597,-33.50797 c 12.199966,-5.531969 12.199966,-5.531969 12.199966,-5.531969 l -1.234815,-1.185422 -7.408886,3.803229 -2.123881,-0.839674 z"
       id="path21" />
    <path
       style="fill:#584b2d;fill-opacity:1;stroke-width:0.230065"
       d="m 70.057861,-39.336294 c -1.185423,-0.345748 -4.840474,-1.284207 -4.840474,-1.284207 l 1.037245,1.037244 c 0,0 1.185422,0.296355 1.53117,0.246963 0.345748,-0.04939 2.272059,0 2.272059,0 z"
       id="path22" />
    <path
       style="fill:#584b2d;fill-opacity:1;stroke-width:0.230065"
       d="m 69.949392,-39.688722 c 0.327654,1.190551 1.210341,4.85947 1.210341,4.85947 l -1.021327,-1.052921 c 0,0 -0.278269,-1.189798 -0.223616,-1.534754 0.05465,-0.344956 0.0346,-2.271795 0.0346,-2.271795 z"
       id="path23" />
    <path
       style="fill:#e3dbc9;fill-opacity:1;stroke-width:0.182135"
       d="m 63.110425,-37.730361 -0.442394,1.935473 2.101371,-2.294918 -3.124406,-0.857138 z"
       id="path24"
       sodipodi:nodetypes="ccccc" />
    <path
       style="fill:#69511c;fill-opacity:1;stroke-width:0.182135"
       d="m 64.299359,-38.200405 6.857103,-3.207355 0.304146,0.580642 -6.940053,2.999983 z"
       id="path25"
       sodipodi:nodetypes="ccccc" />
    <path
       style="fill:#5e5853;fill-opacity:1;stroke-width:0.182135"
       d="m 70.002415,-41.384854 3.124406,-0.525343 -2.654363,1.990772 0.663591,-1.299532 z"
       id="path26"
       sodipodi:nodetypes="ccccc" />
  </g>
</svg>
