<?xml version="1.0" encoding="UTF-8" standalone="no"?>
<!-- Created with Inkscape (http://www.inkscape.org/) -->

<svg
   width="1167.1793mm"
   height="1004.4538mm"
   viewBox="0 0 1167.1793 1004.4539"
   version="1.1"
   id="svg1"
   inkscape:version="1.4.2 (f4327f4, 2025-05-13)"
   sodipodi:docname="MushroomCircleMASK.svg"
   xmlns:inkscape="http://www.inkscape.org/namespaces/inkscape"
   xmlns:sodipodi="http://sodipodi.sourceforge.net/DTD/sodipodi-0.dtd"
   xmlns="http://www.w3.org/2000/svg"
   xmlns:svg="http://www.w3.org/2000/svg">
  <sodipodi:namedview
     id="namedview1"
     pagecolor="#505050"
     bordercolor="#eeeeee"
     borderopacity="1"
     inkscape:showpageshadow="false"
     inkscape:pageopacity="0"
     inkscape:pagecheckerboard="true"
     inkscape:deskcolor="#505050"
     inkscape:document-units="mm"
     labelstyle="default"
     inkscape:lockguides="false"
     inkscape:zoom="0.13055261"
     inkscape:cx="1290.6674"
     inkscape:cy="2830.2766"
     inkscape:window-width="1920"
     inkscape:window-height="1009"
     inkscape:window-x="-8"
     inkscape:window-y="430"
     inkscape:window-maximized="1"
     inkscape:current-layer="svg1" />
  <defs
     id="defs1" />
  <g
     id="g12"
     inkscape:label="Unused2"
     style="display:none"
     transform="translate(-749.97795,77.934855)">
    <path
       style="fill:#b9b4ac;fill-opacity:1;stroke:none;stroke-width:3.5579"
       d="m 139.55196,524.98077 -1.24539,86.25696 -23.66242,-26.83552 21.17164,57.50463 -3.73617,155.26251 16.19007,26.83552 32.38016,-3.83367 18.68085,-28.75232 2.49078,-139.92792 17.43546,-44.08686 -22.41702,15.33453 2.49078,-99.67469 z"
       id="path4" />
    <path
       style="fill:#d0553d;fill-opacity:1;stroke:none;stroke-width:3.29999"
       d="m 32.960193,480.0724 67.353437,50.1568 154.76961,-4.29913 80.25092,-31.52715 -38.69241,-63.0543 -104.61279,-32.96018 -108.911948,11.46442 z"
       id="path5" />
    <path
       style="fill:#d9d5d0;fill-opacity:1;stroke:none;stroke-width:2.38333"
       d="m 267.34378,464.30883 c 0,0 23.8046,13.45475 27.94451,14.48974 4.13994,1.03499 -23.80456,22.7696 -23.80456,22.7696 l -20.69965,-15.52473 9.31483,-19.66465 z"
       id="path6" />
    <path
       style="fill:#d9d5d0;fill-opacity:1;stroke:none;stroke-width:2.38333"
       d="m 133.71886,403.19143 c 0,0 -0.96325,27.32693 0.0272,31.47773 0.99045,4.15082 -31.18065,-10.62445 -31.18065,-10.62445 l 4.2317,-25.52617 21.74448,-0.80147 z"
       id="path7" />
    <path
       style="fill:#d9d5d0;fill-opacity:1;stroke:none;stroke-width:2.86405"
       d="m 130.30293,461.82239 c 0,0 28.01457,-17.1729 31.51531,-20.92014 3.50076,-3.74725 10.05248,38.2876 10.05248,38.2876 L 143.4907,491.8933 128.25523,470.64234 Z"
       id="path9" />
    <path
       style="fill:#d9d5d0;fill-opacity:1;stroke:none;stroke-width:2.38333"
       d="m 232.6185,405.92075 c 0,0 24.41985,12.30283 28.60447,13.13896 4.18463,0.83615 -22.69027,23.88021 -22.69027,23.88021 l -21.41728,-14.5187 8.36531,-20.08697 z"
       id="path10" />
    <path
       style="fill:#d9d5d0;fill-opacity:1;stroke:none;stroke-width:2.38333"
       d="m 57.048953,458.46006 c 0,0 25.75717,11.54976 29.13219,11.85711 3.37506,0.30736 4.90142,35.67612 4.90142,35.67612 L 65.447774,490.96342 54.427473,462.98209 Z"
       id="path11" />
    <path
       style="fill:#d9d5d0;fill-opacity:1;stroke:none;stroke-width:1.92302"
       d="m 209.62983,491.21275 c 0,0 14.41565,16.70197 17.27811,18.61552 2.86248,1.91356 -24.28094,10.8109 -24.28094,10.8109 l -11.49366,-17.42856 12.4302,-12.39877 z"
       id="path12" />
  </g>
  <g
     id="g3"
     inkscape:label="Unused1"
     style="display:none"
     transform="matrix(0.56089727,0,0,0.56089727,-855.25365,968.70647)">
    <path
       style="fill:#c19122;fill-opacity:1;stroke:none;stroke-width:2.78874"
       d="m 656.55792,155.16185 -58.15619,25.72289 -16.47759,46.90644 1.93854,59.01133 -9.69271,140.71931 -11.63124,18.15733 -14.53904,-18.15733 -4.84635,-111.97022 v -77.16866 l -18.41613,-46.90642 -83.3572,-31.77534 15.50832,-40.85399 50.40204,-9.07868 49.43276,-16.644212 53.30984,9.078652 62.03326,34.80157 z"
       id="path14" />
    <path
       style="fill:#eaa813;fill-opacity:1;stroke:none;stroke-width:1.9689"
       d="m 407.75439,333.49046 53.18407,-3.80847 22.69448,19.96927 9.75065,31.93392 35.12429,71.84868 13.14148,6.1517 8.56335,-14.01521 -17.53245,-60.94354 -14.8533,-40.99803 6.2453,-30.45394 63.01785,-41.9283 -20.72565,-17.04497 -43.54936,10.32124 -44.20168,6.0106 -42.46611,20.84157 -44.74994,37.12876 z"
       id="path13" />
    <path
       style="fill:#e7aa2f;fill-opacity:1;stroke:none;stroke-width:3.29999"
       d="m 580.39616,356.56171 12.4337,33.59952 -23.20834,52.90117 4.8611,23.87198 15.89088,-13.21507 31.18945,-44.54723 34.56457,-10.65158 -11.72907,-25.91453 -29.55008,-16.26369 z"
       id="path15" />
  </g>
  <g
     id="g27"
     transform="matrix(0.84768435,0,0,0.84768435,23.915014,785.37811)"
     inkscape:label="Mushroom8"
     style="display:none">
    <g
       id="g26"
       inkscape:label="Mushroom1"
       transform="matrix(-1.118421,0,0,0.94749281,1275.435,-531.11453)"
       style="display:inline">
      <path
         style="fill:#726355;fill-opacity:1;stroke:none;stroke-width:4.23785"
         d="m 634.46449,635.41917 54.58162,105.79247 -16.65206,87.99564 -82.33496,-14.83075 -32.37896,-133.47648 z"
         id="path25"
         inkscape:label="RightArm" />
      <path
         style="fill:#846343;fill-opacity:1;stroke:none;stroke-width:4.31636"
         d="m 694.28477,628.87503 -155.57673,89.97209 -63.73022,-16.86978 22.49302,-74.97672 61.85579,-50.6093 112.46512,-7.4977 46.86047,20.61862 z"
         id="path26" />
    </g>
    <g
       id="g1"
       inkscape:label="Mushroom1"
       transform="matrix(0.74003891,-0.20826479,0.20826479,0.74003891,-112.73889,-221.34163)"
       style="display:inline">
      <path
         style="fill:#726355;fill-opacity:1;stroke:none;stroke-width:4.23785"
         d="m 634.46449,635.41917 54.58162,105.79247 -16.65206,87.99564 -82.33496,-14.83075 -32.37896,-133.47648 z"
         id="path8"
         inkscape:label="RightArm" />
      <path
         style="fill:#846343;fill-opacity:1;stroke:none;stroke-width:4.31636"
         d="m 694.28477,628.87503 -155.57673,89.97209 -63.73022,-16.86978 22.49302,-74.97672 61.85579,-50.6093 112.46512,-7.4977 46.86047,20.61862 z"
         id="path1" />
    </g>
  </g>
  <g
     id="g15"
     style="display:none"
     inkscape:label="Mushroom7"
     transform="matrix(0.83533131,0,0,0.83533131,-368.69853,-35.377796)">
    <path
       style="fill:#635647;fill-opacity:1;stroke:none;stroke-width:3.29999"
       d="m 508.73344,642.00727 -47.29073,107.47888 12.89749,84.55006 67.35344,11.46442 47.2907,-53.02292 -4.29916,-140.43908 z"
       id="path2" />
    <path
       style="fill:#6e6f3b;fill-opacity:1;stroke:none;stroke-width:3.29999"
       d="m 606.18096,660.63692 -144.73825,-24.36188 -20.06272,-47.2907 c 0,0 81.68397,-27.228 90.28227,-27.228 8.59832,0 97.44754,32.9602 97.44754,32.9602 l 21.49579,64.48735 z"
       id="path3" />
  </g>
  <g
     id="g18"
     style="display:none"
     inkscape:label="Mushroom5"
     transform="matrix(-0.68377349,0,0,0.68377349,845.40119,-305.99645)">
    <path
       style="fill:#5b4a39;fill-opacity:1;stroke:none;stroke-width:3.29999"
       d="m 508.73344,642.00727 -47.29073,107.47888 12.89749,84.55006 67.35344,11.46442 47.2907,-53.02292 -4.29916,-140.43908 z"
       id="path17" />
    <path
       style="fill:#6f643b;fill-opacity:1;stroke:none;stroke-width:3.29999"
       d="m 606.18096,660.63692 -144.73825,-24.36188 -20.06272,-47.2907 c 0,0 81.68397,-27.228 90.28227,-27.228 8.59832,0 97.44754,32.9602 97.44754,32.9602 l 21.49579,64.48735 z"
       id="path18" />
  </g>
  <g
     id="g24"
     style="display:none"
     inkscape:label="Mushroom5"
     transform="matrix(-0.94980096,0,0,0.80464296,1322.2598,306.27348)">
    <path
       style="fill:#5b4a39;fill-opacity:1;stroke:none;stroke-width:3.29999"
       d="m 508.73344,642.00727 -47.29073,107.47888 12.89749,84.55006 67.35344,11.46442 47.2907,-53.02292 -4.29916,-140.43908 z"
       id="path23" />
    <path
       style="fill:#6f643b;fill-opacity:1;stroke:none;stroke-width:3.29999"
       d="m 606.18096,660.63692 -144.73825,-24.36188 -20.06272,-47.2907 c 0,0 81.68397,-27.228 90.28227,-27.228 8.59832,0 97.44754,32.9602 97.44754,32.9602 l 21.49579,64.48735 z"
       id="path24" />
  </g>
  <g
     id="g20"
     inkscape:label="Mushroom4"
     transform="matrix(-0.91721107,0.32994738,0.27952153,0.7770338,1319.4412,-421.78119)"
     style="display:none">
    <path
       style="fill:#726355;fill-opacity:1;stroke:none;stroke-width:4.23785"
       d="m 634.46449,635.41917 54.58162,105.79247 -16.65206,87.99564 -82.33496,-14.83075 -32.37896,-133.47648 z"
       id="path19"
       inkscape:label="RightArm" />
    <path
       style="fill:#846343;fill-opacity:1;stroke:none;stroke-width:4.31636"
       d="m 694.28477,628.87503 -155.57673,89.97209 -63.73022,-16.86978 22.49302,-74.97672 61.85579,-50.6093 112.46512,-7.4977 46.86047,20.61862 z"
       id="path20" />
  </g>
  <g
     id="g31"
     transform="matrix(1.3765235,0.2053314,-0.2053314,1.3765235,-8.3701353,-592.86471)"
     inkscape:label="Mushroom6">
    <path
       style="display:inline;fill:#ffffff;fill-opacity:1;stroke:none;stroke-width:3.29999"
       d="m 273.71291,1061.8915 -4.29916,-85.98314 -45.37826,-9.85752 -1.91245,-54.62982 78.81786,-32.96019 84.55008,22.92883 35.82628,70.21954 -68.7865,4.29916 -2.86608,90.28224 -40.00252,11.0236 z"
       id="path30"
       sodipodi:nodetypes="ccccccccccc" />
    <path
       style="fill:#ffffff;fill-opacity:1;stroke:none;stroke-width:3.44492"
       d="m 268.82212,976.13494 -65.05304,-5.35738 15.68534,-61.96222 82.27952,-34.40779 88.26349,23.93586 37.39976,73.30351 -71.80758,4.48802 z"
       id="path31"
       sodipodi:nodetypes="cccccccc" />
  </g>
  <g
     id="g36"
     transform="matrix(1.240296,0,0,1.240296,-737.01993,-780.83435)"
     inkscape:label="Mushroom3">
    <g
       id="g33"
       transform="rotate(8.4840636,1657.5624,3953.3321)">
      <path
         style="display:inline;fill:#ffffff;fill-opacity:1;stroke:none;stroke-width:3.29999"
         d="m 273.71291,1061.8915 -4.29916,-85.98314 -45.37826,-9.85752 -1.91245,-54.62982 78.81786,-32.96019 84.55008,22.92883 35.82628,70.21954 -68.7865,4.29916 -2.86608,90.28224 -40.00252,11.0236 z"
         id="path32"
         sodipodi:nodetypes="ccccccccccc" />
      <path
         style="fill:#ffffff;fill-opacity:1;stroke:none;stroke-width:3.44492"
         d="m 268.82212,976.13494 -65.05304,-5.35738 15.68534,-61.96222 82.27952,-34.40779 88.26349,23.93586 37.39976,73.30351 -71.80758,4.48802 z"
         id="path33"
         sodipodi:nodetypes="cccccccc" />
    </g>
    <g
       id="g35"
       transform="matrix(-0.62374998,0.0930427,0.0930427,0.62374998,798.63216,243.4953)">
      <path
         style="display:inline;fill:#ffffff;fill-opacity:1;stroke:none;stroke-width:3.29999"
         d="m 273.71291,1061.8915 -4.29916,-85.98314 -45.37826,-9.85752 -1.91245,-54.62982 78.81786,-32.96019 84.55008,22.92883 35.82628,70.21954 -68.7865,4.29916 -2.86608,90.28224 -40.00252,11.0236 z"
         id="path34"
         sodipodi:nodetypes="ccccccccccc" />
      <path
         style="fill:#ffffff;fill-opacity:1;stroke:none;stroke-width:3.44492"
         d="m 268.82212,976.13494 -65.05304,-5.35738 15.68534,-61.96222 82.27952,-34.40779 88.26349,23.93586 37.39976,73.30351 -71.80758,4.48802 z"
         id="path35"
         sodipodi:nodetypes="cccccccc" />
    </g>
  </g>
  <g
     id="g40"
     transform="matrix(-1.163058,0,0,1.163058,1891.1222,-315.90305)"
     inkscape:label="Mushroom1">
    <g
       id="g37"
       transform="rotate(8.4840636,1657.5624,3953.3321)"
       style="display:inline">
      <path
         style="display:inline;fill:#ffffff;fill-opacity:1;stroke:none;stroke-width:3.29999"
         d="m 273.71291,1061.8915 -4.29916,-85.98314 -45.37826,-9.85752 -1.91245,-54.62982 78.81786,-32.96019 84.55008,22.92883 35.82628,70.21954 -68.7865,4.29916 -2.86608,90.28224 -40.00252,11.0236 z"
         id="path36"
         sodipodi:nodetypes="ccccccccccc" />
      <path
         style="fill:#ffffff;fill-opacity:1;stroke:none;stroke-width:3.44492"
         d="m 268.82212,976.13494 -65.05304,-5.35738 15.68534,-61.96222 82.27952,-34.40779 88.26349,23.93586 37.39976,73.30351 -71.80758,4.48802 z"
         id="path37"
         sodipodi:nodetypes="cccccccc" />
    </g>
    <g
       id="g39"
       transform="matrix(-0.62374998,0.0930427,0.0930427,0.62374998,798.63216,243.4953)">
      <path
         style="display:inline;fill:#ffffff;fill-opacity:1;stroke:none;stroke-width:3.29999"
         d="m 273.71291,1061.8915 -4.29916,-85.98314 -45.37826,-9.85752 -1.91245,-54.62982 78.81786,-32.96019 84.55008,22.92883 35.82628,70.21954 -68.7865,4.29916 -2.86608,90.28224 -40.00252,11.0236 z"
         id="path38"
         sodipodi:nodetypes="ccccccccccc" />
      <path
         style="fill:#ffffff;fill-opacity:1;stroke:none;stroke-width:3.44492"
         d="m 268.82212,976.13494 -65.05304,-5.35738 15.68534,-61.96222 82.27952,-34.40779 88.26349,23.93586 37.39976,73.30351 -71.80758,4.48802 z"
         id="path39"
         sodipodi:nodetypes="cccccccc" />
    </g>
  </g>
  <g
     id="g21"
     transform="matrix(-1.3064303,0.19487585,0.19487585,1.3064303,958.59938,-1201.1532)"
     inkscape:label="Mushroom6">
    <path
       style="display:inline;fill:#ffffff;fill-opacity:1;stroke:none;stroke-width:3.29999"
       d="m 273.71291,1061.8915 -4.29916,-85.98314 -45.37826,-9.85752 -1.91245,-54.62982 78.81786,-32.96019 84.55008,22.92883 35.82628,70.21954 -68.7865,4.29916 -2.86608,90.28224 -40.00252,11.0236 z"
       id="path16"
       sodipodi:nodetypes="ccccccccccc" />
    <path
       style="fill:#ffffff;fill-opacity:1;stroke:none;stroke-width:3.44492"
       d="m 268.82212,976.13494 -65.05304,-5.35738 15.68534,-61.96222 82.27952,-34.40779 88.26349,23.93586 37.39976,73.30351 -71.80758,4.48802 z"
       id="path21"
       sodipodi:nodetypes="cccccccc" />
  </g>
</svg>
