<?xml version="1.0" encoding="UTF-8" standalone="no"?>
<!-- Created with Inkscape (http://www.inkscape.org/) -->

<svg
   width="57.342487mm"
   height="71.621109mm"
   viewBox="0 0 57.342487 71.621109"
   version="1.1"
   id="svg1"
   sodipodi:docname="BearGSN.svg"
   inkscape:version="1.4.2 (f4327f4, 2025-05-13)"
   xmlns:inkscape="http://www.inkscape.org/namespaces/inkscape"
   xmlns:sodipodi="http://sodipodi.sourceforge.net/DTD/sodipodi-0.dtd"
   xmlns="http://www.w3.org/2000/svg"
   xmlns:svg="http://www.w3.org/2000/svg">
  <sodipodi:namedview
     id="namedview1"
     pagecolor="#505050"
     bordercolor="#eeeeee"
     borderopacity="1"
     inkscape:showpageshadow="0"
     inkscape:pageopacity="0"
     inkscape:pagecheckerboard="0"
     inkscape:deskcolor="#505050"
     inkscape:document-units="px"
     inkscape:zoom="5.7513469"
     inkscape:cx="126.83985"
     inkscape:cy="97.455433"
     inkscape:window-width="1920"
     inkscape:window-height="1009"
     inkscape:window-x="-8"
     inkscape:window-y="430"
     inkscape:window-maximized="1"
     inkscape:current-layer="layer1"
     showguides="false" />
  <defs
     id="defs1" />
  <g
     inkscape:label="Layer 1"
     inkscape:groupmode="layer"
     id="layer1"
     transform="translate(-65.752732,-100.98606)">
    <g
       id="g8"
       inkscape:label="Backleg"
       transform="matrix(1.421319,0,0,0.91133102,-58.151325,-22.573747)">
      <path
         style="fill:#705236;fill-opacity:1;stroke-width:3.56274"
         d="m 97.34212,186.48822 -0.475799,8.60811 0.778609,6.2496 3.79939,1.92469 0.44469,-6.96665 3.89012,-8.13463 -0.57454,-3.98334 z"
         id="path7"
         sodipodi:nodetypes="cccccccc" />
      <path
         style="fill:#7d5a3c;fill-opacity:1;stroke-width:3.29999"
         d="m 97.432201,199.80169 0.03673,8.92512 4.434479,1.22427 2.02191,-1.44623 -2.23714,-1.99209 -0.17233,-6.84359 -1.962481,-2.08808 z"
         id="path8" />
    </g>
    <path
       style="fill:#705236;fill-opacity:1;stroke-width:3.69355"
       d="m 102.81008,130.83684 8.35639,-5.06016 -0.89657,-5.82653 -3.69914,2.398 -7.417209,0.29941 -0.8129,5.93951 z"
       id="path15"
       sodipodi:nodetypes="ccccccc" />
    <path
       style="display:inline;fill:#7d5a3c;fill-opacity:1;stroke-width:3.69355"
       d="m 111.04519,125.70895 4.7163,-3.84287 5.08634,-2.22413 -0.79989,-3.04039 -1.76757,-2.68813 -1.70264,2.06638 -7.81643,4.83987 -1.27282,3.48803 z"
       id="path16"
       sodipodi:nodetypes="ccccccccc"
       inkscape:transform-center-x="-5.0746083"
       inkscape:transform-center-y="-3.9035448" />
    <path
       style="fill:#523d28;fill-opacity:1;stroke-width:3.29999"
       d="m 70.261097,149.02987 -1.932157,1.93216 -1.932156,-1.65613 -0.644052,-4.69238 3.16174,-0.29644 1.911747,1.54738 z"
       id="path20"
       sodipodi:nodetypes="ccccccc" />
    <g
       id="g1"
       style="display:inline"
       transform="rotate(-48.514053,70.097146,158.66189)">
      <path
         style="display:inline;fill:#64462b;fill-opacity:1;stroke-width:3.11209"
         d="m 77.969389,149.97753 13.261119,-6.48237 19.675352,-0.116 10.67537,5.17473 3.92775,9.93681 -2.88284,7.47922 -4.45162,5.2902 -10.98577,-0.94605 -11.040995,2.19655 -10.336016,-2.00506 -8.959965,-2.94233 -2.595236,-9.57834 z"
         id="path1"
         sodipodi:nodetypes="ccccccccccccc" />
      <path
         style="display:none;fill:#ffffff;fill-opacity:1;stroke-width:3.66006"
         d="m 89.031039,147.32667 0.0999,15.2557 2.212009,-2.88112 1.301181,3.68142 2.992718,-5.92228 1.951773,5.28203 2.212009,-2.72104 2.732481,4.48172 1.82165,-5.28204 2.73249,4.32167 0.13011,-19.57023 z"
         id="path18"
         sodipodi:nodetypes="cccccccccccc" />
    </g>
    <path
       style="fill:#705236;fill-opacity:1;stroke-width:4.4493"
       d="m 70.940743,146.47609 0.730059,11.27633 0.643212,6.39238 6.496665,1.78191 0.693548,-6.96665 8.187213,-6.01448 -6.487454,-9.73643 z"
       id="path3"
       sodipodi:nodetypes="cccccccc" />
    <path
       style="fill:#705236;fill-opacity:1;stroke-width:4.96906"
       d="m 103.25309,138.97736 9.42961,-8.11616 -1.25824,-6.88031 -3.9277,1.38114 -8.369799,0.48022 -0.917308,9.52663 z"
       id="path4"
       sodipodi:nodetypes="ccccccc" />
    <path
       style="fill:#7d5a3c;fill-opacity:1;stroke-width:4.12117"
       d="m 71.538686,161.54695 1.071951,9.83595 6.916046,1.22427 3.153394,-1.44623 -3.489069,-1.99209 -0.268767,-6.84359 -3.060698,-2.08808 z"
       id="path6"
       sodipodi:nodetypes="cccccccc" />
    <path
       style="fill:#7d5a3c;fill-opacity:1;stroke-width:3.93431"
       d="m 110.24955,130.63924 5.7755,1.4536 4.27975,3.56313 1.77671,-3.09231 1.01371,-3.82313 -2.38782,-0.2055 -8.32005,-4.67388 -3.18927,1.29774 z"
       id="path9"
       sodipodi:nodetypes="ccccccccc"
       inkscape:transform-center-x="-4.9783971"
       inkscape:transform-center-y="2.8509481" />
    <g
       id="g2"
       transform="translate(18.867134,-26.283869)"
       style="display:none">
      <path
         style="fill:#5a4027;fill-opacity:1;stroke-width:4.48138"
         d="m 122.30809,150.05804 -3.82851,-5.76122 1.50969,-4.1628 3.78678,1.38832 1.80639,5.98044 -0.47354,2.75345 z"
         id="path14" />
      <path
         style="fill:#b6bdbf;fill-opacity:1;stroke-width:4.04716"
         d="m 137.97817,158.39167 -2.48247,-0.78988 -1.80543,-3.94938 -0.56419,2.14396 -0.33853,2.48246 2.5953,1.24123 3.27235,0.11283 z"
         id="path17" />
      <path
         style="fill:#705236;fill-opacity:1;stroke-width:3.73504"
         d="m 113.99311,161.2962 -2.08274,-11.2468 4.40038,-6.45778 9.84085,-0.0262 3.75064,6.66477 3.77342,4.42741 5.3078,3.03372 -1.11231,5.76476 -14.39879,0.39179 z"
         id="path2"
         sodipodi:nodetypes="cccccccccc" />
      <path
         style="fill:#5a4027;fill-opacity:1;stroke-width:3.69519"
         d="m 138.96094,157.65098 -2.22354,2.5792 1.12539,3.26777 1.92725,-2.74155 z"
         id="path11" />
      <path
         style="fill:#b6bdbf;fill-opacity:1;stroke-width:4.04716"
         d="m 135.58598,161.61193 -2.48247,-0.78988 -1.80543,-3.94938 -0.56419,2.14396 -0.33853,2.48246 2.5953,1.24123 3.27235,0.11283 z"
         id="path12" />
      <path
         style="fill:#5a4027;fill-opacity:1;stroke-width:4.52221"
         d="m 119.70168,151.25681 -2.3956,-6.55638 -4.28688,-1.26084 -1.13474,3.90861 3.78252,5.04338 2.52169,1.26083 z"
         id="path13" />
    </g>
    <path
       style="fill:#523d28;fill-opacity:1;stroke-width:3.29999"
       d="m 102.12998,104.16848 -1.28126,-1.96297 -1.985552,-1.21945 -1.401872,1.32906 -0.126283,2.691 2.193112,-0.79447 z"
       id="path19"
       sodipodi:nodetypes="ccccccc" />
    <path
       style="fill:#705236;fill-opacity:1;stroke-width:3.29999"
       d="m 93.457533,116.31044 0.449667,-5.76443 1.139492,-5.04303 5.469588,-2.71287 4.73353,3.63565 7.21772,-1.60878 1.51327,3.08361 -1.55758,6.52664 -5.33597,5.40836 -7.412907,0.85964 z"
       id="path5"
       sodipodi:nodetypes="ccccccccccc" />
    <path
       style="fill:#523d28;fill-opacity:1;stroke-width:3.29999"
       d="m 94.099047,109.82785 -1.487118,-1.812 -0.566301,-2.26026 1.688947,-0.9376 2.604535,0.68835 -1.416881,1.85293 z"
       id="path10"
       sodipodi:nodetypes="ccccccc" />
    <path
       style="fill:#3d2c1d;fill-opacity:1;stroke-width:3.4305"
       d="m 109.8933,105.32354 c 0,0 0.74126,1.79336 0.83691,1.8651 0.0956,0.0717 3.39543,0.81299 3.39543,0.81299 l -1.64988,-3.34761 z"
       id="path21" />
    <path
       id="path22"
       style="fill:#ffffff;fill-opacity:1;stroke-width:3.29999"
       d="M 93.500392 114.68083 L 85.498296 118.03153 L 82.602866 121.54449 L 85.725673 120.56884 L 85.595965 125.15564 L 90.67059 122.81315 L 93.239942 128.31101 L 98.770354 124.50504 L 99.495374 125.82124 L 102.82075 125.63055 L 103.93593 124.35569 L 106.10737 125.44141 L 107.49695 125.36183 L 109.12218 124.79029 L 109.72989 122.85398 L 107.84577 119.07229 L 93.500392 114.68083 z " />
  </g>
</svg>
