<?xml version="1.0" encoding="UTF-8" standalone="no"?>
<!-- Created with Inkscape (http://www.inkscape.org/) -->

<svg
   width="22.196123mm"
   height="28.574999mm"
   viewBox="0 0 22.196123 28.574999"
   version="1.1"
   id="svg1"
   inkscape:version="1.4.2 (f4327f4, 2025-05-13)"
   sodipodi:docname="FarmerGSN.svg"
   xmlns:inkscape="http://www.inkscape.org/namespaces/inkscape"
   xmlns:sodipodi="http://sodipodi.sourceforge.net/DTD/sodipodi-0.dtd"
   xmlns="http://www.w3.org/2000/svg"
   xmlns:svg="http://www.w3.org/2000/svg">
  <sodipodi:namedview
     id="namedview1"
     pagecolor="#505050"
     bordercolor="#eeeeee"
     borderopacity="1"
     inkscape:showpageshadow="false"
     inkscape:pageopacity="0"
     inkscape:pagecheckerboard="true"
     inkscape:deskcolor="#505050"
     inkscape:document-units="mm"
     labelstyle="default"
     inkscape:lockguides="false"
     inkscape:zoom="5.9081366"
     inkscape:cx="19.126166"
     inkscape:cy="51.369834"
     inkscape:window-width="1920"
     inkscape:window-height="1009"
     inkscape:window-x="-8"
     inkscape:window-y="430"
     inkscape:window-maximized="1"
     inkscape:current-layer="svg1"
     showgrid="false" />
  <defs
     id="defs1" />
  <path
     style="fill:#3d6f49;fill-opacity:1;stroke:none;stroke-width:0.0921511"
     d="M 0.910185,13.25973 0.525156,16.04602 1.381617,17.90991 2.851851,16.97327 2.645738,13.72462 Z"
     id="path8"
     inkscape:label="RightArm" />
  <path
     style="fill:#4d8b5c;fill-opacity:1;stroke:none;stroke-width:0.103559"
     d="M 2.726154,19.03842 2.241319,22.81516 1.551136,23.78663 0.879201,23.9727 0,22.2742 0.766741,18.72585 1.320872,16.42642 2.443922,16.6314 Z"
     id="path9"
     inkscape:label="RightforeArm"
     sodipodi:nodetypes="ccccccccc" />
  <g
     id="g29"
     inkscape:label="LeftArm"
     transform="matrix(-0.06111205,0.00838628,0.00838628,0.06111205,21.46275,0.15233)">
    <path
       style="fill:#3d6f49;fill-opacity:1;stroke:none;stroke-width:1.5875"
       d="m 158.12816,161.31287 -40.21018,-1.28998 -22.013423,13.76647 -1.235093,17.90281 15.583516,13.13402 57.77105,-10.49664 z"
       id="path10" />
    <path
       style="fill:#4d8b5c;fill-opacity:1;stroke:none;stroke-width:1.5875"
       d="m 97.214934,196.32963 c 0,-0.71653 14.151376,3.98567 21.316646,2.23915 1.74653,-6.29199 3.71698,-13.65877 4.92612,-19.46375 -1.61219,-6.34238 -4.74699,-18.42256 -4.74699,-18.42256 L 68.553897,94.04556 39.534597,93.6873 37.026756,124.49791 Z"
       id="path11"
       sodipodi:nodetypes="cccccccc"
       inkscape:label="LeftForearm" />
  </g>
  <g
     id="g19"
     inkscape:label="LeftLeg"
     transform="matrix(-0.03909307,0,0,0.06168478,17.623702,2.79382)">
    <path
       style="fill:#4d8b5c;fill-opacity:1;stroke:none;stroke-width:1.5875"
       d="m 172.77117,318.94268 -26.853,61.05258 5.06661,34.95956 63.33255,1.01332 30.90627,-36.98621 -20.26642,-80.05233 z"
       id="path13" />
    <path
       style="fill:#3d6f49;fill-opacity:1;stroke:none;stroke-width:1.5875"
       d="M 214.31733,415.96814 245.2236,378.98193 224.95718,298.9296 Z"
       id="path19"
       sodipodi:nodetypes="cccc" />
  </g>
  <g
     id="g27"
     inkscape:label="RightLeg"
     transform="matrix(-0.03532779,0,0,0.06168478,15.210783,2.75983)">
    <path
       style="fill:#4d8b5c;fill-opacity:1;stroke:none;stroke-width:1.5875"
       d="m 256.37013,321.47598 -26.853,61.05258 5.06661,34.95956 63.33255,1.01332 30.90627,-36.98621 -20.26642,-80.05233 z"
       id="path12" />
    <path
       style="fill:#3d6f49;fill-opacity:1;stroke:none;stroke-width:1.5875"
       d="m 297.91629,418.50144 30.90627,-36.98621 -20.26642,-80.05233 c -4.95466,62.29361 -10.63985,117.03854 -10.63985,117.03854 z"
       id="path21"
       sodipodi:nodetypes="cccc" />
  </g>
  <g
     id="g15"
     inkscape:label="Body"
     transform="matrix(0.06168478,0,0,0.06168478,-3.174879,2.87178)">
    <path
       style="display:inline;fill:#ffffff;fill-opacity:1;stroke:none;stroke-width:1.5875"
       d="m 209.80504,110.34499 -20.06272,2.14958 -41.91677,-3.58263 -41.5585,-11.106152 -35.468043,22.570572 -7.52352,49.08203 32.24367,21.85403 22.009303,60.98042 -6.22554,59.84113 29.71564,15.31837 64.84559,4.65743 44.38423,-13.12534 c 0,0 -20.45286,-81.14212 -20.45286,-82.93343 0,-1.79133 28.01676,-49.75426 28.01676,-49.75426 l 4.29916,-10.74788 10.03136,-12.89747 c 0,0 9.72091,-17.0057 10.03137,-19.52534 -1.68452,-3.53295 -11.28529,-29.37756 -11.28529,-29.37756 L 240.25739,103.0006 Z"
       id="path7"
       sodipodi:nodetypes="ccccccccccccsccccccc"
       inkscape:label="MainBody" />
    <path
       style="display:inline;fill:#cfcfcf;fill-opacity:1;stroke:none;stroke-width:1.5875"
       d="m 227.53906,106.04584 -16.12183,3.94089 -21.85404,2.32871 -42.45416,-3.58263 -30.27323,-8.24005 -10.927,-2.866102 -9.852233,7.165262 15.405313,17.01749 39.22977,15.76357 30.41525,10.26033 38.26477,-4.60606 11.37158,-21.83757 z"
       id="path15"
       sodipodi:nodetypes="ccccccccccccc"
       inkscape:label="NeckShadow" />
    <g
       id="g28"
       inkscape:label="Cloth"
       style="display:none"
       transform="matrix(-1,0,0,1,422.61325,0)">
      <path
         style="display:none;fill:#ffffff;fill-opacity:1;stroke:none;stroke-width:1.67169"
         d="m 354.89586,121.82869 -37.75604,-26.712893 -11.11291,3.623084 -26.06837,30.650999 -26.06838,30.651 -84.65951,-20.62897 -29.21094,1.14534 0.91186,12.14035 23.06441,33.05527 c 0,0 -11.23789,39.39862 -13.34496,45.20878 -0.7771,3.53018 7.50935,29.34375 7.50935,29.34375 l 14.48496,59.75009 44.44892,-6.84766 28.87965,-25.07969 22.03972,-36.47954 40.53283,-33.43958 12.66652,-23.55971 30.01961,-26.09301 8.23324,-28.87964 z"
         id="path14"
         sodipodi:nodetypes="cccccccccccccccccccc"
         inkscape:label="Rag" />
      <path
         style="fill:#dedede;fill-opacity:1;stroke:none;stroke-width:1.67169"
         d="m 354.89586,121.82869 c -6.01831,8.96749 -11.61371,20.33042 -17.21274,30.38538 -9.24587,5.50299 -19.32914,14.14722 -28.31705,22.12654 -15.44251,18.2386 -27.32947,40.94702 -46.60076,54.79373 -8.26101,3.03673 -23.09058,21.0279 -26.25511,25.41217 -8.37318,11.60056 -15.225,23.29773 -16.61865,26.36023 -11.68643,18.22513 -33.09316,28.19524 -47.24622,39.14875 l 44.44892,-6.84766 28.87965,-25.07969 22.03972,-36.47954 40.53283,-33.43958 12.66652,-23.55971 30.01961,-25.83968 8.23324,-29.13297 z"
         id="path18"
         sodipodi:nodetypes="ccccscccccccccc"
         inkscape:label="RagLowerShadow" />
      <path
         style="fill:#dfdfdf;fill-opacity:1;stroke:none;stroke-width:1.67169"
         d="m 304.22802,118.68007 1.63861,-20.01765 -6.28845,7.24172 -19.61964,23.48574 -6.01247,7.01246 19.18081,-5.55367 z"
         id="path30"
         sodipodi:nodetypes="ccccccc"
         inkscape:label="RagUpperShadow" />
    </g>
    <path
       style="display:inline;fill:#cfcfcf;fill-opacity:1;stroke:none;stroke-width:1.5875"
       d="m 95.519157,191.31242 21.424813,60.59076 -5.64105,60.23079 29.71564,15.31837 64.84559,4.65743 44.38423,-13.12534 c -18.1803,0.17795 -45.6544,0.69061 -52.90033,-3.49284 -15.21618,-4.84141 -38.14648,-14.97836 -46.52043,-16.99457 -7.65742,-6.4945 -4.23297,-29.45455 -11.91796,-42.56546 -4.63976,-10.60307 -32.90044,-49.92576 -43.390503,-64.61914 z"
       id="path20"
       sodipodi:nodetypes="cccccccccc"
       inkscape:label="MainBodyShadow" />
  </g>
  <g
     id="g6"
     inkscape:label="Face"
     transform="matrix(-0.06018956,0.01349923,0.01349923,0.06018956,15.791692,-2.75855)"
     style="display:inline">
    <g
       id="g30"
       inkscape:label="Face"
       style="display:inline">
      <path
         style="fill:#4d8b5c;fill-opacity:1;stroke:none;stroke-width:1.5875"
         d="m 134.97097,130.36011 -11.3353,12.72798 c 0,0 -2.09472,15.77387 -1.42251,23.63917 0.53256,6.23127 4.28861,18.26523 4.28861,18.26523 0,0 8.89574,5.03027 13.08873,5.89481 4.193,0.86453 17.6555,0.7877 21.05684,0.60485 20.98847,-1.1283 57.21661,-19.22764 57.21661,-19.22764 l 8.61322,-39.01284 c 0,0 -1.9882,-19.81898 -4.55994,-34.452902 0.44297,-11.778018 -4.72195,-28.349032 -4.75926,-27.714835 l -14.23305,-15.130885 -36.908,-0.803455 -31.64828,15.435137 -6.51329,13.188085 4.85365,17.497785 z"
         id="path1"
         sodipodi:nodetypes="ccacsscccccccccc"
         inkscape:label="MainFace" />
      <path
         style="display:inline;fill:#3d6f49;fill-opacity:1;stroke:none;stroke-width:1.5875"
         d="m 205.34983,157.57136 c 0,0 -8.42665,6.44004 -23.87247,16.30571 -2.80036,5.40073 -5.14072,8.59191 -5.1116,15.21109 18.7085,-5.81491 41.49819,-16.82365 41.49819,-16.82365 l 8.61322,-39.01284 z"
         id="path27"
         sodipodi:nodetypes="cccccc"
         inkscape:label="MainFaceShaodw" />
    </g>
    <path
       style="display:inline;fill:#3d6f49;fill-opacity:1;stroke:none;stroke-width:1.5875"
       d="m 148.12463,96.610055 3.35494,0.850862 -0.43681,4.425393 -5.02856,2.62564 -10.48149,3.18906 -0.59494,-1.39554 -1.32424,-3.04707 z"
       id="path25"
       inkscape:label="LeftEyebrowShadow"
       sodipodi:nodetypes="cccccccc" />
    <path
       style="fill:#505451;fill-opacity:1;stroke:none;stroke-width:1.5875"
       d="m 116.34912,105.43974 5.61073,-8.622421 24.50407,-1.181056 0.44721,5.203347 -21.48194,7.64314 z"
       id="path2"
       inkscape:label="LeftEyebrow" />
    <path
       style="display:inline;fill:#3d6f49;fill-opacity:1;stroke:none;stroke-width:1.5875"
       d="m 156.27441,96.110301 -3.37301,0.776089 0.33834,4.43401 4.96896,2.73674 10.40802,3.42123 3.56288,-0.89417 -1.54543,-3.50468 z"
       id="path26"
       inkscape:label="RightEyebrowShadow"
       sodipodi:nodetypes="cccccccc" />
    <path
       style="fill:#505451;fill-opacity:1;stroke:none;stroke-width:1.5875"
       d="m 184.46151,105.38987 -5.48314,-8.704105 -24.48403,-1.541782 -0.52379,5.196207 21.36706,7.95865 z"
       id="path3"
       inkscape:label="RightEyebrow" />
    <path
       style="fill:#3d6f49;fill-opacity:1;stroke:none;stroke-width:1.36297"
       d="m 158.50138,123.87976 -1.9575,2.82749 5.98124,4.24124 18.48744,-1.305 4.1325,-3.80624 -3.6975,-4.34999 z"
       id="path16"
       inkscape:label="RightEyeShadow"
       sodipodi:nodetypes="ccccccc" />
    <path
       style="fill:#6f7171;fill-opacity:1;stroke:none;stroke-width:1.4295"
       d="m 156.05139,117.3111 18.47747,-7.75598 7.07163,5.70292 1.82492,10.49338 -15.28383,3.19364 c 0,0 -9.35279,-0.45623 -9.35279,-2.50929 0,-2.05305 -2.7374,-9.12467 -2.7374,-9.12467 z"
       id="path4"
       inkscape:label="RightEye" />
    <path
       style="display:inline;fill:#3d6f49;fill-opacity:1;stroke:none;stroke-width:1.5875"
       d="m 152.9656,123.67224 1.39331,3.67329 -8.32823,4.90827 -12.44214,-0.35564 1.38355,-1.54477 -0.26304,-3.31196 z"
       id="path17"
       inkscape:label="LeftEyeShadow"
       sodipodi:nodetypes="ccccccc" />
    <path
       style="fill:#6f7171;fill-opacity:1;stroke:none;stroke-width:1.48309"
       d="m 134.02084,110.24097 c 1.17749,0.1175 15.59906,6.07992 15.59906,6.07992 l 3.04001,10.05493 -7.95895,3.487 -8.76226,-2.01652 -2.65055,-10.19381 z"
       id="path5"
       sodipodi:nodetypes="ccccccc"
       inkscape:label="LeftEye" />
    <path
       style="display:inline;fill:#393b3b;fill-opacity:1;stroke:none;stroke-width:1.40276"
       d="m 136.11123,127.85726 -1.58565,-5.99166 3.68294,-5.00915 5.06512,1.42456 3.08656,4.59027 -1.28607,4.53091 -3.75927,1.62242 z"
       id="path23"
       sodipodi:nodetypes="cccccccc"
       inkscape:label="LeftIris" />
    <g
       id="g26"
       inkscape:label="Mouth">
      <path
         style="fill:#3d6f49;fill-opacity:1;stroke:none;stroke-width:1.5875"
         d="m 128.02471,157.90542 13.50519,0.96334 15.54753,-3.31394 3.54135,4.89756 -3.7488,3.56758 -2.03883,-3.58899 -25.57625,0.81279 -2.61171,5.46768 -2.92587,-4.18088 z"
         id="path22"
         sodipodi:nodetypes="cccccccccc"
         inkscape:label="Mouth" />
      <path
         style="display:inline;fill:#3d6f49;fill-opacity:1;stroke:none;stroke-width:1.5875"
         d="m 138.05078,187.35311 c -0.63332,-1.39332 -2.15331,-6.58659 -2.15331,-6.58659 l 3.92662,-4.81327 0.88666,4.68661 z"
         id="path31"
         inkscape:label="Chin" />
    </g>
    <path
       style="display:inline;fill:#393b3b;fill-opacity:1;stroke:none;stroke-width:1.40472"
       d="m 163.21823,126.91555 -0.94663,-6.12372 3.68808,-5.01616 5.0722,1.42656 3.09088,4.59668 0.12708,4.66573 -5.29836,1.96376 z"
       id="path24"
       sodipodi:nodetypes="cccccccc"
       inkscape:label="LeftIris" />
    <path
       style="fill:#3d6f49;fill-opacity:1;stroke:none;stroke-width:1.5875"
       d="m 203.99301,107.98811 8.61322,-12.919839 12.53986,-10.006542 3.92662,20.139751 -6.0031,11.47778 -2.40554,11.55989 -12.57322,0.37999 1.72877,-10.75116 z"
       id="path32"
       sodipodi:nodetypes="ccccccccc"
       inkscape:label="Ear" />
    <path
       style="fill:#86512b;fill-opacity:1;stroke-width:0.659187"
       d="m 226.44071,121.58651 -18.02174,12.07944 -11.49495,15.00188 c 0,0 -9.35183,6.03972 -10.13114,6.42938 -0.77933,0.38965 -13.05359,2.72761 -13.05359,2.72761 l -9.54666,-8.5725 -24.93819,-1.55864 -16.17086,3.70177 -2.14313,2.53278 -2.33796,9.74148 1.36381,16.36569 11.88462,16.75536 25.91234,2.33795 31.17274,-10.71563 30.1986,-14.41739 3.89659,-16.95018 c 0,0 6.62421,-13.24842 6.42938,-14.61223 -0.19483,-1.36381 -3.01986,-20.84677 -3.01986,-20.84677 z"
       id="path6"
       inkscape:label="Beard"
       sodipodi:nodetypes="cccsccccccccccccsc" />
  </g>
  <g
     id="g31"
     inkscape:label="Hat"
     transform="matrix(0.02372008,0,0,0.02372008,-0.510607,3.05929)">
    <path
       style="display:inline;fill:#bba43b;fill-opacity:1;stroke-width:1.71424"
       d="M 88.36696,35.535606 182.68358,80.24493 306.01998,86.104959 518.39183,-10.102788 414.75684,-77.366999 95.97329,26.839013 Z"
       id="path28" />
    <path
       style="fill:#a38e33;fill-opacity:1;stroke-width:1.71424"
       d="m 421.20479,-28.040963 c -7.24005,0.988062 -94.41039,-93.200627 -94.41039,-93.200627 l -108.91588,27.060886 -51.27645,114.784674 89.84477,9.863397 97.71513,-15.604562 z"
       id="path29" />
  </g>
  <path
     style="fill:#86512b;fill-opacity:1;stroke-width:0.0406618"
     d="m 15.975564,2.95731 1.801583,3.43321 -0.135969,3.94308 -1.2917,7.20633 -0.06798,2.88933 0.883794,0.4079 0.781819,-1.56364 -0.203953,-1.93755 0.951779,-7.03636 L 18.898889,6.32253 22.196124,2.85534 19.374779,4.52095 19.000866,0 18.185056,4.35099 Z"
     id="path33"
     inkscape:label="Cultivator" />
</svg>
