<?xml version="1.0" encoding="UTF-8" standalone="no"?>
<!-- Created with Inkscape (http://www.inkscape.org/) -->

<svg
   width="272.9635mm"
   height="285.75mm"
   viewBox="0 0 272.9635 285.75"
   version="1.1"
   id="svg1"
   inkscape:version="1.4.2 (f4327f4, 2025-05-13)"
   sodipodi:docname="FireDragon.svg"
   xmlns:inkscape="http://www.inkscape.org/namespaces/inkscape"
   xmlns:sodipodi="http://sodipodi.sourceforge.net/DTD/sodipodi-0.dtd"
   xmlns:xlink="http://www.w3.org/1999/xlink"
   xmlns="http://www.w3.org/2000/svg"
   xmlns:svg="http://www.w3.org/2000/svg">
  <sodipodi:namedview
     id="namedview1"
     pagecolor="#505050"
     bordercolor="#eeeeee"
     borderopacity="1"
     inkscape:showpageshadow="0"
     inkscape:pageopacity="0"
     inkscape:pagecheckerboard="true"
     inkscape:deskcolor="#505050"
     inkscape:document-units="mm"
     inkscape:zoom="0.5"
     inkscape:cx="16"
     inkscape:cy="797"
     inkscape:window-width="1920"
     inkscape:window-height="1009"
     inkscape:window-x="-8"
     inkscape:window-y="430"
     inkscape:window-maximized="1"
     inkscape:current-layer="layer1" />
  <defs
     id="defs1">
    <color-profile
       name="Agfa-:-Swop-Standard"
       xlink:href="file:///C:/WINDOWS/system32/spool/drivers/color/RSWOP.icm"
       id="color-profile1" />
  </defs>
  <g
     inkscape:label="Layer 1"
     inkscape:groupmode="layer"
     id="layer1"
     transform="matrix(1.0738462,0,0,1.0738462,6.8504352,24.376113)">
    <path
       style="fill:#9c9c9c;fill-opacity:1;stroke-width:1.7222"
       d="m 60.665149,76.373408 -7.532484,1.660623 -9.659454,5.912754 -3.178777,8.610102 -2.751288,-7.504602 1.0145,-2.936248 1.927323,-6.93808 7.83268,-4.975797 7.696982,-1.712606 2.481723,-0.657785 z"
       id="path33-1"
       sodipodi:nodetypes="ccccccccccc" />
    <path
       style="fill:#9c9c9c;fill-opacity:1;stroke-width:2.70569"
       d="m 78.953013,110.60059 -12.09198,0.79645 -16.40181,6.89719 -5.126914,11.71262 -2.497,-12.3068 0.422663,-3.41259 4.635434,-10.31963 13.342832,-5.874313 12.359771,-0.83825 3.658944,-1.19078 z"
       id="path18-1"
       sodipodi:nodetypes="ccccccccccc" />
    <path
       style="display:inline;fill:#9c9c9c;fill-opacity:1;stroke-width:2.70569"
       d="m 184.10962,164.44742 9.49104,-7.57948 5.73355,-12.74337 -0.84018,-12.5666 13.21535,5.73355 0.23095,4.98574 -0.64997,10.0335 -5.36538,12.08922 -5.94175,4.8914 -2.67106,0.90381 z"
       id="path7-5"
       sodipodi:nodetypes="ccccccccccc" />
    <path
       style="display:none;fill:#3d404f;fill-opacity:1;stroke-width:1.7222"
       d="m 60.665046,76.373118 -7.532484,1.660623 -9.659454,5.912754 -3.178777,8.610099 -2.751288,-7.504599 1.0145,-2.936248 1.927323,-6.93808 7.83268,-4.975797 7.696982,-1.712606 2.481723,-0.657785 z"
       id="path33"
       sodipodi:nodetypes="ccccccccccc" />
    <path
       style="display:none;fill:#918c8c;fill-opacity:1;stroke-width:1.71424"
       d="m 20.632007,43.057882 c -0.07188,-0.556644 -2.027018,-10.585174 -1.647003,-11.294491 0.380017,-0.709313 4.317562,-11.12143 4.317562,-11.12143 l 10.333357,-6.899191 -6.158521,6.36013 -3.063579,11.336801 5.484131,16.175323 z"
       id="path20"
       sodipodi:nodetypes="cscccccc" />
    <path
       style="display:none;fill:#3d404f;fill-opacity:1;stroke-width:2.70569"
       d="m 78.95291,110.6003 -12.09198,0.79645 -16.40181,6.89719 -5.126914,11.71262 -2.497,-12.3068 0.422663,-3.41259 4.635434,-10.31963 13.342832,-5.874315 12.359771,-0.838252 3.658944,-1.190778 z"
       id="path18"
       sodipodi:nodetypes="ccccccccccc" />
    <g
       id="g17"
       inkscape:label="RightFrontLeg"
       style="display:inline"
       transform="matrix(-0.96326158,0.39009403,0.39009403,0.96326158,39.870542,-17.515879)">
      <path
         style="display:inline;fill:#79441f;fill-opacity:1;stroke-width:1.71971"
         d="m 29.247254,154.52832 2.588033,28.43624 -3.921313,8.50031 20.864987,15.62781 9.501336,4.92573 -3.184269,16.75132 12.169148,-13.2337 -3.900244,-13.48927 -14.435748,-7.68399 -3.741611,-12.00476 9.469944,-18.40029 -7.146263,-12.3506 z"
         id="path16"
         sodipodi:nodetypes="ccccccccccccc" />
    </g>
    <path
       style="display:inline;fill:#79441f;fill-opacity:1;stroke-width:1.68547"
       d="m 148.31509,124.11239 6.59938,10.06073 5.63898,11.45238 -2.61075,18.6556 -7.39524,15.23086 10.80058,4.8878 9.11753,-2.2343 0.63246,3.68689 -14.34035,28.15696 -1.73843,8.77496 -4.55717,-12.0019 5.33341,-16.22692 -19.11123,-2.83413 -12.81575,-16.58947 -0.38602,-18.78377 1.71045,-14.04603 z"
       id="path12"
       sodipodi:nodetypes="ccccccccccccccccc" />
    <g
       id="g9"
       inkscape:label="LeftFrontLeg"
       transform="matrix(0.90893321,0,0,0.90893321,15.759552,4.9368683)"
       style="display:none">
      <path
         style="fill:#4f3d3d;fill-opacity:1;stroke-width:1.9367"
         d="m 15.519644,148.80331 10.260179,33.4007 -2.262378,17.45619 20.000013,11.23801 46.757324,2.81501 -9.271566,-16.22702 -15.544865,0.42358 -17.709317,-5.05594 -6.952344,-12.33686 6.08733,-22.49638 z"
         id="path8"
         sodipodi:nodetypes="ccccccccccc" />
      <path
         style="fill:#4f3d3d;fill-opacity:1;stroke-width:1.9367"
         d="m 80.867282,197.37187 5.878639,31.41369 6.053247,4.07452 7.094333,-3.18159 -17.516323,-30.87078 z"
         id="path9" />
    </g>
    <path
       style="display:none;fill:#4f3d3d;fill-opacity:1;stroke-width:1.71764"
       d="m 58.551553,136.49838 11.589891,29.69644 8.262645,5.08571 -12.533719,23.52965 -6.522758,8.60708 9.034129,14.81987 -15.626711,-7.77778 -1.589834,-14.56566 9.835805,-13.26961 -1.176905,-13.07288 -15.175612,-13.84734 z"
       id="path10"
       sodipodi:nodetypes="cccccccccccc" />
    <path
       style="display:inline;fill:#79441f;fill-opacity:1;stroke-width:2.29631"
       d="M 84.520439,114.0371 88.727975,88.179199 84.498108,55.604252 71.503822,37.261496 77.233291,23.069874 129.14547,-21.94229 l 22.60427,-0.757528 -11.07107,11.986416 -0.70356,15.4904039 8.9312,9.5941581 12.79141,3.168024 -10.75541,12.892846 -6.45778,16.477979 9.50166,6.854585 12.63358,2.714816 -15.72044,16.146492 -18.97408,11.18142 -15.7363,26.315588 z"
       id="path4" />
    <path
       style="display:none;fill:#3d404f;fill-opacity:1;stroke-width:2.70569"
       d="m 184.10952,164.44713 9.49104,-7.57948 5.73355,-12.74337 -0.84018,-12.5666 13.21535,5.73355 0.23095,4.98574 -0.64997,10.0335 -5.36538,12.08922 -5.94175,4.8914 -2.67106,0.90381 z"
       id="path7"
       sodipodi:nodetypes="ccccccccccc" />
    <g
       id="g23"
       inkscape:label="Body"
       style="display:inline">
      <path
         style="fill:#9a6a45;fill-opacity:1;stroke-width:1.71424"
         d="m 68.618853,112.83305 36.158617,-4.65742 37.45626,9.5671 28.50155,2.65279 15.0779,34.95959 -7.52353,15.40531 -17.55488,15.76357 -29.0193,-21.85404 -14.45501,-7.98248 -14.1075,9.62804 -29.382512,-0.63504 -26.743705,-15.71409 -1.240386,-23.21782 z"
         id="path2"
         sodipodi:nodetypes="cccccccccccccc" />
      <path
         style="fill:#9a6a45;fill-opacity:1;stroke-width:1.71424"
         d="m 170.48937,120.28501 29.27883,10.7616 40.07422,41.89027 7.9706,30.49249 -3.36992,21.08341 -9.08026,2.0582 3.87423,-19.4923 -15.55573,-27.74081 -30.93521,-13.66519 -25.90903,8.9592 z"
         id="path14"
         sodipodi:nodetypes="ccccccccccc" />
    </g>
    <path
       style="display:inline;fill:#ae6331;fill-opacity:1;stroke-width:2.62776"
       d="m 89.558627,121.60479 14.278763,-26.360786 7.68857,-36.795255 -7.13938,-24.713232 11.53283,-13.180392 73.04133,-29.1066981 24.71324,7.68856403 -16.47549,8.78692367 -6.5902,16.4754924 6.04103,13.729575 12.63121,8.237744 -16.47551,9.885289 -13.18039,15.377127 7.68857,10.983655 12.6312,7.688553 -23.06567,11.53286 -24.71324,4.94265 -26.90997,22.51649 z"
       id="path3"
       sodipodi:nodetypes="ccccccccccccccccccc" />
    <path
       style="display:inline;fill:#9a6a45;fill-opacity:1;stroke-width:1.71424"
       d="M 47.820181,125.18397 42.814759,90.50544 31.918443,69.19709 27.903832,64.14152 34.187313,44.474439 50.07897,57.090074 81.557217,113.62985 Z"
       id="path13"
       sodipodi:nodetypes="cccccccc" />
    <g
       id="g24"
       inkscape:label="UndersScales">
      <path
         style="fill:#b4b4b4;fill-opacity:1;stroke-width:1.71424"
         d="m 152.01459,179.68381 -17.93833,-13.20535 -16.8158,-9.79099 -14.1075,9.62804 -29.382512,-0.63504 -26.743705,-15.71409 -1.18146,-22.17942 37.37761,26.59203 19.277547,0.48398 14.95732,-4.71139 20.25716,15.01591 z"
         id="path21"
         sodipodi:nodetypes="cccccccccccc" />
      <path
         style="fill:#b4b4b4;fill-opacity:1;stroke-width:1.71424"
         d="m 45.928947,129.23313 -0.126129,-2.1381 1.097569,-3.21298 -4.646894,-33.563699 -10.896316,-21.30835 -4.014611,-5.05557 1.419176,-5.448342 9.811275,14.486521 7.682474,13.620451 3.940699,13.713999 4.493859,36.63474 z"
         id="path23"
         sodipodi:nodetypes="cccccccccccc" />
      <path
         style="display:inline;fill:#b4b4b4;fill-opacity:1;stroke-width:1.71424"
         d="m 172.34145,165.79334 21.60592,-4.84881 33.45963,16.75485 13.57225,28.31438 -2.68576,18.95069 -15.7641,18.43529 12.83345,-16.82876 3.87423,-19.4923 -15.55573,-27.74081 -30.93521,-13.66519 -25.90903,8.9592 z"
         id="path22"
         sodipodi:nodetypes="cccccccccccc" />
    </g>
    <path
       style="display:inline;fill:#7d7979;fill-opacity:0.65;stroke-width:1.71424"
       d="m 171.28312,169.10063 21.60592,-4.84881 32.79817,14.50589 14.30455,27.33354 -2.93567,14.77605 -1.69325,5.70368 3.87423,-19.4923 -15.55573,-27.74081 -30.93521,-13.66519 -25.90903,8.9592 z"
       id="path28"
       sodipodi:nodetypes="ccccccccccc" />
    <path
       style="display:inline;fill:#545454;fill-opacity:0.65;stroke-width:1.71424"
       d="m 31.357177,69.010001 -4.014611,-5.05557 12.400525,-6.636553 0.233091,18.293973 z"
       id="path29"
       sodipodi:nodetypes="ccccc" />
    <path
       style="display:inline;fill:#7f7676;fill-opacity:0.65;stroke-width:1.71424"
       d="m 152.01459,179.68381 -17.93833,-13.20535 -16.8158,-9.79099 -14.1075,9.62804 -29.382512,-0.63504 -26.743705,-15.71409 -0.453856,-7.85885 6.926362,7.80932 28.665311,11.73818 21.39421,1.01315 13.36982,-8.01868 19.99258,12.50236 z"
       id="path25"
       sodipodi:nodetypes="ccccccccccccc" />
    <g
       id="g8"
       inkscape:label="RightFrontLeg"
       style="display:inline"
       transform="matrix(-1,0,0,1,110.54373,-10.930733)">
      <path
         style="display:inline;fill:#ae8258;fill-opacity:1;stroke-width:1.9367"
         d="m 24.450134,154.89692 2.914593,32.02434 -4.416107,9.57288 23.497742,17.59973 10.700219,5.54727 -3.586062,18.86501 13.704657,-14.90354 -4.392379,-15.19135 -16.257257,-8.65356 -4.21373,-13.51953 10.664867,-20.72205 -8.047982,-13.909 z"
         id="path5"
         sodipodi:nodetypes="ccccccccccccc" />
      <path
         style="display:none;fill:#8c7a7a;fill-opacity:1;stroke-width:1.9367"
         d="m 25.020801,162.86424 2.343926,24.05702 -4.416107,9.57288 23.497742,17.59973 10.700219,5.54727 -3.586062,18.86501 13.704657,-14.90354 -4.392379,-15.19135 -16.257257,-8.65356 -4.21373,-13.51953 10.664867,-20.72205 -8.047982,-13.909 -12.622889,1.08363 z"
         id="path15"
         sodipodi:nodetypes="cccccccccccccc" />
    </g>
    <path
       style="display:inline;fill:#545454;fill-opacity:0.65;stroke-width:1.9367"
       d="m 26.133977,189.55769 -3.185357,6.93645 23.497742,17.59973 -7.63603,-11.02888 -9.240814,-8.36015 z"
       id="path30"
       sodipodi:nodetypes="cccccc"
       transform="matrix(-1,0,0,1,110.54373,-10.930733)" />
    <path
       style="display:inline;fill:#d2a366;fill-opacity:1;stroke-width:1.59635"
       d="m 18.226696,42.471678 -2.239348,-7.954937 1.687417,0.829955 0.03274,-8.789138 1.132349,1.501326 1.682734,-7.286319 1.698097,0.718685 1.239419,-3.656684 2.013568,-3.336338 1.488129,2.643184 3.898668,-8.4751449 2.05378,4.6932409 1.157179,-2.151563 1.446377,4.812716 -1.95172,2.907518 -1.75243,1.094289 -2.619922,1.733417 -1.411452,2.732537 -2.945547,5.476705 -0.625895,2.534294 1.685326,6.027525 1.190486,-1.474114 0.879596,1.935207 -0.64473,2.172574 -0.458183,2.99791 1.658994,-1.100897 -2.197922,5.204717 z"
       id="path40"
       sodipodi:nodetypes="cccccccccccccccccccccccccccc" />
    <path
       style="display:inline;fill:#cd622f;fill-opacity:1;stroke-width:1.59635"
       d="m 18.290874,40.605256 -1.315229,-4.802165 2.496051,1.07249 0.576195,-7.758315 2.175662,6.41235 1.144182,-1.147004 1.358504,4.074319 0.468543,3.054096 0.314834,2.21954 -0.733243,2.78585 z"
       id="path44"
       sodipodi:nodetypes="ccccccccccc" />
    <path
       d="M 25.488528,67.260159 6.1695026,76.082346 -1.822268,73.422228 3.4054949,67.657041 14.736893,65.860351 24.468487,60.14167 17.445586,58.207553 7.5682753,62.909313 0.59498441,63.735578 -2.8903651,67.175464 -6.3793448,62.140441 -3.6210403,57.248025 0.39913881,58.74756 13.670773,48.447833 l 6.733843,-11.994708 17.04994,3.65452 5.228763,11.234059 -4.654315,10.539536"
       style="display:inline;fill:#a76838;fill-opacity:1;stroke-width:1.71424"
       id="path1"
       sodipodi:nodetypes="cccccccccccccccccc" />
    <path
       style="display:inline;fill:#ae8258;fill-opacity:1;stroke-width:1.83219"
       d="m 172.30308,139.74699 8.66334,12.04292 1.55314,14.52028 -10.7868,16.42963 -13.86875,10.36632 8.21852,10.95308 9.75948,3.12946 -1.02731,3.91182 -26.28213,18.77672 -5.56462,7.43245 0.94171,-14.18033 12.32777,-12.51782 -17.12191,-13.78915 -4.96536,-23.37312 7.96169,-18.28774 7.87608,-12.51782 z"
       id="path11"
       sodipodi:nodetypes="ccccccccccccccccc" />
    <path
       style="display:none;fill:#535353;fill-opacity:0.64878;stroke-width:2.1457"
       d="m 45.725249,115.52896 9.601737,-0.44879 12.772902,-5.18531 5.419768,-10.880987 4.598772,8.638177 -1.941834,7.62334 -4.788953,6.41582 -11.485791,4.42183 -9.907332,0.65766 -2.882823,-0.90992 z"
       id="path24"
       sodipodi:nodetypes="ccccccccccc" />
    <path
       style="display:none;fill:#535353;fill-opacity:0.64878;stroke-width:2.29205"
       d="m 44.402332,122.20374 11.562381,-0.42526 15.381088,-4.91346 6.526467,-10.31053 3.727742,4.60715 2.839072,-0.37409 -3.367338,11.17592 -5.766842,6.07945 -13.831153,4.19001 -11.930377,0.62318 -3.471486,-0.86221 z"
       id="path36"
       sodipodi:nodetypes="cccccccccccc" />
    <path
       style="display:none;fill:#43519c;fill-opacity:1;stroke-width:2.70569"
       d="m 42.765223,117.55313 12.122939,-0.62472 15.934678,-6.44047 6.431289,-14.420654 5.242025,12.067844 -1.679838,8.28334 -5.974399,8.17749 -14.328958,5.63597 -12.359772,0.83825 -2.89623,-1.15977 z"
       id="path17"
       sodipodi:nodetypes="ccccccccccc" />
    <path
       style="display:none;fill:#b4b4b4;fill-opacity:1;stroke-width:1.71424"
       d="m 27.968185,43.517013 c 0.08628,-0.554594 1.006728,-10.730387 1.569552,-11.305514 0.562825,-0.575123 7.248988,-9.475216 7.248988,-9.475216 l 11.847902,-3.742235 -7.688446,4.389355 -6.104887,10.031895 0.753461,17.063091 z"
       id="path19"
       sodipodi:nodetypes="cscccccc" />
    <g
       id="g27"
       inkscape:label="UndersScales">
      <path
         style="display:none;fill:#b4b4b4;fill-opacity:1;stroke-width:1.71424"
         d="m 45.928947,129.23313 -0.126129,-2.1381 1.097569,-3.21298 -4.646894,-33.563699 -10.896316,-21.30835 -4.014611,-5.05557 1.419176,-5.448342 9.811275,14.486521 7.682474,13.620451 3.940699,13.713999 4.493859,36.63474 z"
         id="path26"
         sodipodi:nodetypes="cccccccccccc" />
      <path
         style="display:none;fill:#b4b4b4;fill-opacity:1;stroke-width:1.71424"
         d="m 172.34145,165.79334 21.60592,-4.84881 33.45963,16.75485 13.57225,28.31438 -2.68576,18.95069 -15.7641,18.43529 12.83345,-16.82876 3.87423,-19.4923 -15.55573,-27.74081 -30.93521,-13.66519 -25.90903,8.9592 z"
         id="path27"
         sodipodi:nodetypes="cccccccccccc" />
    </g>
    <path
       d="m 53.430222,208.82616 3.586062,18.86501 -6.560907,-12.91917 0.622067,-3.84734"
       style="display:inline;fill:#6b6b6b;fill-opacity:0.65;stroke-width:1.9367"
       id="path1-4"
       sodipodi:nodetypes="cccc" />
    <path
       style="display:inline;fill:#6a6a6a;fill-opacity:0.65;stroke-width:1.83219"
       d="m 168.59607,209.15245 7.24594,-1.96377 -1.02731,3.91182 -26.28213,18.77672 -4.63858,6.17568 3.45525,-9.35169 z"
       id="path31"
       sodipodi:nodetypes="ccccccc" />
    <path
       d="m 182.51956,166.31019 -10.7868,16.42963 -13.86875,10.36632 -0.86229,-4.01561 9.72206,-8.28884 6.57497,-8.8994 z"
       style="display:inline;fill:#545454;fill-opacity:0.65;stroke-width:1.83219"
       id="path1-7"
       sodipodi:nodetypes="ccccccc" />
    <path
       style="display:none;fill:#5d5d5d;fill-opacity:0.65;stroke-width:2.13266"
       d="m 210.3597,142.01222 -7.47771,5.96936 -4.51926,10.0445 0.54531,10.39627 -8.0972,-3.65878 -2.38442,-5.28142 0.51232,-7.90854 4.22906,-9.52889 5.17185,-5.03519 5.07468,-1.95451 z"
       id="path37"
       sodipodi:nodetypes="ccccccccccc" />
    <path
       style="display:none;fill:#43519c;fill-opacity:1;stroke-width:2.70569"
       d="m 211.7161,137.29308 -9.48691,7.57328 -5.73355,12.74337 0.84018,12.5666 -11.66734,-0.5771 -1.77896,-10.14219 0.64997,-10.0335 5.36538,-12.08922 6.56148,-6.38811 6.02283,-2.24231 z"
       id="path6"
       sodipodi:nodetypes="ccccccccccc" />
    <path
       style="display:none;fill:#535353;fill-opacity:0.64878;stroke-width:1.516"
       d="m 38.62896,83.303989 6.456514,-0.854964 9.047833,-5.253834 2.870402,-7.68775 3.857211,7.038579 -1.161491,5.315965 -3.383541,4.532973 -8.115062,3.124158 -6.999834,0.464657 -0.09201,-1.840361 z"
       id="path34"
       sodipodi:nodetypes="ccccccccccc" />
    <path
       style="display:none;fill:#535353;fill-opacity:0.64878;stroke-width:1.59293"
       d="m 38.901599,86.296335 6.907487,-0.882305 9.679803,-5.421845 3.070894,-7.933596 4.126628,7.263665 -1.242618,5.485964 -3.619874,4.677932 -8.681881,3.224065 -7.488757,0.479516 -0.09843,-1.899213 z"
       id="path35"
       sodipodi:nodetypes="ccccccccccc" />
    <path
       style="display:none;fill:#43519c;fill-opacity:1;stroke-width:1.80436"
       d="m 37.621689,85.107769 7.955862,-1.495658 9.955466,-5.679556 2.962206,-10.104579 4.542165,7.507043 -0.370299,5.624234 -3.217889,5.937863 -8.966154,5.00447 -8.093306,1.657924 -2.017613,-0.507767 z"
       id="path32"
       sodipodi:nodetypes="ccccccccccc" />
    <path
       id="path39"
       style="display:none;fill:#3d404f;fill-opacity:1;stroke-width:1.7222"
       d="m 58.495898,67.828182 -2.123384,0.562756 4.16667,7.484298 z m -19.95227,14.322643 -1.000973,2.89749 2.751253,7.50497 1.49655,-4.0535 z" />
    <path
       style="display:inline;fill:#e8a750;fill-opacity:1;stroke-width:1.59635"
       d="m 26.09678,42.382888 -0.203461,-8.261616 1.429893,1.221313 2.20432,-8.508289 0.726094,1.734643 3.431629,-6.644244 1.467747,1.116137 2.104856,-3.236831 2.775795,-2.735064 0.788575,2.929011 5.872662,-7.248415 0.829916,5.05527 1.653116,-1.798747 0.211828,5.020892 -2.609865,2.33484 -1.968545,0.627144 -2.967103,1.032001 -2.04311,2.298838 -4.207931,4.57863 -1.232928,2.300931 0.143072,6.257068 1.51793,-1.134088 0.373932,2.092579 -1.161764,1.94578 -1.185021,2.791617 1.879642,-0.656644 -3.416275,4.499889 z"
       id="path38"
       sodipodi:nodetypes="cccccccccccccccccccccccccccc" />
    <path
       style="display:inline;fill:#e8a750;fill-opacity:1;stroke-width:1.86289"
       d="m 237.42306,225.79891 c -0.82912,0.3732 -7.98502,-1.79013 -7.98502,-1.79013 l 2.30746,2.80025 -10.42655,1.2034 6.68322,1.7778 -8.94602,5.82166 10.70816,-4.12206 -6.50562,11.35396 8.69907,-8.25313 0.4961,6.30776 3.67854,-7.88778 4.38471,4.75684 0.11512,-8.82643 c 0,0 1.73754,4.30316 2.07949,3.40142 0.34191,-0.90176 2.20466,-8.17161 2.20466,-8.17161 z"
       id="path41" />
    <path
       style="display:inline;fill:#df761d;fill-opacity:1;stroke-width:1.86289"
       d="m 237.21604,223.79508 -1.55326,1.83832 -4.3954,-0.40506 1.95902,1.79847 -3.83045,3.06831 3.06882,-0.47819 -0.24568,3.18794 4.2182,-2.27691 2.40915,1.50555 1.12127,-4.61284 2.38722,1.55467 0.42722,-4.36892 -2.61999,-1.271 z"
       id="path42"
       sodipodi:nodetypes="cccccccccccccc" />
    <path
       style="display:inline;fill:#df761d;fill-opacity:1;stroke-width:1.59635"
       d="m 27.297924,42.937262 -0.357454,-4.96617 2.230656,2.853637 1.913574,-8.283559 0.963556,7.920689 1.236291,-0.987277 0.743457,2.605213 1.421024,-1.059815 -1.554604,4.146754 -0.122264,2.238421 -1.260376,2.590378 z"
       id="path43"
       sodipodi:nodetypes="cccccccccccc" />
    <path
       style="display:inline;fill:#ffffff;fill-opacity:1;stroke-width:2.70569"
       d="m 42.76491,117.5532 12.12294,-0.62472 15.93467,-6.44047 6.43129,-14.420656 5.24203,12.067846 -1.67984,8.28334 -5.9744,8.17749 -14.32896,5.63597 -12.35977,0.83825 -2.89623,-1.15977 z"
       id="path17-8"
       sodipodi:nodetypes="ccccccccccc" />
    <path
       style="display:inline;fill:#ffffff;fill-opacity:1;stroke-width:2.70569"
       d="m 211.71578,137.29315 -9.48691,7.57328 -5.73355,12.74337 0.84018,12.5666 -11.66734,-0.5771 -1.77896,-10.14219 0.64997,-10.0335 5.36538,-12.08922 6.56148,-6.38811 6.02283,-2.24231 z"
       id="path6-2"
       sodipodi:nodetypes="ccccccccccc" />
    <path
       style="display:inline;fill:#ffffff;fill-opacity:1;stroke-width:1.80436"
       d="m 37.62137,85.107837 7.95586,-1.495658 9.95547,-5.679556 2.96221,-10.104579 4.54216,7.507043 -0.3703,5.624234 -3.21789,5.937863 -8.96615,5.00447 -8.09331,1.657924 -2.01761,-0.507767 z"
       id="path32-4"
       sodipodi:nodetypes="ccccccccccc" />
  </g>
</svg>
