<?xml version="1.0" encoding="UTF-8" standalone="no"?>
<!-- Created with Inkscape (http://www.inkscape.org/) -->

<svg
   width="12.438515mm"
   height="28.575001mm"
   viewBox="0 0 12.438514 28.575001"
   version="1.1"
   id="svg1"
   inkscape:version="1.4.2 (f4327f4, 2025-05-13)"
   sodipodi:docname="WarriorGSN.svg"
   xmlns:inkscape="http://www.inkscape.org/namespaces/inkscape"
   xmlns:sodipodi="http://sodipodi.sourceforge.net/DTD/sodipodi-0.dtd"
   xmlns="http://www.w3.org/2000/svg"
   xmlns:svg="http://www.w3.org/2000/svg"
   xmlns:vectornator="http://vectornator.io">
  <sodipodi:namedview
     id="namedview1"
     pagecolor="#505050"
     bordercolor="#eeeeee"
     borderopacity="1"
     inkscape:showpageshadow="false"
     inkscape:pageopacity="0"
     inkscape:pagecheckerboard="true"
     inkscape:deskcolor="#505050"
     inkscape:document-units="mm"
     labelstyle="default"
     inkscape:lockguides="false"
     inkscape:zoom="8.3553669"
     inkscape:cx="37.341269"
     inkscape:cy="33.930287"
     inkscape:window-width="1920"
     inkscape:window-height="1009"
     inkscape:window-x="-8"
     inkscape:window-y="430"
     inkscape:window-maximized="1"
     inkscape:current-layer="g47"
     showgrid="false" />
  <defs
     id="defs1" />
  <path
     style="fill:#3d6f49;fill-opacity:1;stroke:none;stroke-width:0.0942947"
     d="m 11.162236,9.252776 1.162107,2.561606 -0.744708,3.10882 -1.480908,-1.860168 -0.401581,-4.0179413 z"
     id="path8"
     inkscape:label="RightArm"
     sodipodi:nodetypes="cccccc" />
  <g
     id="g19"
     inkscape:label="LeftLeg"
     transform="matrix(0.04509706,0,0,0.04509706,-4.7295977,2.5264413)">
    <path
       style="fill:#3d6f49;fill-opacity:1;stroke:none;stroke-width:1.5875"
       d="m 172.77117,318.94268 -17.50118,84.8218 1.78794,132.08878 c 13.18778,0.9872 41.58233,0.45373 39.56333,2.96162 l 4.77615,-134.14313 52.39456,-98.72828 z"
       id="path13"
       sodipodi:nodetypes="ccccccc" />
    <path
       style="display:none;fill:#3d6f49;fill-opacity:1;stroke:none;stroke-width:1.5875"
       d="M 214.31733,415.96814 245.2236,378.98193 224.95718,298.9296 Z"
       id="path19"
       sodipodi:nodetypes="cccc" />
  </g>
  <g
     id="g27"
     inkscape:label="RightLeg"
     transform="matrix(0.04509706,0,0,0.05348425,-4.7295977,-0.0019854)">
    <path
       style="fill:#3d6f49;fill-opacity:1;stroke:none;stroke-width:1.5875"
       d="m 244.29069,321.47598 -6.76834,58.42415 28.4347,124.02918 30.2115,0.35621 -5.86687,-122.24927 22.15105,-73.0166 z"
       id="path12"
       sodipodi:nodetypes="ccccccc" />
    <path
       style="display:none;fill:#3d6f49;fill-opacity:1;stroke:none;stroke-width:1.5875"
       d="m 297.91629,418.50144 30.90627,-36.98621 -20.26642,-80.05233 c -4.95466,62.29361 -10.63985,117.03854 -10.63985,117.03854 z"
       id="path21"
       sodipodi:nodetypes="cccc" />
  </g>
  <path
     style="fill:#3d6f49;fill-opacity:1;stroke:none;stroke-width:0.0852131"
     d="M 1.9017106,8.8871767 0.50232522,10.701681 0.85232781,13.24648 1.5236589,13.781357 2.3388893,13.163867 3.0617318,9.3564853 C 2.5696185,9.2761941 2.7341915,8.7632387 1.9017106,8.8871767 Z"
     id="path10"
     sodipodi:nodetypes="ccccccc" />
  <g
     id="g15"
     inkscape:label="Body"
     transform="matrix(0.04509706,0,0,0.04509706,-4.7063084,2.5337291)">
    <path
       style="fill:#4d8b5c;fill-opacity:1;stroke:none;stroke-width:1.5875"
       d="m 212.80821,110.34499 20.06272,2.14958 41.91677,-3.58263 45.06543,-18.899339 36.24736,22.180909 3.23727,57.26488 -32.24367,21.85403 -24.34725,53.96655 8.56349,66.855 -29.71564,15.31837 -64.84559,4.65743 -44.38423,-13.12534 c 0,0 7.20444,-102.96304 7.20444,-104.75435 0,-1.79133 -14.76834,-27.93334 -14.76834,-27.93334 l -4.29916,-10.74788 -10.03136,-12.89747 c 0,0 -9.72091,-17.0057 -10.03137,-19.52534 1.68452,-3.53295 6.21972,-36.78109 6.21972,-36.78109 l 32.57979,-11.137547 z"
       id="path7"
       sodipodi:nodetypes="ccccccccccccsccccccc"
       inkscape:label="MainBody" />
    <path
       style="display:none;fill:#3d6f49;fill-opacity:1;stroke:none;stroke-width:1.5875"
       d="m 195.07419,106.04584 16.12183,3.94089 21.85404,2.32871 42.45416,-3.58263 30.27323,-8.24005 10.927,-2.866102 9.85223,7.165262 -15.40531,17.01749 -39.22977,15.76357 -30.41525,10.26033 -38.26477,-4.60606 L 191.87,121.38968 Z"
       id="path15"
       sodipodi:nodetypes="ccccccccccccc"
       inkscape:label="NeckShadow" />
    <g
       id="g28"
       inkscape:label="Cloth"
       style="display:none">
      <path
         style="fill:#ffffff;fill-opacity:1;stroke:none;stroke-width:1.67169"
         d="m 354.89586,121.82869 -37.75604,-26.712893 -11.11291,3.623084 -26.06837,30.650999 -26.06838,30.651 -84.65951,-20.62897 -29.21094,1.14534 0.91186,12.14035 23.06441,33.05527 c 0,0 -11.23789,39.39862 -13.34496,45.20878 -0.7771,3.53018 7.50935,29.34375 7.50935,29.34375 l 14.48496,59.75009 44.44892,-6.84766 28.87965,-25.07969 22.03972,-36.47954 40.53283,-33.43958 12.66652,-23.55971 30.01961,-26.09301 8.23324,-28.87964 z"
         id="path14"
         sodipodi:nodetypes="cccccccccccccccccccc"
         inkscape:label="Rag" />
      <path
         style="fill:#dedede;fill-opacity:1;stroke:none;stroke-width:1.67169"
         d="m 354.89586,121.82869 c -6.01831,8.96749 -11.61371,20.33042 -17.21274,30.38538 -9.24587,5.50299 -19.32914,14.14722 -28.31705,22.12654 -15.44251,18.2386 -27.32947,40.94702 -46.60076,54.79373 -8.26101,3.03673 -23.09058,21.0279 -26.25511,25.41217 -8.37318,11.60056 -15.225,23.29773 -16.61865,26.36023 -11.68643,18.22513 -33.09316,28.19524 -47.24622,39.14875 l 44.44892,-6.84766 28.87965,-25.07969 22.03972,-36.47954 40.53283,-33.43958 12.66652,-23.55971 30.01961,-25.83968 8.23324,-29.13297 z"
         id="path18"
         sodipodi:nodetypes="ccccscccccccccc"
         inkscape:label="RagLowerShadow" />
      <path
         style="fill:#dfdfdf;fill-opacity:1;stroke:none;stroke-width:1.67169"
         d="m 304.22802,118.68007 1.63861,-20.01765 -6.28845,7.24172 -19.61964,23.48574 -6.01247,7.01246 19.18081,-5.55367 z"
         id="path30"
         sodipodi:nodetypes="ccccccc"
         inkscape:label="RagUpperShadow" />
    </g>
    <path
       style="display:none;fill:#3d6f49;fill-opacity:1;stroke:none;stroke-width:1.5875"
       d="m 327.09409,191.31242 2.14958,64.48735 -17.93334,56.3342 -29.71564,15.31837 -64.84559,4.65743 -44.38423,-13.12534 c 18.1803,0.17795 45.6544,0.69061 52.90033,-3.49284 15.21618,-4.84141 38.14648,-14.97836 46.52043,-16.99457 7.65742,-6.4945 27.80736,-25.55796 35.49235,-38.66887 4.63976,-10.60307 16.33991,-39.79461 19.81611,-68.51573 z"
       id="path20"
       sodipodi:nodetypes="cccccccccc"
       inkscape:label="MainBody" />
  </g>
  <g
     id="g6"
     inkscape:label="Face"
     transform="matrix(2.6005299,0,0,2.6005299,-72.423143,-51.584003)"
     style="display:none">
    <g
       id="g30"
       inkscape:label="Face">
      <path
         style="fill:#4d8b5c;fill-opacity:1;stroke:none;stroke-width:1.5875"
         d="m 134.97097,130.36011 -11.3353,12.72798 c 0,0 -2.09472,15.77387 -1.42251,23.63917 0.53256,6.23127 4.28861,18.26523 4.28861,18.26523 0,0 8.89574,5.03027 13.08873,5.89481 4.193,0.86453 17.6555,0.7877 21.05684,0.60485 20.98847,-1.1283 57.21661,-19.22764 57.21661,-19.22764 l 8.61322,-39.01284 c 0,0 -1.9882,-19.81898 -4.55994,-34.452902 0.44297,-11.778018 -4.72195,-28.349032 -4.75926,-27.714835 l -14.23305,-15.130885 -36.908,-0.803455 -31.64828,15.435137 -6.51329,13.188085 4.85365,17.497785 z"
         id="path1"
         sodipodi:nodetypes="ccacsscccccccccc"
         inkscape:label="MainFace" />
      <path
         style="display:inline;fill:#3d6f49;fill-opacity:1;stroke:none;stroke-width:1.5875"
         d="m 205.34983,157.57136 c 0,0 -8.42665,6.44004 -23.87247,16.30571 -2.80036,5.40073 -5.14072,8.59191 -5.1116,15.21109 18.7085,-5.81491 41.49819,-16.82365 41.49819,-16.82365 l 8.61322,-39.01284 z"
         id="path27"
         sodipodi:nodetypes="cccccc"
         inkscape:label="MainFaceShaodw" />
    </g>
    <path
       style="display:inline;fill:#3d6f49;fill-opacity:1;stroke:none;stroke-width:1.5875"
       d="m 148.69267,101.52571 2.89684,1.89417 -1.85015,4.04374 -5.60866,0.85048 -10.94905,-0.38731 -0.10954,-1.5131 -0.26304,-3.31196 z"
       id="path25"
       inkscape:label="LeftEyebrowShadow"
       sodipodi:nodetypes="cccccccc" />
    <path
       style="fill:#505451;fill-opacity:1;stroke:none;stroke-width:1.5875"
       d="m 115.77189,99.558758 8.10656,-6.333254 23.55971,6.839916 -1.26665,5.0666 -22.79972,0.25333 z"
       id="path2"
       inkscape:label="LeftEyebrow" />
    <path
       style="display:inline;fill:#3d6f49;fill-opacity:1;stroke:none;stroke-width:1.5875"
       d="m 155.71161,103.19767 -2.50861,2.38462 2.54774,3.64471 5.67014,-0.17288 10.70054,-2.35163 2.61196,-2.58289 -3.1139,-2.23043 z"
       id="path26"
       inkscape:label="RightEyebrowShadow"
       sodipodi:nodetypes="cccccccc" />
    <path
       style="fill:#505451;fill-opacity:1;stroke:none;stroke-width:1.5875"
       d="m 184.69812,96.841165 -9.14958,-4.70229 -21.86102,11.132855 2.19348,4.73957 22.44345,-4.02283 z"
       id="path3"
       inkscape:label="RightEyebrow" />
    <path
       style="fill:#3d6f49;fill-opacity:1;stroke:none;stroke-width:1.5875"
       d="m 235.85039,72.325764 -2.27997,3.293292 6.96658,4.939938 21.53306,-1.519981 4.81328,-4.433278 -4.30662,-5.066603 z"
       id="path16"
       transform="translate(-77.026537,51.94813)"
       inkscape:label="RightEyeShadow"
       sodipodi:nodetypes="ccccccc" />
    <path
       style="fill:#6f7171;fill-opacity:1;stroke:none;stroke-width:1.5875"
       d="m 156.05139,116.02522 20.51974,-8.61323 7.85324,6.33326 2.02663,11.65318 -16.97312,3.54663 c 0,0 -10.38653,-0.50666 -10.38653,-2.78664 0,-2.27997 -3.03996,-10.1332 -3.03996,-10.1332 z"
       id="path4"
       inkscape:label="RightEye" />
    <path
       style="display:inline;fill:#3d6f49;fill-opacity:1;stroke:none;stroke-width:1.5875"
       d="m 152.9656,123.67224 1.39331,3.67329 -8.32823,4.90827 -12.44214,-0.35564 1.38355,-1.54477 -0.26304,-3.31196 z"
       id="path17"
       inkscape:label="LeftEyeShadow"
       sodipodi:nodetypes="ccccccc" />
    <path
       style="fill:#6f7171;fill-opacity:1;stroke:none;stroke-width:1.5875"
       d="m 132.70862,108.85956 c 1.26038,0.12577 16.69726,6.50795 16.69726,6.50795 l 3.25403,10.76282 -8.51927,3.73249 -9.37914,-2.15849 -2.83716,-10.91147 z"
       id="path5"
       sodipodi:nodetypes="ccccccc"
       inkscape:label="LeftEye" />
    <path
       style="display:inline;fill:#393b3b;fill-opacity:1;stroke:none;stroke-width:1.5875"
       d="m 134.76143,127.70352 -1.79449,-6.78077 4.16799,-5.66887 5.7322,1.61218 3.49307,5.19482 -1.45545,5.12763 -4.25437,1.8361 z"
       id="path23"
       sodipodi:nodetypes="cccccccc"
       inkscape:label="LeftIris" />
    <g
       id="g26"
       inkscape:label="Mouth">
      <path
         style="fill:#3d6f49;fill-opacity:1;stroke:none;stroke-width:1.5875"
         d="m 128.02471,157.90542 13.50519,0.96334 15.54753,-3.31394 3.54135,4.89756 -3.7488,3.56758 -2.03883,-3.58899 -25.57625,0.81279 -2.61171,5.46768 -2.92587,-4.18088 z"
         id="path22"
         sodipodi:nodetypes="cccccccccc"
         inkscape:label="Mouth" />
      <path
         style="display:inline;fill:#3d6f49;fill-opacity:1;stroke:none;stroke-width:1.5875"
         d="m 138.05078,187.35311 c -0.63332,-1.39332 -2.15331,-6.58659 -2.15331,-6.58659 l 3.92662,-4.81327 0.88666,4.68661 z"
         id="path31"
         inkscape:label="Chin" />
    </g>
    <path
       style="display:inline;fill:#393b3b;fill-opacity:1;stroke:none;stroke-width:1.5875"
       d="m 161.78277,126.71869 -1.06981,-6.92055 4.16799,-5.66887 5.7322,1.61218 3.49307,5.19482 0.14362,5.27284 -5.98779,2.21929 z"
       id="path24"
       sodipodi:nodetypes="cccccccc"
       inkscape:label="LeftIris" />
    <path
       style="fill:#3d6f49;fill-opacity:1;stroke:none;stroke-width:1.5875"
       d="m 203.99301,107.98811 8.61322,-12.919839 12.53986,-10.006542 3.92662,20.139751 -6.0031,11.47778 -2.40554,11.55989 -12.57322,0.37999 1.72877,-10.75116 z"
       id="path32"
       sodipodi:nodetypes="ccccccccc"
       inkscape:label="Ear" />
  </g>
  <g
     opacity="1"
     vectornator:layerName="Group 4"
     id="g53"
     style="clip-rule:evenodd;fill-rule:nonzero;stroke-linecap:round;stroke-linejoin:round"
     transform="matrix(-0.0493647,-0.03297128,0.03297128,-0.0493647,12.748002,22.485629)"
     inkscape:label="Sword">
    <path
       d="m 199.199,99.7675 c 0,0 -1.196,-9.9922 -1.377,-13.4251 -0.181,-3.4329 0.232,-5.8559 0.642,-8.3602 0.666,-4.0669 3.936,-18.5391 -0.429,-17.4785 -0.928,0.2254 -3.759,0.5062 -7.581,0.5837 -3.035,0.0616 -7.097,-0.6771 -8.849,-0.8406 -3.925,-0.3662 -0.882,12.5375 -0.336,17.7531 0.251,2.3897 0.87,6.0512 0.569,8.5132 -0.301,2.462 -1.093,13.474 -1.093,13.474 z"
       fill="#6f3a1a"
       fill-rule="nonzero"
       opacity="1"
       stroke="#9d521b"
       stroke-linecap="butt"
       stroke-linejoin="round"
       stroke-width="3.48834"
       vectornator:layerName="Curve 3"
       id="path52" />
    <path
       d="m 233.012,103.523 c 0.034,8.945 -9.795,5.714 -17.526,2.099 -1.104,-0.516 -16.649,4.022 -24.993,3.878 -8.344,-0.143 -24.476,-2.86 -26.846,-2.261 -7.739,1.957 -16.975,5.244 -17.057,-3.452 -0.082,-8.6966 7.158,-7.0555 16.725,-4.0185 3.327,1.0565 20.908,-2.2662 27.792,-2.3981 6.884,-0.132 19.575,2.9926 24.48,1.1662 9.826,-3.6581 17.391,-3.9577 17.425,4.9864 z"
       fill="#ef9f46"
       fill-rule="nonzero"
       opacity="1"
       stroke="#fddf19"
       stroke-linecap="butt"
       stroke-linejoin="round"
       stroke-width="3.48834"
       vectornator:layerName="Curve 2"
       id="path53" />
  </g>
  <g
     id="g29"
     inkscape:label="LeftArm"
     transform="matrix(-0.037151,-0.02895959,0.02895959,-0.037151,-0.10738836,27.035812)">
    <path
       style="fill:#3a6945;fill-opacity:1;stroke:none;stroke-width:1.52992"
       d="m 88.817204,301.68705 -11.087586,21.46314 19.308287,1.25803 10.932565,-10.31149 60.05567,-56.62258 -4.74503,-27.56342 -29.63762,3.02182 z"
       id="path11"
       sodipodi:nodetypes="cccccccc"
       inkscape:label="LeftForearm" />
  </g>
  <path
     style="fill:#3a6945;fill-opacity:1;stroke:none;stroke-width:0.0782214"
     d="m 9.9621841,12.865489 -2.846609,-0.910337 -0.8938388,-0.406857 -0.7106114,-0.103071 -0.1141866,0.468508 1.2563707,0.855111 2.5655895,1.636713 2.3205045,0.685003 0.110898,-0.875861 z"
     id="path9"
     inkscape:label="RightforeArm"
     sodipodi:nodetypes="cccccccccc" />
  <path
     style="fill:#6f5d3d;fill-opacity:1;stroke:none;stroke-width:0.0297275"
     d="m 2.5348288,26.27951 c 0,0 -0.3727726,0.621281 -0.4721703,0.646134 -0.099407,0.02485 -0.7703923,0 -0.8697996,0 -0.099407,0 -0.99404427,-0.820092 -0.99404427,-0.820092 L 0,26.701981 0.37277262,27.944545 2.5348288,28.292462 4.870843,27.944545 4.0259001,25.807336 Z"
     id="path35" />
  <path
     style="fill:#6f5d3d;fill-opacity:1;stroke:none;stroke-width:0.0297275"
     d="m 7.1725098,26.245397 c 0,0 -0.125187,0.713636 -0.2090746,0.772481 -0.083849,0.05884 -0.7191501,0.276257 -0.8119418,0.311904 C 6.0587017,27.365428 4.92947,26.920693 4.92947,26.920693 L 4.95774,27.548748 5.7512965,28.575 7.8943232,28.124474 9.9502218,26.962013 8.395081,25.269933 Z"
     id="path36" />
  <path
     style="fill:#2d582d;fill-opacity:1;stroke-width:0.0927733"
     d="m 2.8886488,26.599253 0.4466887,-0.732672 c 0,0 -0.3248767,-0.488453 -0.3654743,-0.576357 -0.040578,-0.08791 0.4466887,-0.722921 0.6903414,-0.80107 0.2436527,-0.07815 0.6294258,-0.644725 0.670033,-0.713127 0.040578,-0.06837 -0.3451659,-0.976914 -0.3451659,-0.976914 L 4.3302376,21.900381 3.8429418,20.972336 3.5180746,20.161512 2.462259,19.673058 c 0,0 -0.040578,-0.478709 0.020289,-0.537318 0.060868,-0.05862 0.4263803,-0.293047 0.4263803,-0.293047 l -0.1015228,-0.117224 -0.5482114,0.185593 -0.081253,0.45913 0.1218215,0.527536 0.5888283,0.195384 c 0,0 0.4263802,0.410305 0.4466886,0.468916 0.020289,0.05862 0.3045587,0.537291 0.3045587,0.537291 0,0 0.2842599,0.293071 0.223354,0.556816 -0.060964,0.263788 -0.3045587,0.654555 -0.3045587,0.69363 0,0.03908 -0.2842696,0.15631 -0.020289,0.517748 0.2639515,0.361437 0.9542929,0.371224 0.3248671,0.849896 -0.6294354,0.478672 -1.2385624,0.810819 -1.2385624,0.810819 0,0 -0.1218216,0.371234 -0.1218216,0.537318 0,0.166063 -0.223354,0.625194 -0.060964,0.810823 0.1624288,0.185601 0.040578,0.722884 0.040578,0.722884 z"
     id="path16-4" />
  <path
     style="fill:#2d582d;fill-opacity:1;stroke-width:0.0521242"
     d="M 7.28886,26.102226 7.0378897,25.690579 c 0,0 0.1825256,-0.274436 0.2053341,-0.323824 0.022789,-0.0494 -0.2509703,-0.406168 -0.3878597,-0.450076 -0.136899,-0.04391 -0.3536373,-0.362236 -0.3764554,-0.400667 -0.022789,-0.03842 0.1939298,-0.548873 0.1939298,-0.548873 l -0.1939298,-0.504948 0.2737884,-0.521417 0.182516,-0.455556 0.593213,-0.274436 c 0,0 0.022789,-0.26896 -0.011347,-0.301889 -0.034232,-0.03293 -0.239566,-0.164647 -0.239566,-0.164647 l 0.057021,-0.06586 0.3080108,0.104275 0.045579,0.25796 -0.068464,0.296392 -0.3308288,0.109777 c 0,0 -0.2395564,0.230527 -0.2509703,0.263457 -0.011347,0.03293 -0.1711117,0.301873 -0.1711117,0.301873 0,0 -0.1597172,0.164662 -0.1254948,0.312845 0.034232,0.148209 0.1711214,0.367759 0.1711214,0.389713 0,0.02195 0.1597074,0.08782 0.011346,0.290893 -0.1483033,0.203071 -0.5361629,0.20857 -0.1825256,0.47751 0.353647,0.268939 0.69588,0.455554 0.69588,0.455554 0,0 0.068464,0.208575 0.068464,0.301888 0,0.0933 0.1254851,0.351262 0.034232,0.455557 -0.091253,0.10428 -0.022789,0.406148 -0.022789,0.406148 z"
     id="path37" />
  <path
     style="fill:#2d582d;fill-opacity:1;stroke-width:0.0521242"
     d="M 7.6966146,22.150878 7.9475849,21.73923 c 0,0 -0.1825256,-0.274435 -0.2053437,-0.323824 C 7.7194522,21.366016 7.9932115,21.009239 8.1301105,20.96533 8.2669999,20.92142 8.4837479,20.603094 8.506566,20.564664 8.529355,20.526244 8.3126361,20.01579 8.3126361,20.01579 L 8.506566,19.510841 8.2327776,18.989424 8.050252,18.533869 7.4570486,18.259432 c 0,0 -0.022789,-0.268959 0.011347,-0.301889 0.034232,-0.03293 0.2395661,-0.164647 0.2395661,-0.164647 l -0.057021,-0.06586 -0.3080108,0.104274 -0.045675,0.257959 0.068464,0.296392 0.3308288,0.109777 c 0,0 0.2395565,0.230528 0.2509703,0.263458 0.011347,0.03293 0.1711118,0.301874 0.1711118,0.301874 0,0 0.1597075,0.16466 0.1254851,0.312843 -0.034232,0.148209 -0.1711117,0.36776 -0.1711117,0.389714 0,0.02195 -0.1597171,0.08782 -0.011347,0.290895 0.1482937,0.20307 0.536163,0.208568 0.182516,0.47751 -0.3536373,0.268938 -0.6958704,0.455553 -0.6958704,0.455553 0,0 -0.068464,0.208575 -0.068464,0.301888 0,0.0933 -0.1254948,0.351263 -0.034232,0.455558 0.091253,0.104279 0.022789,0.406147 0.022789,0.406147 z"
     id="path38" />
  <path
     style="fill:#2d582d;fill-opacity:1;stroke-width:0.0927733"
     d="m 4.0484297,21.15178 0.4466886,-0.732671 c 0,0 -0.3248671,-0.488454 -0.3654742,-0.576358 -0.040578,-0.08791 0.4466982,-0.722921 0.6903414,-0.801069 0.2436527,-0.07815 0.6294354,-0.644726 0.6700426,-0.713127 0.040578,-0.06837 -0.3451659,-0.976914 -0.3451659,-0.976914 L 5.4900281,16.45291 5.0027226,15.524864 4.6778651,14.71404 3.6220398,14.225586 c 0,0 -0.040578,-0.478709 0.020289,-0.537319 0.060867,-0.05862 0.4263899,-0.293047 0.4263899,-0.293047 l -0.1015228,-0.117224 -0.5482211,0.185593 -0.081253,0.45913 0.1218312,0.527536 0.5888186,0.195385 c 0,0 0.4263899,0.410304 0.4466887,0.468915 0.020289,0.05862 0.3045587,0.537292 0.3045587,0.537292 0,0 0.2842695,0.293071 0.2233539,0.556816 -0.060964,0.263789 -0.3045587,0.654554 -0.3045587,0.69363 0,0.03908 -0.2842599,0.15631 -0.020289,0.517747 0.2639515,0.361437 0.9543026,0.371225 0.3248671,0.849896 -0.6294354,0.478673 -1.2385624,0.810819 -1.2385624,0.810819 0,0 -0.1218216,0.371235 -0.1218216,0.537318 0,0.166063 -0.2233443,0.625196 -0.060964,0.810824 0.1624287,0.185601 0.040578,0.722883 0.040578,0.722883 z"
     id="path39" />
  <path
     style="fill:#2d582d;fill-opacity:1;stroke-width:0.0790812"
     d="M 7.1347104,22.065551 6.7539471,21.44101 c 0,0 0.2769232,-0.416365 0.3115398,-0.491293 C 7.1001035,20.874782 6.684714,20.333491 6.4770336,20.266874 6.2693341,20.200257 5.9404957,19.717302 5.9058791,19.658996 5.8712625,19.600715 6.2001009,18.826262 6.2001009,18.826262 L 5.9058791,18.060172 6.321259,17.269094 6.5981821,16.577938 7.498175,16.161575 c 0,0 0.034617,-0.408057 -0.017308,-0.45802 C 7.428942,15.653595 7.117412,15.45376 7.117412,15.45376 l 0.086542,-0.09992 0.4673048,0.1582 0.069233,0.391369 -0.1038402,0.449679 -0.5019213,0.166548 c 0,0 -0.3634646,0.349749 -0.3807729,0.399708 -0.017308,0.04996 -0.2596052,0.457993 -0.2596052,0.457993 0,0 -0.2423066,0.24982 -0.1903913,0.474638 0.051925,0.224857 0.2596148,0.557951 0.2596148,0.59126 0,0.03331 0.2423066,0.133239 0.017308,0.441333 -0.2249982,0.308094 -0.8134611,0.316436 -0.2769231,0.724463 0.5365379,0.408025 1.0557676,0.691152 1.0557676,0.691152 0,0 0.1038402,0.316445 0.1038402,0.458015 0,0.141557 0.1903816,0.532927 0.051925,0.691159 -0.1384567,0.158206 -0.034617,0.616196 -0.034617,0.616196 z"
     id="path40" />
  <path
     style="fill:#2d582d;fill-opacity:1;stroke-width:0.0724825"
     d="M 3.5825577,7.2865506 2.9854984,7.5914863 c 0,0 0.016443,0.4580294 0.00769,0.5331493 C 2.9845368,8.1997633 2.4001222,8.4230807 2.2059712,8.3754223 2.0118202,8.3277571 1.5232551,8.54706 1.4682435,8.5759764 1.4132416,8.6048716 1.2983338,9.3674338 1.2983338,9.3674338 l -0.59741512,0.4570015 -0.0552904,0.8170777 -0.11547518,0.672599 0.50294059,0.75706 c 0,0 -0.16881355,0.335249 -0.23330618,0.349356 -0.0645215,0.01412 -0.40369678,0.02063 -0.40369678,0.02063 l 0.0196161,0.11956 0.44082307,0.10074 0.24189299,-0.272377 0.1347259,-0.400976 -0.31199164,-0.370939 c 0,0 -0.11595596,-0.447542 -0.10549406,-0.494859 0.0104811,-0.04731 0.017116,-0.482227 0.017116,-0.482227 0,0 -0.0693293,-0.311364 0.0791374,-0.461998 0.1484859,-0.15065 0.4704971,-0.3110894 0.4864784,-0.337099 0.015962,-0.02601 0.2531627,0.01225 0.225306,-0.33633 -0.027789,-0.3485602 -0.4833246,-0.6374963 0.1314565,-0.6986061 0.6147907,-0.061108 1.1561172,-0.033001 1.1561172,-0.033001 0,0 0.2329505,-0.1972637 0.3008951,-0.3078108 C 3.2801529,8.3546994 3.6166069,8.140467 3.584452,7.9504728 3.5522393,7.7604835 3.8531536,7.4526958 3.8531536,7.4526958 Z"
     id="path41" />
  <path
     style="fill:#2d582d;fill-opacity:1;stroke-width:0.0724825"
     d="M 3.5825577,7.2865506 2.9854984,7.5914863 c 0,0 0.016443,0.4580294 0.00769,0.5331493 C 2.9845368,8.1997633 2.4001222,8.4230807 2.2059712,8.3754223 2.0118202,8.3277571 1.5232551,8.54706 1.4682435,8.5759764 1.4132416,8.6048716 1.2983338,9.3674338 1.2983338,9.3674338 l -0.59741512,0.4570015 -0.0552904,0.8170777 -0.11547518,0.672599 0.50294059,0.75706 c 0,0 -0.16881355,0.335249 -0.23330618,0.349356 -0.0645215,0.01412 -0.40369678,0.02063 -0.40369678,0.02063 l 0.0196161,0.11956 0.44082307,0.10074 0.24189299,-0.272377 0.1347259,-0.400976 -0.31199164,-0.370939 c 0,0 -0.11595596,-0.447542 -0.10549406,-0.494859 0.0104811,-0.04731 0.017116,-0.482227 0.017116,-0.482227 0,0 -0.0693293,-0.311364 0.0791374,-0.461998 0.1484859,-0.15065 0.4704971,-0.3110894 0.4864784,-0.337099 0.015962,-0.02601 0.2531627,0.01225 0.225306,-0.33633 -0.027789,-0.3485602 -0.4833246,-0.6374963 0.1314565,-0.6986061 0.6147907,-0.061108 1.1561172,-0.033001 1.1561172,-0.033001 0,0 0.2329505,-0.1972637 0.3008951,-0.3078108 C 3.2801529,8.3546994 3.6166069,8.140467 3.584452,7.9504728 3.5522393,7.7604835 3.8531536,7.4526958 3.8531536,7.4526958 Z"
     id="path42" />
  <path
     style="fill:#2d582d;fill-opacity:1;stroke-width:0.063764"
     d="m 11.763362,12.180602 0.107773,-0.57985 c 0,0 -0.328117,-0.234318 -0.375686,-0.280854 -0.0476,-0.04654 0.110158,-0.573587 0.247557,-0.683361 0.137399,-0.109777 0.246662,-0.568043 0.256018,-0.62191 0.0096,-0.053848 -0.460583,-0.5431126 -0.460583,-0.5431126 L 11.540364,8.8098211 11.000432,8.3328535 10.593495,7.8914621 9.795861,7.8358736 c 0,0 -0.1431397,-0.2975651 -0.1183696,-0.3500978 C 9.7023,7.4332356 9.8797196,7.1932791 9.8797196,7.1932791 L 9.7858702,7.1428062 9.4791191,7.3960698 9.5392174,7.7108481 9.746465,8.0199166 10.17247,8.0014448 c 0,0 0.374215,0.1592959 0.401591,0.1919798 0.02731,0.032693 0.327002,0.2706536 0.327002,0.2706536 0,0 0.254259,0.1187436 0.279625,0.3030529 0.02539,0.1843459 -0.03558,0.4949183 -0.02606,0.5200191 0.0096,0.025107 -0.144371,0.1699117 0.11358,0.3375262 0.257932,0.1676241 0.703756,0.0051 0.416496,0.4664886 -0.28727,0.461379 -0.597319,0.823675 -0.597319,0.823675 0,0 0.0125,0.268245 0.05317,0.374928 0.04058,0.106668 0.0096,0.456203 0.159111,0.53573 0.149717,0.0795 0.202844,0.454408 0.202844,0.454408 z"
     id="path43" />
  <path
     style="fill:#2d582d;fill-opacity:1;stroke-width:0.063764"
     d="m 10.154229,14.92191 -0.107773,-0.579849 c 0,0 0.328117,-0.234318 0.375686,-0.280855 0.0476,-0.04654 -0.110157,-0.573586 -0.247556,-0.683361 -0.137399,-0.109777 -0.2466627,-0.568042 -0.2560188,-0.62191 -0.00962,-0.05385 0.4605928,-0.543112 0.4605928,-0.543112 l -0.0019,-0.661693 0.539942,-0.476968 0.406928,-0.441391 0.797643,-0.05559 c 0,0 0.14313,-0.297565 0.11836,-0.350098 -0.02481,-0.05254 -0.202229,-0.2924963 -0.202229,-0.2924963 l 0.09385,-0.050473 0.306761,0.2532633 -0.0601,0.314778 -0.207247,0.309069 -0.426006,-0.01847 c 0,0 -0.374214,0.159296 -0.401581,0.191979 -0.02741,0.03269 -0.327011,0.270654 -0.327011,0.270654 0,0 -0.254259,0.118744 -0.279625,0.303053 -0.02539,0.184346 0.03558,0.494918 0.02606,0.520018 -0.0096,0.02511 0.144371,0.169912 -0.113581,0.337527 -0.257922,0.167624 -0.703755,0.0051 -0.416495,0.466489 0.28727,0.461378 0.597319,0.823674 0.597319,0.823674 0,0 -0.0125,0.268246 -0.05317,0.374929 -0.04058,0.106667 -0.0096,0.456202 -0.159102,0.53573 -0.149726,0.0795 -0.202853,0.454408 -0.202853,0.454408 z"
     id="path44" />
  <g
     id="g47"
     inkscape:label="fACE"
     transform="matrix(1.1778945,0,0,1.1778945,-1.2735943,0)">
    <path
       style="fill:#ffffff;fill-opacity:1;stroke:none;stroke-width:0.0225352"
       d="M 4.31842,7.166293 3.53452,6.316722 3.20012,4.233479 3.60988,2.398287 4.63867,1.590058 6.52254,1.684248 6.95583,2.249407 7.95427,1.778441 9.2353,1.891473 10.25259,3.134822 10.12072,4.528881 9.49904,6.375066 8.0673,7.072096 6.68991,6.811773 Z"
       id="path33"
       sodipodi:nodetypes="ccccccccccccccc" />
    <g
       id="g1"
       inkscape:label="Min">
      <path
         style="fill:#d9d9d9;fill-opacity:1;stroke:none;stroke-width:0.0309155"
         d="m 5.06251,3.590989 c 0.0914,0.0731 0.54825,0.712716 0.54825,0.712716 L 4.80667,4.669199 Z"
         id="path45" />
      <path
         style="fill:#d9d9d9;fill-opacity:1;stroke:none;stroke-width:0.0309155"
         d="M 7.20066,4.395078 7.94993,3.572714 8.44334,4.559551 Z"
         id="path46" />
      <path
         style="fill:#d9d9d9;fill-opacity:1;stroke:none;stroke-width:0.0309155"
         d="M 4.93459,5.656036 C 5.02599,5.509838 5.70213,5.235717 5.70213,5.235717 L 6.50622,5.126068 7.87683,5.272266 8.40679,5.656036 8.00475,6.039806 7.73063,5.491564 7.23721,5.930157 6.72552,5.509838 6.06763,6.021531 5.73868,5.546388 5.06251,6.149455 Z"
         id="path47" />
    </g>
    <path
       style="fill:#d9d9d9;fill-opacity:1;stroke:none;stroke-width:0.0309155"
       d="m 6.58846,1.790926 c 0,0 0.27412,-0.648754 0.28326,-0.685303 0.009,-0.03655 0.8315,-0.968562 0.8315,-0.968562 L 9.15606,0 9.31139,0.255847 9.07382,0.447731 8.40679,0.383771 c 0,0 -0.25584,0.164473 -0.3198,0.191885 -0.064,0.02741 -0.25585,0.374632 -0.26499,0.411182 -0.009,0.03655 0.0914,0.813226 0.0914,0.813226 l 0.25584,0.06396 0.0457,0.402044 -0.48428,0.484281 c 0,0 -0.82237,0.127924 -0.85891,0.127924 -0.0366,0 -0.79496,-0.392908 -0.81323,-0.466007 -0.0183,-0.0731 -0.064,-0.648753 -0.064,-0.648753 z"
       id="path34" />
  </g>
  <path
     d="m 6.4773787,10.623344 c 0,0 0.8520371,-1.2871093 1.1360148,-1.7077927 C 7.8974042,8.4948185 8.4718018,7.629057 8.7499497,7.210048 8.9669682,6.8832032 9.7027037,5.7649843 9.8802827,5.5040289 10.216107,5.2932285 10.860199,4.8852037 10.885976,4.9301901 c 0.06795,0.1183386 -0.08264,0.805942 -0.153449,1.147632 C 10.537148,6.3607256 9.9518156,7.2485235 9.5956313,7.7766735 9.2394634,8.3049058 8.8198531,8.9538826 8.4763532,9.4741571 8.1327709,9.994448 7.3286366,11.176917 7.3286366,11.176917 Z"
     fill="#8b8b8b"
     fill-rule="nonzero"
     opacity="1"
     stroke="#adadad"
     stroke-linecap="butt"
     stroke-linejoin="round"
     stroke-width="0.207079"
     vectornator:layerName="Curve 1"
     id="path51"
     style="clip-rule:evenodd;fill-rule:nonzero;stroke-linecap:round;stroke-linejoin:round" />
</svg>
