<?xml version="1.0" encoding="UTF-8" standalone="no"?>
<!-- Created with Inkscape (http://www.inkscape.org/) -->

<svg
   width="68.355171mm"
   height="44.113289mm"
   viewBox="0 0 68.355171 44.113289"
   version="1.1"
   id="svg1"
   sodipodi:docname="WolfGSN.svg"
   inkscape:version="1.4.2 (f4327f4, 2025-05-13)"
   xmlns:inkscape="http://www.inkscape.org/namespaces/inkscape"
   xmlns:sodipodi="http://sodipodi.sourceforge.net/DTD/sodipodi-0.dtd"
   xmlns="http://www.w3.org/2000/svg"
   xmlns:svg="http://www.w3.org/2000/svg">
  <sodipodi:namedview
     id="namedview1"
     pagecolor="#505050"
     bordercolor="#eeeeee"
     borderopacity="1"
     inkscape:showpageshadow="0"
     inkscape:pageopacity="0"
     inkscape:pagecheckerboard="0"
     inkscape:deskcolor="#505050"
     inkscape:document-units="px"
     inkscape:zoom="2"
     inkscape:cx="123"
     inkscape:cy="126.75"
     inkscape:window-width="1920"
     inkscape:window-height="1009"
     inkscape:window-x="-8"
     inkscape:window-y="430"
     inkscape:window-maximized="1"
     inkscape:current-layer="layer1" />
  <defs
     id="defs1" />
  <g
     inkscape:label="Layer 1"
     inkscape:groupmode="layer"
     id="layer1"
     transform="translate(-71.434869,-140.13402)">
    <path
       style="fill:#c2c2c2;fill-opacity:1;stroke-width:3.29999"
       d="m 84.297215,157.84898 1.426551,0.43264 2.245065,-4.91108 6.325935,-5.89329 1.157611,0.3274 -1.590253,8.98026 -8.18513,2.66601 -1.274541,-0.1754 z"
       id="path25"
       sodipodi:nodetypes="ccccccccc" />
    <path
       style="fill:#473b30;fill-opacity:1;stroke-width:3.04791"
       d="m 91.875587,169.46705 0.120183,5.52823 0.360533,4.56679 -2.523754,0.60089 -2.643934,-0.24035 1.691046,-2.38296 0.351994,-7.11116 1.321967,-2.40358 z"
       id="path15"
       sodipodi:nodetypes="ccccccccc" />
    <path
       style="fill:#473b30;fill-opacity:1;stroke-width:3.29999"
       d="m 80.574635,145.13123 0.258148,-3.6254 1.252897,-1.72393 1.534852,1.33401 1.10861,3.10628 z"
       id="path20"
       sodipodi:nodetypes="cccccc" />
    <path
       style="fill:#766250;fill-opacity:1;stroke-width:3.04791"
       d="m 94.44605,161.35887 -2.709542,10.00318 -1.030458,1.23156 -1.30648,-0.97663 -0.629019,-3.49747 -2.668086,-5.51408 4.005948,-2.90257 z"
       id="path5"
       sodipodi:nodetypes="cccccccc" />
    <g
       id="g8"
       inkscape:label="Backleg"
       transform="matrix(-0.91133102,0,0,0.91133102,206.75454,-12.227438)">
      <path
         style="fill:#473b30;fill-opacity:1;stroke-width:3.29999"
         d="m 97.432201,199.80169 0.03673,8.92512 4.434479,1.22427 2.02191,-1.44623 -2.23714,-1.99209 -0.17233,-6.84359 -1.962481,-2.08808 z"
         id="path8"
         sodipodi:nodetypes="cccccccc" />
      <path
         style="fill:#766250;fill-opacity:1;stroke-width:3.56274"
         d="m 97.34212,186.48822 -0.475799,8.60811 0.891976,6.29142 1.603233,0.99192 2.05755,-1.02728 0.46993,-5.04842 5.24953,-6.01448 -1.93395,-6.10349 z"
         id="path7"
         sodipodi:nodetypes="ccccccccc" />
    </g>
    <g
       id="g1"
       transform="matrix(0.82833999,0,0,1,14.266578,0)">
      <path
         style="display:inline;fill:#a08671;fill-opacity:1;stroke-width:3.11209"
         d="m 134.0806,152.88749 -7.28011,-2.52931 -21.794,1.27232 -13.966917,-6.15886 -7.930074,9.7988 5.22903,10.69948 6.031634,1.95045 11.659677,-1.33295 11.01856,-1.00771 9.54189,2.01543 7.52261,-0.0319 2.59524,-9.57834 z"
         id="path1"
         sodipodi:nodetypes="ccccccccccccc" />
      <path
         style="display:none;fill:#ffffff;fill-opacity:1;stroke-width:3.66006"
         d="m 89.031039,147.32667 0.0999,15.2557 2.212009,-2.88112 1.301181,3.68142 2.992718,-5.92228 1.951773,5.28203 2.212009,-2.72104 2.732481,4.48172 1.82165,-5.28204 2.73249,4.32167 0.13011,-19.57023 z"
         id="path18"
         sodipodi:nodetypes="cccccccccccc" />
    </g>
    <path
       style="fill:#766250;fill-opacity:1;stroke-width:3.56274"
       d="m 126.45914,159.49062 0.4758,8.60811 -0.41242,6.39238 -4.16557,1.78191 -1.74588,-7.22689 -5.77,-4.97353 3.7556,-6.8842 z"
       id="path3"
       sodipodi:nodetypes="cccccccc" />
    <path
       style="fill:#766250;fill-opacity:1;stroke-width:3.29999"
       d="m 99.920492,162.04788 -2.933635,10.83049 -1.167518,1.40666 -1.362696,-1.13064 -0.681042,-3.78673 -2.88875,-5.97012 4.33726,-3.14263 z"
       id="path4"
       sodipodi:nodetypes="cccccccc" />
    <path
       style="fill:#473b30;fill-opacity:1;stroke-width:3.29999"
       d="m 126.43412,171.8282 -0.10179,9.90101 -4.43447,1.22427 -2.02192,-1.44623 2.23714,-1.99209 0.17234,-6.84359 1.96247,-2.08808 z"
       id="path6"
       sodipodi:nodetypes="cccccccc" />
    <path
       style="fill:#473b30;fill-opacity:1;stroke-width:3.29999"
       d="m 97.137439,170.82665 0.130122,5.98544 0.390351,4.94448 -2.732481,0.65059 -2.8626,-0.26023 1.830904,-2.58004 0.381105,-7.69929 1.431301,-2.60237 z"
       id="path9"
       sodipodi:nodetypes="ccccccccc" />
    <g
       id="g2"
       inkscape:label="Head"
       style="display:none">
      <path
         style="fill:#5a4027;fill-opacity:1;stroke-width:4.48138"
         d="m 88.916819,150.05804 3.82851,-5.76122 -1.50969,-4.1628 -3.78678,1.38832 -1.80639,5.98044 0.47354,2.75345 z"
         id="path14" />
      <path
         style="fill:#b6bdbf;fill-opacity:1;stroke-width:4.04716"
         d="m 73.246739,158.39167 2.48247,-0.78988 1.80543,-3.94938 0.56419,2.14396 0.33853,2.48246 -2.5953,1.24123 -3.27235,0.11283 z"
         id="path17" />
      <path
         style="fill:#705236;fill-opacity:1;stroke-width:3.73504"
         d="m 97.231799,161.2962 2.08274,-11.2468 -4.40038,-6.45778 -9.84085,-0.0262 -3.75064,6.66477 -3.77342,4.42741 -5.3078,3.03372 1.11231,5.76476 14.39879,0.39179 z"
         id="path2"
         sodipodi:nodetypes="cccccccccc" />
      <path
         style="fill:#5a4027;fill-opacity:1;stroke-width:3.69519"
         d="m 72.263969,157.65098 2.22354,2.5792 -1.12539,3.26777 -1.92725,-2.74155 z"
         id="path11" />
      <path
         style="fill:#b6bdbf;fill-opacity:1;stroke-width:4.04716"
         d="m 75.638929,161.61193 2.48247,-0.78988 1.80543,-3.94938 0.56419,2.14396 0.33853,2.48246 -2.5953,1.24123 -3.27235,0.11283 z"
         id="path12" />
      <path
         style="fill:#5a4027;fill-opacity:1;stroke-width:4.52221"
         d="m 91.523229,151.25681 2.3956,-6.55638 4.28688,-1.26084 1.13474,3.90861 -3.78252,5.04338 -2.52169,1.26083 z"
         id="path13" />
    </g>
    <path
       style="fill:#766250;fill-opacity:1;stroke-width:5.02643"
       d="m 89.647873,143.42911 -5.694563,-1.46739 -4.114758,3.57317 0.174515,4.99769 -1.335417,2.25355 -2.27,1.87983 1.353088,3.15661 3.821337,0.14937 4.571494,0.51486 6.923875,-2.34713 1.185815,-8.22899 z"
       id="path16"
       sodipodi:nodetypes="cccccccccccc" />
    <path
       style="fill:#473b30;fill-opacity:1;stroke-width:3.29999"
       d="m 88.916281,145.33244 -0.04601,-3.63429 -1.150093,-1.79414 -1.61013,1.2421 -1.288105,3.03624 z"
       id="path19"
       sodipodi:nodetypes="cccccc" />
    <path
       style="fill:#766250;fill-opacity:1;stroke-width:3.29999"
       d="m 126.57895,152.11423 1.84876,-0.0457 1.96295,2.35085 0.46797,3.00138 0.41098,5.51204 -0.74167,4.45074 0.27395,2.19112 -0.18254,2.2482 -1.22111,-0.1255 -1.60111,-6.22968 -0.53589,-4.0025 -0.1808,-3.26012 -1.45576,-2.44504 -0.81769,-3.10231 z"
       id="path21"
       sodipodi:nodetypes="ccccccccccccccc" />
    <path
       style="fill:#3e332a;fill-opacity:1;stroke-width:3.63417"
       d="m 76.201476,154.58166 1.397124,-1.11053 0.537355,0.96725 -0.465709,1.14635 -0.78812,0.71647 z"
       id="path22" />
    <path
       style="fill:#473b30;fill-opacity:1;stroke-width:3.29999"
       d="m 131.26961,162.9328 -0.74167,4.45074 0.27395,2.19112 -0.18254,2.2482 -1.22111,-0.1255 -1.60111,-6.22968 1.69024,-3.15359 z"
       id="path23"
       sodipodi:nodetypes="cccccccc" />
    <path
       style="fill:#ffffff;fill-opacity:1;stroke-width:3.29999"
       d="m 84.156899,158.23485 2.081361,0.18709 6.828737,-2.33861 1.262848,-8.65285 1.637026,0.51449 -1.590253,8.98026 -8.18513,2.66601 -1.824114,-0.30402 z"
       id="path24"
       sodipodi:nodetypes="ccccccccc" />
  </g>
</svg>
