<?xml version="1.0" encoding="UTF-8" standalone="no"?>
<!-- Created with Inkscape (http://www.inkscape.org/) -->

<svg
   width="1079.9999mm"
   height="1080mm"
   viewBox="0 0 1079.9999 1080"
   version="1.1"
   id="svg1"
   sodipodi:docname="GreenManaIconGSN.svg"
   inkscape:version="1.4.2 (f4327f4, 2025-05-13)"
   xmlns:inkscape="http://www.inkscape.org/namespaces/inkscape"
   xmlns:sodipodi="http://sodipodi.sourceforge.net/DTD/sodipodi-0.dtd"
   xmlns="http://www.w3.org/2000/svg"
   xmlns:svg="http://www.w3.org/2000/svg">
  <sodipodi:namedview
     id="namedview1"
     pagecolor="#505050"
     bordercolor="#eeeeee"
     borderopacity="1"
     inkscape:showpageshadow="0"
     inkscape:pageopacity="0"
     inkscape:pagecheckerboard="true"
     inkscape:deskcolor="#505050"
     inkscape:document-units="mm"
     showguides="true"
     inkscape:zoom="0.092314639"
     inkscape:cx="-135.40648"
     inkscape:cy="969.51037"
     inkscape:window-width="1920"
     inkscape:window-height="1009"
     inkscape:window-x="-8"
     inkscape:window-y="430"
     inkscape:window-maximized="1"
     inkscape:current-layer="svg1" />
  <defs
     id="defs1" />
  <g
     id="g15"
     transform="matrix(9.868246,0,0,8.8533418,-3553.9915,-5347.1628)"
     style="clip-rule:evenodd;display:inline;fill:#666666;fill-opacity:1;fill-rule:nonzero;stroke:#878787;stroke-width:4.80057;stroke-linecap:round;stroke-linejoin:round;stroke-dasharray:none;stroke-opacity:1"
     inkscape:label="GreenManaIcon">
    <path
       style="clip-rule:evenodd;fill:#bfbfbf;fill-opacity:1;fill-rule:nonzero;stroke:#ffffff;stroke-width:4.80057;stroke-linecap:round;stroke-linejoin:miter;stroke-dasharray:none;stroke-opacity:1"
       d="m 419.03798,713.3818 c -4.37382,-12.42404 -9.07864,-23.07054 -8.44828,-34.91945 0.18258,-3.43185 -1.90169,-28.45445 -1.90169,-28.45445 0,0 21.66352,14.39685 18.11855,8.9912 -3.54495,-5.40563 -3.34669,-28.49136 0.89618,-33.43908 4.24288,-4.94771 11.58544,-11.49052 27.81597,-18.4854 7.87148,15.81482 9.85286,24.16575 11.53142,31.33378 1.65706,7.07626 -15.49502,24.78165 -22.31518,27.1779 -6.82014,2.39623 17.04554,3.93867 17.04554,3.93867 0,0 -14.84973,17.9755 -17.57506,21.84012 -5.87139,8.32586 -25.16745,22.01671 -25.16745,22.01671 z"
       id="path13"
       sodipodi:nodetypes="csczzcszcsc" />
    <path
       style="clip-rule:evenodd;display:inline;fill:#bfbfbf;fill-opacity:1;fill-rule:nonzero;stroke:#ffffff;stroke-width:4.80057;stroke-linecap:round;stroke-linejoin:miter;stroke-dasharray:none;stroke-opacity:1"
       d="m 410.69235,714.46089 c 4.37382,-12.42404 9.07864,-23.07054 8.44828,-34.91945 -0.18258,-3.43185 1.90169,-28.45445 1.90169,-28.45445 0,0 -21.66352,14.39685 -18.11855,8.9912 3.54495,-5.40563 3.34669,-28.49136 -0.89618,-33.43908 -4.24288,-4.94771 -11.58544,-11.49052 -27.81597,-18.4854 -7.87148,15.81482 -9.85286,24.16575 -11.53142,31.33378 -1.65706,7.07626 15.49502,24.78165 22.31518,27.1779 6.82014,2.39623 -17.04554,3.93867 -17.04554,3.93867 0,0 14.84973,17.9755 17.57506,21.84012 5.87139,8.32586 25.16745,22.01671 25.16745,22.01671 z"
       id="path14"
       sodipodi:nodetypes="csczzcszcsc"
       inkscape:transform-center-x="23.498448"
       inkscape:transform-center-y="-57.730896" />
    <path
       style="clip-rule:evenodd;display:inline;opacity:1;fill:#bfbfbf;fill-opacity:1;fill-rule:nonzero;stroke:#ffffff;stroke-width:4.80057;stroke-linecap:round;stroke-linejoin:miter;stroke-dasharray:none;stroke-opacity:1"
       d="m 416.23575,721.97431 c -8.25937,-10.26012 -16.23929,-18.73385 -19.58834,-30.11709 -0.97,-3.29697 -11.90034,-26.04219 -11.90034,-26.04219 0,0 17.89417,4.79387 12.75223,0.8762 -5.14194,-3.91767 -4.67536,-24.33821 -2.32103,-30.41596 2.35434,-6.07775 7.10078,-14.69127 20.07806,-26.68913 12.68613,12.29351 17.33386,19.50896 21.30234,25.70971 3.91767,6.12136 0.006,26.01012 -5.62758,30.53958 -5.63385,4.52947 10.37735,0.87139 10.37735,0.87139 0,0 -7.38367,21.57848 -8.66744,26.12981 -2.76572,9.80532 -16.40525,29.13768 -16.40525,29.13768 z"
       id="path15"
       sodipodi:nodetypes="csczzcszcsc" />
    <text
       xml:space="preserve"
       style="font-style:normal;font-variant:normal;font-weight:normal;font-stretch:normal;font-size:41.3891px;line-height:0;font-family:'Alfa Slab One';-inkscape-font-specification:'Alfa Slab One';text-align:start;letter-spacing:0px;writing-mode:lr-tb;direction:ltr;text-anchor:start;clip-rule:evenodd;display:none;opacity:1;fill:#666666;fill-opacity:1;fill-rule:nonzero;stroke:#878787;stroke-width:5.88591;stroke-linecap:round;stroke-linejoin:miter;stroke-dasharray:none;stroke-opacity:1"
       x="423.90656"
       y="645.17706"
       id="text16"
       transform="scale(0.94695195,1.0560198)"><tspan
         id="tspan16"
         x="0"
         y="0"
         style="font-style:normal;font-variant:normal;font-weight:normal;font-stretch:normal;font-size:41.3891px;line-height:0;font-family:'Alfa Slab One';-inkscape-font-specification:'Alfa Slab One';letter-spacing:0px;fill:#666666;fill-opacity:1;stroke:#878787;stroke-width:5.88591;stroke-dasharray:none;stroke-opacity:1"
         sodipodi:role="line">2</tspan></text>
  </g>
</svg>
