<?xml version="1.0" encoding="UTF-8" standalone="no"?>
<!-- Created with Inkscape (http://www.inkscape.org/) -->

<svg
   width="272.9635mm"
   height="285.75mm"
   viewBox="0 0 272.9635 285.75"
   version="1.1"
   id="svg1"
   inkscape:version="1.4.2 (f4327f4, 2025-05-13)"
   sodipodi:docname="DragonMask.svg"
   xmlns:inkscape="http://www.inkscape.org/namespaces/inkscape"
   xmlns:sodipodi="http://sodipodi.sourceforge.net/DTD/sodipodi-0.dtd"
   xmlns:xlink="http://www.w3.org/1999/xlink"
   xmlns="http://www.w3.org/2000/svg"
   xmlns:svg="http://www.w3.org/2000/svg">
  <sodipodi:namedview
     id="namedview1"
     pagecolor="#505050"
     bordercolor="#eeeeee"
     borderopacity="1"
     inkscape:showpageshadow="0"
     inkscape:pageopacity="0"
     inkscape:pagecheckerboard="true"
     inkscape:deskcolor="#505050"
     inkscape:document-units="mm"
     inkscape:zoom="0.70710678"
     inkscape:cx="487.90368"
     inkscape:cy="638.51742"
     inkscape:window-width="1920"
     inkscape:window-height="1009"
     inkscape:window-x="-8"
     inkscape:window-y="430"
     inkscape:window-maximized="1"
     inkscape:current-layer="g21" />
  <defs
     id="defs1">
    <color-profile
       name="Agfa-:-Swop-Standard"
       xlink:href="file:///C:/WINDOWS/system32/spool/drivers/color/RSWOP.icm"
       id="color-profile1" />
  </defs>
  <g
     inkscape:label="Layer 1"
     inkscape:groupmode="layer"
     id="layer1"
     transform="matrix(1.0738462,0,0,1.0738462,6.8504352,24.376113)">
    <path
       id="path33"
       style="display:none;fill:#9c9c9c;fill-opacity:1;stroke-width:1.7222"
       d="m 34.187171,44.474248 -4.784845,14.977243 -0.640514,-0.945612 -1.41914,5.448458 4.0144,5.055776 6.999454,13.687554 -0.813274,2.354165 2.751177,7.504743 1.301239,-3.52451 0.657838,1.286321 4.646733,33.563694 -1.097199,3.21316 0.05678,0.96678 1.166977,21.90451 26.743737,15.71401 29.382316,0.63474 14.10765,-9.62792 16.81553,9.79105 17.93872,13.20537 -14.29967,-14.51623 -20.25727,-15.01574 -14.95752,4.71121 -19.277485,-0.48411 -28.920329,-20.57536 -1.276216,-10.4027 28.531016,-9.77084 -21.01713,-37.749412 -2.043773,-8.049011 -2.123657,0.563036 -6.293974,-11.304515 z" />
    <path
       style="display:none;fill:#918c8c;fill-opacity:1;stroke-width:1.71424"
       d="m 20.632007,43.057882 c -0.07188,-0.556644 -2.027018,-10.585174 -1.647003,-11.294491 0.380017,-0.709313 4.317562,-11.12143 4.317562,-11.12143 l 10.333357,-6.899191 -6.158521,6.36013 -3.063579,11.336801 5.484131,16.175323 z"
       id="path20"
       sodipodi:nodetypes="cscccccc" />
    <g
       id="g17"
       inkscape:label="RightFrontLeg"
       style="display:none"
       transform="matrix(-0.96326158,0.39009403,0.39009403,0.96326158,39.870542,-17.515879)">
      <path
         style="display:inline;fill:#474f3d;fill-opacity:1;stroke-width:1.71971"
         d="m 29.247254,154.52832 2.588033,28.43624 -3.921313,8.50031 20.864987,15.62781 9.501336,4.92573 -3.184269,16.75132 12.169148,-13.2337 -3.900244,-13.48927 -14.435748,-7.68399 -3.741611,-12.00476 9.469944,-18.40029 -7.146263,-12.3506 z"
         id="path16"
         sodipodi:nodetypes="ccccccccccccc" />
    </g>
    <path
       style="display:none;fill:#474f3d;fill-opacity:1;stroke-width:1.68547"
       d="m 148.31509,124.11239 6.59938,10.06073 5.63898,11.45238 -2.61075,18.6556 -7.39524,15.23086 10.80058,4.8878 9.11753,-2.2343 0.63246,3.68689 -14.34035,28.15696 -1.73843,8.77496 -4.55717,-12.0019 5.33341,-16.22692 -19.11123,-2.83413 -12.81575,-16.58947 -0.38602,-18.78377 1.71045,-14.04603 z"
       id="path12"
       sodipodi:nodetypes="ccccccccccccccccc" />
    <path
       style="display:none;fill:#4f3d3d;fill-opacity:1;stroke-width:1.71764"
       d="m 58.551553,136.49838 11.589891,29.69644 8.262645,5.08571 -12.533719,23.52965 -6.522758,8.60708 9.034129,14.81987 -15.626711,-7.77778 -1.589834,-14.56566 9.835805,-13.26961 -1.176905,-13.07288 -15.175612,-13.84734 z"
       id="path10"
       sodipodi:nodetypes="cccccccccccc" />
    <path
       style="display:none;fill:#474f3d;fill-opacity:1;stroke-width:2.29631"
       d="M 84.520439,114.0371 88.727975,88.179199 84.498108,55.604252 71.503822,37.261496 77.233291,23.069874 129.14547,-21.94229 l 22.60427,-0.757528 -11.07107,11.986416 -0.70356,15.4904039 8.9312,9.5941581 12.79141,3.168024 -10.75541,12.892846 -6.45778,16.477979 9.50166,6.854585 12.63358,2.714816 -15.72044,16.146492 -18.97408,11.18142 -15.7363,26.315588 z"
       id="path4" />
    <g
       id="g23"
       inkscape:label="Body"
       style="display:none">
      <path
         style="display:none;fill:#707767;fill-opacity:1;stroke-width:1.71424"
         d="m 68.618853,112.83305 36.158617,-4.65742 37.45626,9.5671 28.50155,2.65279 15.0779,34.95959 -7.52353,15.40531 -17.55488,15.76357 -29.0193,-21.85404 -14.45501,-7.98248 -14.1075,9.62804 -29.382512,-0.63504 -26.743705,-15.71409 -1.240386,-23.21782 z"
         id="path2"
         sodipodi:nodetypes="cccccccccccccc" />
    </g>
    <path
       style="display:none;fill:#717e60;fill-opacity:1;stroke-width:2.62776"
       d="m 89.558627,121.60479 14.278763,-26.360786 7.68857,-36.795255 -7.13938,-24.713232 11.53283,-13.180392 73.04133,-29.1066981 24.71324,7.68856403 -16.47549,8.78692367 -6.5902,16.4754924 6.04103,13.729575 12.63121,8.237744 -16.47551,9.885289 -13.18039,15.377127 7.68857,10.983655 12.6312,7.688553 -23.06567,11.53286 -24.71324,4.94265 -26.90997,22.51649 z"
       id="path3"
       sodipodi:nodetypes="ccccccccccccccccccc" />
    <path
       style="display:none;fill:#7d7979;fill-opacity:0.65;stroke-width:1.71424"
       d="m 171.28312,169.10063 21.60592,-4.84881 32.79817,14.50589 14.30455,27.33354 -2.93567,14.77605 -1.69325,5.70368 3.87423,-19.4923 -15.55573,-27.74081 -30.93521,-13.66519 -25.90903,8.9592 z"
       id="path28"
       sodipodi:nodetypes="ccccccccccc" />
    <path
       style="display:none;fill:#545454;fill-opacity:0.65;stroke-width:1.71424"
       d="m 31.357177,69.010001 -4.014611,-5.05557 12.400525,-6.636553 0.233091,18.293973 z"
       id="path29"
       sodipodi:nodetypes="ccccc" />
    <path
       style="display:none;fill:#7f7676;fill-opacity:0.65;stroke-width:1.71424"
       d="m 152.01459,179.68381 -17.93833,-13.20535 -16.8158,-9.79099 -14.1075,9.62804 -29.382512,-0.63504 -26.743705,-15.71409 -0.453856,-7.85885 6.926362,7.80932 28.665311,11.73818 21.39421,1.01315 13.36982,-8.01868 19.99258,12.50236 z"
       id="path25"
       sodipodi:nodetypes="ccccccccccccc" />
    <g
       id="g8"
       inkscape:label="RightFrontLeg"
       style="display:none"
       transform="matrix(-1,0,0,1,110.54373,-10.930733)">
      <path
         style="display:inline;fill:#848c7a;fill-opacity:1;stroke-width:1.9367"
         d="m 24.450134,154.89692 2.914593,32.02434 -4.416107,9.57288 23.497742,17.59973 10.700219,5.54727 -3.586062,18.86501 13.704657,-14.90354 -4.392379,-15.19135 -16.257257,-8.65356 -4.21373,-13.51953 10.664867,-20.72205 -8.047982,-13.909 z"
         id="path5"
         sodipodi:nodetypes="ccccccccccccc" />
      <path
         style="display:none;fill:#8c7a7a;fill-opacity:1;stroke-width:1.9367"
         d="m 25.020801,162.86424 2.343926,24.05702 -4.416107,9.57288 23.497742,17.59973 10.700219,5.54727 -3.586062,18.86501 13.704657,-14.90354 -4.392379,-15.19135 -16.257257,-8.65356 -4.21373,-13.51953 10.664867,-20.72205 -8.047982,-13.909 -12.622889,1.08363 z"
         id="path15"
         sodipodi:nodetypes="cccccccccccccc" />
    </g>
    <path
       style="display:none;fill:#545454;fill-opacity:0.65;stroke-width:1.9367"
       d="m 26.133977,189.55769 -3.185357,6.93645 23.497742,17.59973 -7.63603,-11.02888 -9.240814,-8.36015 z"
       id="path30"
       sodipodi:nodetypes="cccccc"
       transform="matrix(-1,0,0,1,110.54373,-10.930733)" />
    <path
       d="m 25.488528,67.260159 -19.3190258,8.822187 -7.99177,-2.660118 5.227763,-5.765187 11.3313978,-1.79669 9.731594,-5.718681 -7.022901,-1.934117 -9.8773108,4.70176 -6.973291,0.826265 -3.485349,3.439886 -3.48898,-5.035023 2.758305,-4.892416 4.020179,1.499535 13.2716338,-10.299727 6.733843,-11.994708 17.04994,3.65452 5.228763,11.234059 -4.654315,10.539536"
       style="display:none;fill:#72825c;fill-opacity:1;stroke-width:1.71424"
       id="path1"
       sodipodi:nodetypes="cccccccccccccccccc" />
    <path
       style="display:none;fill:#848c7a;fill-opacity:1;stroke-width:1.83219"
       d="m 172.30308,139.74699 8.66334,12.04292 1.55314,14.52028 -10.7868,16.42963 -13.86875,10.36632 8.21852,10.95308 9.75948,3.12946 -1.02731,3.91182 -26.28213,18.77672 -5.56462,7.43245 0.94171,-14.18033 12.32777,-12.51782 -17.12191,-13.78915 -4.96536,-23.37312 7.96169,-18.28774 7.87608,-12.51782 z"
       id="path11"
       sodipodi:nodetypes="ccccccccccccccccc" />
    <path
       style="display:none;fill:#535353;fill-opacity:0.64878;stroke-width:2.1457"
       d="m 45.725249,115.52896 9.601737,-0.44879 12.772902,-5.18531 5.419768,-10.880987 4.598772,8.638177 -1.941834,7.62334 -4.788953,6.41582 -11.485791,4.42183 -9.907332,0.65766 -2.882823,-0.90992 z"
       id="path24"
       sodipodi:nodetypes="ccccccccccc" />
    <path
       style="display:none;fill:#535353;fill-opacity:0.64878;stroke-width:2.29205"
       d="m 44.402332,122.20374 11.562381,-0.42526 15.381088,-4.91346 6.526467,-10.31053 3.727742,4.60715 2.839072,-0.37409 -3.367338,11.17592 -5.766842,6.07945 -13.831153,4.19001 -11.930377,0.62318 -3.471486,-0.86221 z"
       id="path36"
       sodipodi:nodetypes="cccccccccccc" />
    <path
       style="display:none;fill:#b4b4b4;fill-opacity:1;stroke-width:1.71424"
       d="m 27.968185,43.517013 c 0.08628,-0.554594 1.006728,-10.730387 1.569552,-11.305514 0.562825,-0.575123 7.248988,-9.475216 7.248988,-9.475216 l 11.847902,-3.742235 -7.688446,4.389355 -6.104887,10.031895 0.753461,17.063091 z"
       id="path19"
       sodipodi:nodetypes="cscccccc" />
    <path
       d="m 53.430222,208.82616 3.586062,18.86501 -6.560907,-12.91917 0.622067,-3.84734"
       style="display:none;fill:#6b6b6b;fill-opacity:0.65;stroke-width:1.9367"
       id="path1-4"
       sodipodi:nodetypes="cccc" />
    <path
       style="display:none;fill:#6a6a6a;fill-opacity:0.65;stroke-width:1.83219"
       d="m 168.59607,209.15245 7.24594,-1.96377 -1.02731,3.91182 -26.28213,18.77672 -4.63858,6.17568 3.45525,-9.35169 z"
       id="path31"
       sodipodi:nodetypes="ccccccc" />
    <path
       d="m 182.51956,166.31019 -10.7868,16.42963 -13.86875,10.36632 -0.86229,-4.01561 9.72206,-8.28884 6.57497,-8.8994 z"
       style="display:none;fill:#545454;fill-opacity:0.65;stroke-width:1.83219"
       id="path1-7"
       sodipodi:nodetypes="ccccccc" />
    <path
       style="display:none;fill:#5d5d5d;fill-opacity:0.65;stroke-width:2.13266"
       d="m 210.3597,142.01222 -7.47771,5.96936 -4.51926,10.0445 0.54531,10.39627 -8.0972,-3.65878 -2.38442,-5.28142 0.51232,-7.90854 4.22906,-9.52889 5.17185,-5.03519 5.07468,-1.95451 z"
       id="path37"
       sodipodi:nodetypes="ccccccccccc" />
    <path
       style="display:none;fill:#535353;fill-opacity:0.64878;stroke-width:1.516"
       d="m 38.62896,83.303989 6.456514,-0.854964 9.047833,-5.253834 2.870402,-7.68775 3.857211,7.038579 -1.161491,5.315965 -3.383541,4.532973 -8.115062,3.124158 -6.999834,0.464657 -0.09201,-1.840361 z"
       id="path34"
       sodipodi:nodetypes="ccccccccccc" />
    <path
       style="display:none;fill:#535353;fill-opacity:0.64878;stroke-width:1.59293"
       d="m 38.901599,86.296335 6.907487,-0.882305 9.679803,-5.421845 3.070894,-7.933596 4.126628,7.263665 -1.242618,5.485964 -3.619874,4.677932 -8.681881,3.224065 -7.488757,0.479516 -0.09843,-1.899213 z"
       id="path35"
       sodipodi:nodetypes="ccccccccccc" />
    <g
       id="g21"
       inkscape:label="MASK"
       style="display:inline">
      <path
         id="path33-8"
         style="display:inline;fill:#ffffff;fill-opacity:1;stroke-width:1.7222"
         d="M 58.493972 67.832068 L 56.372721 68.394623 L 57.65423 70.696816 L 58.493972 67.832068 z M 38.356526 82.697667 L 37.543252 85.052313 L 38.608689 87.958927 L 37.621692 85.107654 L 39.416189 84.770314 L 38.517737 83.013352 L 38.356526 82.697667 z " />
      <path
         id="path18"
         style="display:inline;fill:#ffffff;fill-opacity:1;stroke-width:2.70569"
         d="m 77.254626,96.064242 -3.658772,1.190557 -1.113561,0.07555 6.227084,11.184211 z m -32.227806,14.285238 -1.768992,3.93789 -0.422518,3.41238 2.49709,12.30691 0.562555,-1.28536 -0.03513,-0.65928 -0.05678,-0.96678 1.097199,-3.21316 z" />
      <path
         id="path7"
         style="display:inline;fill:#ffffff;fill-opacity:1;stroke-width:2.70569"
         d="m 211.70959,137.29822 -3.37966,2.69776 3.5197,3.67947 0.0905,-1.39845 z m -14.54414,30.32648 0.17036,2.55146 -0.0751,-0.004 0.0515,0.0226 2.67081,-0.90374 0.33349,-0.2743 -1.03657,-0.45813 z" />
      <path
         style="display:inline;fill:#ffffff;fill-opacity:1;stroke-width:2.70569"
         d="m 42.765223,117.55313 12.122939,-0.62472 15.934678,-6.44047 6.431289,-14.420654 5.242025,12.067844 -1.679838,8.28334 -5.974399,8.17749 -14.328958,5.63597 -12.359772,0.83825 -2.89623,-1.15977 z"
         id="path17"
         sodipodi:nodetypes="ccccccccccc" />
      <path
         style="display:inline;fill:#ffffff;fill-opacity:1;stroke-width:2.70569"
         d="m 211.7161,137.29308 -9.48691,7.57328 -5.73355,12.74337 0.84018,12.5666 -11.66734,-0.5771 -1.77896,-10.14219 0.64997,-10.0335 5.36538,-12.08922 6.56148,-6.38811 6.02283,-2.24231 z"
         id="path6"
         sodipodi:nodetypes="ccccccccccc" />
      <path
         style="display:inline;fill:#ffffff;fill-opacity:1;stroke-width:1.80436"
         d="m 37.621689,85.107769 7.955862,-1.495658 9.955466,-5.679556 2.962206,-10.104579 4.542165,7.507043 -0.370299,5.624234 -3.217889,5.937863 -8.966154,5.00447 -8.093306,1.657924 -2.017613,-0.507767 z"
         id="path21"
         sodipodi:nodetypes="ccccccccccc" />
    </g>
    <path
       id="path39"
       style="display:none;fill:#3d404f;fill-opacity:1;stroke-width:1.7222"
       d="m 58.495898,67.828182 -2.123384,0.562756 4.16667,7.484298 z m -19.95227,14.322643 -1.000973,2.89749 2.751253,7.50497 1.49655,-4.0535 z" />
    <g
       id="g27"
       inkscape:label="UndersScales"
       style="display:inline">
      <path
         style="display:none;fill:#b4b4b4;fill-opacity:1;stroke-width:1.71424"
         d="m 172.34145,165.79334 21.60592,-4.84881 33.45963,16.75485 13.57225,28.31438 -2.68576,18.95069 -15.7641,18.43529 12.83345,-16.82876 3.87423,-19.4923 -15.55573,-27.74081 -30.93521,-13.66519 -25.90903,8.9592 z"
         id="path27"
         sodipodi:nodetypes="cccccccccccc" />
    </g>
  </g>
</svg>
